<svg width="81" height="81" viewBox="0 0 81 81" fill="none" xmlns="http://www.w3.org/2000/svg">
<ellipse cx="40.2793" cy="40.1976" rx="39.9171" ry="40.1718" fill="url(#paint0_linear)"/>
<g clip-path="url(#clip0)">
<path d="M48.6266 40.9007C48.2811 44.9993 45.0505 48.2505 40.9779 48.5981V52.8518H39.5808V48.5981C35.5082 48.2505 32.2775 44.9993 31.9321 40.9007H27.7054V39.4946H31.9321C32.2775 35.396 35.5082 32.1448 39.5808 31.7971V27.5435H40.9779V31.7971C45.0505 32.1448 48.2811 35.396 48.6266 39.4946H52.8532V40.9007H48.6266V40.9007ZM40.2793 33.1676C36.4213 33.1676 33.2938 36.315 33.2938 40.1976C33.2938 44.0803 36.4213 47.2277 40.2793 47.2277C44.1373 47.2277 47.2648 44.0803 47.2648 40.1976C47.2604 36.3169 44.1355 33.1721 40.2793 33.1676Z" fill="white"/>
<path d="M43.5674 27.0465L42.5796 28.0406L40.2793 25.7256L37.979 28.0406L36.9912 27.0464L39.7854 24.2344C40.058 23.9599 40.5002 23.9598 40.773 24.2341C40.7731 24.2342 40.7732 24.2343 40.7732 24.2344L43.5674 27.0465Z" fill="white"/>
<path d="M40.7732 56.1608C40.5005 56.4354 40.0584 56.4354 39.7857 56.1611C39.7856 56.161 39.7855 56.1609 39.7854 56.1608L36.9912 53.3488L37.979 52.3548L40.2793 54.6697L42.5796 52.3547L43.5674 53.3488L40.7732 56.1608Z" fill="white"/>
<path d="M28.1994 42.5127L27.2116 43.5067L24.4174 40.6947C24.1446 40.4203 24.1446 39.9753 24.4172 39.7009C24.4172 39.7008 24.4173 39.7007 24.4174 39.7006L27.2116 36.8886L28.1994 37.8827L25.8991 40.1977L28.1994 42.5127Z" fill="white"/>
<path d="M56.1416 40.6944C56.1415 40.6945 56.1414 40.6946 56.1413 40.6947L53.3471 43.5067L52.3594 42.5126L54.6597 40.1977L52.3594 37.8827L53.3471 36.8886L56.1413 39.7006C56.4141 39.975 56.4142 40.42 56.1416 40.6944Z" fill="white"/>
<path d="M40.2793 43.0097C38.7361 43.0097 37.4851 41.7507 37.4851 40.1976C37.4851 38.6446 38.7361 37.3856 40.2793 37.3856C41.8225 37.3856 43.0735 38.6446 43.0735 40.1976C43.0718 41.75 41.8218 43.008 40.2793 43.0097ZM40.2793 38.7916C39.5077 38.7916 38.8822 39.4211 38.8822 40.1976C38.8822 40.9742 39.5077 41.6037 40.2793 41.6037C41.0509 41.6037 41.6764 40.9742 41.6764 40.1976C41.6755 39.4215 41.0505 38.7925 40.2793 38.7916Z" fill="white"/>
<path d="M33.785 21.6246L33.321 20.2982C34.2218 19.9794 35.1434 19.7232 36.0791 19.5313L36.3575 20.9092C35.4846 21.088 34.6252 21.327 33.785 21.6246Z" fill="white"/>
<path d="M29.0499 24.0789L28.2463 22.9283C29.0274 22.3763 29.845 21.8785 30.6933 21.4385L31.3331 22.688C30.5417 23.099 29.7788 23.5637 29.0499 24.0789Z" fill="white"/>
<path d="M25.1452 27.7254L24.0659 26.8329C24.6713 26.0914 25.3254 25.3915 26.0238 24.738L26.9748 25.7685C26.3221 26.379 25.7109 27.0327 25.1452 27.7254Z" fill="white"/>
<path d="M22.3628 32.2892L21.0844 31.7234C21.4681 30.8451 21.9107 29.994 22.4092 29.1761L23.6003 29.9121C23.1347 30.6753 22.7212 31.4695 22.3628 32.2892Z" fill="white"/>
<path d="M20.9096 37.4423L19.5261 37.2466C19.6591 36.2959 19.8563 35.3552 20.1162 34.4315L21.4601 34.8152C21.2177 35.6774 21.0338 36.555 20.9096 37.4423Z" fill="white"/>
<path d="M59.4915 48.6341L58.2118 48.0711C58.5683 47.2504 58.8681 46.4057 59.1088 45.5433L60.4541 45.9236C60.1957 46.8483 59.874 47.7539 59.4915 48.6341Z" fill="white"/>
<path d="M56.518 53.5298L55.436 52.6407C55.9989 51.9463 56.5147 51.2145 56.9798 50.4503L58.1709 51.1843C57.6734 52.0029 57.1211 52.7865 56.518 53.5298Z" fill="white"/>
<path d="M52.345 57.4433L51.54 56.2948C52.2675 55.7774 52.9597 55.2115 53.6118 54.6008L54.5641 55.6292C53.8659 56.2836 53.1245 56.8897 52.345 57.4433Z" fill="white"/>
<path d="M47.2773 60.0834L46.8107 58.7577C47.6503 58.4583 48.4686 58.1012 49.2597 57.6891L49.9023 58.9379C49.0542 59.3795 48.1772 59.7622 47.2773 60.0834Z" fill="white"/>
<path d="M41.6875 61.2418L41.5947 59.8385C42.4832 59.7793 43.3666 59.6591 44.2388 59.4787L44.5199 60.8559C43.5855 61.0493 42.6392 61.1782 41.6875 61.2418Z" fill="white"/>
<path d="M19.3229 40.1977H20.72C20.7321 51.0639 29.4821 59.8696 40.2794 59.8819V61.2879C28.7109 61.2747 19.336 51.84 19.3229 40.1977Z" fill="white"/>
<path d="M59.8388 40.1977C59.8267 29.3315 51.0767 20.5257 40.2794 20.5135V19.1075C51.8479 19.1206 61.2228 28.5553 61.2359 40.1977H59.8388Z" fill="white"/>
</g>
<defs>
<linearGradient id="paint0_linear" x1="40.2793" y1="0.0257568" x2="40.2793" y2="80.3694" gradientUnits="userSpaceOnUse">
<stop stop-color="#FF9C2E"/>
<stop offset="1" stop-color="#FE5C08"/>
</linearGradient>
<clipPath id="clip0">
<rect width="41.913" height="42.1804" fill="white" transform="matrix(1 0 0 -1 19.3229 61.2879)"/>
</clipPath>
</defs>
</svg>
