<svg width="80" height="81" viewBox="0 0 80 81" fill="none" xmlns="http://www.w3.org/2000/svg">
<ellipse cx="39.9171" cy="40.7479" rx="39.9171" ry="40.1718" fill="url(#paint0_linear)"/>
<g clip-path="url(#clip0)">
<path d="M56.3997 54.7573H54.4128V47.1833C54.4128 46.9152 54.1969 46.6978 53.9304 46.6978C53.664 46.6978 53.448 46.9152 53.448 47.1833V54.7573H49.2152V38.0738H53.448V44.9177C53.448 45.1858 53.664 45.4032 53.9304 45.4032C54.1969 45.4032 54.4128 45.1858 54.4128 44.9177V37.5883C54.4128 37.3202 54.1969 37.1029 53.9304 37.1029H48.7328C48.4664 37.1029 48.2504 37.3202 48.2504 37.5883V54.7573H47.1361V40.2039C47.1361 39.9358 46.9201 39.7184 46.6537 39.7184H41.4558C41.1894 39.7184 40.9735 39.9358 40.9735 40.2039V54.7573H39.8591V44.1272C39.8591 43.8591 39.6431 43.6417 39.3767 43.6417H34.1789C33.9124 43.6417 33.6965 43.8591 33.6965 44.1272V54.7573H32.5821V47.2658C32.5821 46.9977 32.3661 46.7803 32.0997 46.7803H26.9018C26.6354 46.7803 26.4194 46.9977 26.4194 47.2658V54.7573H24.4328C24.1664 54.7573 23.9504 54.9747 23.9504 55.2428V57.3355C23.9504 57.6036 24.1664 57.821 24.4328 57.821H29.6427C29.9091 57.821 30.1251 57.6036 30.1251 57.3355C30.1251 57.0674 29.9091 56.8501 29.6427 56.8501H24.9152V55.7283H55.9173V56.8501H31.8939C31.6275 56.8501 31.4115 57.0674 31.4115 57.3355C31.4115 57.6036 31.6275 57.821 31.8939 57.821H56.3997C56.6661 57.821 56.8821 57.6036 56.8821 57.3355V55.2428C56.8821 54.9747 56.6661 54.7573 56.3997 54.7573ZM41.9382 40.6894H46.1713V54.7573H41.9382V40.6894ZM34.6612 44.6127H38.8943V54.7573H34.6612V44.6127ZM27.3842 47.7513H31.6173V54.7573H27.3842V47.7513Z" fill="white"/>
<path d="M26.837 42.3894H34.1784C34.6044 42.3894 35.0134 42.2083 35.3008 41.8928L41.2805 35.3273H45.354C45.7607 35.3273 46.1429 35.1681 46.4302 34.8789L51.3691 29.9085V31.4422C51.3691 31.7103 51.5851 31.9276 51.8515 31.9276H53.9303C54.1968 31.9276 54.4127 31.7103 54.4127 31.4422V26.2107C54.4127 25.3663 53.7301 24.6792 52.8909 24.6792H47.6933C47.4269 24.6792 47.2109 24.8966 47.2109 25.1647V27.2574C47.2109 27.5255 47.4269 27.7429 47.6933 27.7429H49.2166L44.7239 32.2643H40.611C40.1856 32.2643 39.7767 32.4453 39.4894 32.7608L33.5089 39.3263H32.1788C31.9123 39.3263 31.6964 39.5437 31.6964 39.8118C31.6964 40.0799 31.9123 40.2973 32.1788 40.2973H33.7211C33.8563 40.2973 33.9854 40.2402 34.0767 40.1399L40.2006 33.4169C40.3057 33.3015 40.4553 33.2353 40.611 33.2353H44.9236C45.0515 33.2353 45.1743 33.1842 45.2647 33.0931L50.7222 27.6008C50.8602 27.4619 50.9015 27.2531 50.8268 27.0717C50.7521 26.8903 50.5762 26.772 50.3811 26.772H48.1756V25.6502H52.8909C53.198 25.6502 53.4479 25.9017 53.4479 26.2107V30.9567H52.3339V28.7365C52.3339 28.5402 52.2164 28.3631 52.0361 28.288C51.8559 28.213 51.6483 28.2544 51.5104 28.3932L45.7481 34.1923C45.643 34.2981 45.5029 34.3564 45.354 34.3564H41.0684C40.9331 34.3564 40.8041 34.4135 40.7127 34.5138L34.5894 41.2367C34.4844 41.3522 34.3346 41.4184 34.1784 41.4184H27.3194V40.2973H29.9276C30.194 40.2973 30.41 40.0799 30.41 39.8118C30.41 39.5437 30.194 39.3263 29.9276 39.3263H26.837C26.5706 39.3263 26.3546 39.5437 26.3546 39.8118V41.9039C26.3546 42.172 26.5706 42.3894 26.837 42.3894V42.3894Z" fill="white"/>
</g>
<defs>
<linearGradient id="paint0_linear" x1="39.9171" y1="0.576111" x2="39.9171" y2="80.9198" gradientUnits="userSpaceOnUse">
<stop stop-color="#FF9C2E"/>
<stop offset="1" stop-color="#FE5C08"/>
</linearGradient>
<clipPath id="clip0">
<rect width="32.9316" height="33.1418" fill="white" transform="translate(23.9504 24.6792)"/>
</clipPath>
</defs>
</svg>
