<svg width="80" height="81" viewBox="0 0 80 81" fill="none" xmlns="http://www.w3.org/2000/svg">
<ellipse cx="39.9174" cy="40.1718" rx="39.9171" ry="40.1718" fill="url(#paint0_linear)"/>
<g clip-path="url(#clip0)">
<path d="M23.7644 56.236C25.872 58.3435 28.3271 59.9985 31.0617 61.1552C33.8947 62.3534 36.902 62.9609 40.0002 62.9609C43.0983 62.9609 46.1056 62.3534 48.9386 61.1552C51.6731 59.9985 54.1283 58.3435 56.236 56.236C58.3436 54.1283 59.9987 51.6731 61.1553 48.9385C62.3535 46.1056 62.9611 43.0982 62.9611 40.0002C62.9611 36.9019 62.3535 33.8946 61.1553 31.0618C59.9987 28.3272 58.3435 25.872 56.236 23.7644C54.1283 21.6568 51.6732 20.0017 48.9386 18.8451C46.1056 17.6468 43.0983 17.0393 40.0002 17.0393C36.902 17.0393 33.8947 17.6469 31.0617 18.8451C28.3271 20.0017 25.872 21.6568 23.7644 23.7644C21.6567 25.872 20.0016 28.3272 18.845 31.0617C17.6468 33.8946 17.0393 36.9019 17.0393 40.0002C17.0393 43.0983 17.6468 46.1056 18.8451 48.9385C20.0016 51.6731 21.6568 54.1283 23.7644 56.236ZM40.0002 20.3912C50.8299 20.3912 59.609 29.1705 59.609 40.0002C59.609 50.8298 50.8299 59.609 40.0002 59.609C29.1704 59.609 20.3912 50.8298 20.3912 40.0002C20.3912 29.1705 29.1704 20.3912 40.0002 20.3912Z" fill="white"/>
<path d="M40 63.0008C36.8963 63.0008 33.884 62.3923 31.0463 61.1921C28.307 60.0334 25.8477 58.3755 23.7366 56.2644C21.6254 54.1531 19.9675 51.6937 18.8089 48.9545C17.6086 46.1167 17 43.1043 17 40.001C17 36.8976 17.6086 33.8851 18.8088 31.0472C19.9674 28.3081 21.6254 25.8487 23.7365 23.7375C25.8477 21.6262 28.3071 19.9684 31.0462 18.8098C33.8841 17.6096 36.8966 17.001 39.9999 17.001C43.1035 17.001 46.116 17.6096 48.9535 18.8099C51.6928 19.9684 54.1521 21.6264 56.2634 23.7376C58.3747 25.849 60.0326 28.3083 61.1911 31.0473C62.3914 33.8852 63 36.8976 63 40.001C63 43.1043 62.3914 46.1167 61.1911 48.9546C60.0326 51.6937 58.3748 54.153 56.2634 56.2645C54.1523 58.3755 51.6928 60.0334 48.9535 61.1922C46.116 62.3923 43.1035 63.0008 40 63.0008ZM40 17.0792C36.9071 17.0792 33.905 17.6857 31.0768 18.8819C28.347 20.0365 25.8959 21.6888 23.7919 23.7928C21.6878 25.8969 20.0355 28.3479 18.8809 31.0776C17.6847 33.9059 17.0782 36.9081 17.0782 40.001C17.0782 43.0937 17.6847 46.096 18.8809 48.9242C20.0355 51.654 21.6878 54.105 23.7919 56.2091C25.8959 58.313 28.3468 59.9652 31.0768 61.12C33.9047 62.3161 36.9069 62.9226 40 62.9226C43.0931 62.9226 46.0952 62.3161 48.9232 61.1199C51.6531 59.9652 54.1041 58.313 56.2081 56.2091C58.3123 54.1047 59.9645 51.6538 61.119 48.9242C62.3152 46.096 62.9218 43.0938 62.9218 40.001C62.9218 36.9081 62.3152 33.9059 61.119 31.0778C59.9646 28.3481 58.3123 25.8972 56.2081 23.7929C54.104 21.6888 51.6529 20.0366 48.9232 18.8819C46.0952 17.6857 43.093 17.0792 40 17.0792ZM40 59.6489C34.7518 59.6489 29.8177 57.6052 26.1067 53.8942C22.3957 50.1831 20.3519 45.2491 20.3519 40.001C20.3519 34.7528 22.3957 29.8187 26.1067 26.1077C29.8177 22.3967 34.7518 20.3529 40 20.3529C45.2482 20.3529 50.1822 22.3967 53.8932 26.1077C57.6043 29.8188 59.648 34.7528 59.648 40.001C59.648 45.2491 57.6043 50.1832 53.8932 53.8942C50.1822 57.6052 45.2481 59.6489 40 59.6489ZM40 20.4312C34.7727 20.4312 29.8583 22.4668 26.1621 26.163C22.4658 29.8593 20.4302 34.7737 20.4302 40.001C20.4302 45.2283 22.4658 50.1426 26.1621 53.8388C29.8583 57.535 34.7727 59.5706 40 59.5706C45.2273 59.5706 50.1417 57.535 53.8379 53.8388C57.5341 50.1426 59.5697 45.2282 59.5697 40.001C59.5697 34.7737 57.5341 29.8592 53.8379 26.163C50.1416 22.4667 45.2273 20.4312 40 20.4312Z" fill="white"/>
<path d="M34.9172 48.3596C35.2315 48.674 35.6578 48.8504 36.1023 48.8504C36.5469 48.8504 36.9731 48.6739 37.2874 48.3596L51.6361 34.0109C52.2906 33.3564 52.2906 32.2953 51.6361 31.6408C50.9816 30.9863 49.9204 30.9862 49.2659 31.6408L36.1023 44.8044L30.7343 39.4364C30.0798 38.7818 29.0187 38.7818 28.3642 39.4364C27.7097 40.0909 27.7097 41.152 28.3642 41.8065L34.9172 48.3596Z" fill="white"/>
<path d="M36.1022 48.8894C35.6441 48.8894 35.2134 48.711 34.8895 48.387L28.3364 41.834C27.6678 41.1653 27.6678 40.0772 28.3364 39.4085C28.6604 39.0845 29.0911 38.9061 29.5492 38.9061C30.0073 38.9061 30.438 39.0845 30.762 39.4085L36.1023 44.7488L49.2382 31.6129C49.5621 31.2889 49.9928 31.1105 50.451 31.1105C50.909 31.1105 51.3397 31.2889 51.6637 31.6129C51.9877 31.9368 52.1661 32.3675 52.1661 32.8256C52.1661 33.2837 51.9877 33.7144 51.6637 34.0384L37.315 48.387C36.9912 48.711 36.5604 48.8894 36.1022 48.8894ZM29.5492 38.9844C29.112 38.9844 28.701 39.1546 28.3918 39.4639C27.7537 40.1021 27.7537 41.1405 28.3918 41.7787L34.9449 48.3317C35.254 48.6409 35.665 48.8111 36.1022 48.8111C36.5395 48.8111 36.9505 48.6409 37.2597 48.3317L51.6083 33.9831C51.9175 33.6739 52.0878 33.2629 52.0878 32.8257C52.0878 32.3886 51.9175 31.9774 51.6083 31.6683C51.2992 31.359 50.8881 31.1889 50.4509 31.1889C50.0137 31.1889 49.6026 31.3591 49.2934 31.6683L36.1022 44.8595L30.7066 39.4639C30.3974 39.1546 29.9864 38.9844 29.5492 38.9844Z" fill="white"/>
</g>
<defs>
<linearGradient id="paint0_linear" x1="39.9174" y1="0" x2="39.9174" y2="80.3437" gradientUnits="userSpaceOnUse">
<stop stop-color="#FF9C2E"/>
<stop offset="1" stop-color="#FE5C08"/>
</linearGradient>
<clipPath id="clip0">
<rect width="46" height="46" fill="white" transform="translate(17 17)"/>
</clipPath>
</defs>
</svg>
