<svg width="31" height="31" viewBox="0 0 31 31" fill="none" xmlns="http://www.w3.org/2000/svg">
<g clip-path="url(#clip0)">
<path d="M20.7593 0.674683C19.1671 0.784817 17.306 1.80402 16.2214 3.13123C15.2321 4.33524 14.4182 6.12352 14.7356 7.86139C16.4753 7.91553 18.2729 6.87205 19.3145 5.52245C20.2889 4.26617 21.0263 2.48909 20.7593 0.674683Z" fill="#FF952A"/>
<path d="M27.0521 10.695C25.5233 8.77795 23.3747 7.66541 21.3456 7.66541C18.667 7.66541 17.5339 8.94781 15.6728 8.94781C13.7539 8.94781 12.296 7.66914 9.97943 7.66914C7.70395 7.66914 5.281 9.05981 3.74473 11.438C1.58498 14.7868 1.95458 21.0831 5.4546 26.4461C6.70714 28.365 8.37969 30.5229 10.5674 30.5415C12.5144 30.5602 13.0632 29.2927 15.7008 29.2797C18.3384 29.2647 18.8387 30.5583 20.7819 30.5378C22.9715 30.521 24.7355 28.1298 25.9881 26.2109C26.8859 24.8351 27.2201 24.1426 27.9163 22.5895C22.852 20.6612 22.04 13.4596 27.0521 10.695Z" fill="#FF952A"/>
</g>
<defs>
<clipPath id="clip0">
<rect width="29.867" height="29.867" fill="white" transform="translate(0.22699 0.674683)"/>
</clipPath>
</defs>
</svg>
