<svg width="186" height="130" viewBox="0 0 186 130" fill="none" xmlns="http://www.w3.org/2000/svg">
<path d="M179.12 22.18C152.46 9.03999 122.62 2.14 92.8299 1.95C63.0399 2.14 33.2 9.02999 6.54001 22.18C1.05001 24.89 0.779991 27.66 2.01999 29.93C2.03999 29.98 2.07 30.02 2.09 30.07C2.1 30.08 2.09996 30.09 2.10996 30.11C18.33 58.54 34.55 86.98 50.77 115.41C56.77 111.99 63.07 109.36 69.55 107.51C72.54 114.44 75.55 121.36 78.54 128.29H92.8299H107.12C110.11 121.36 113.12 114.44 116.11 107.51C122.59 109.37 128.89 111.99 134.89 115.41C151.11 86.98 167.33 58.54 183.55 30.11C184.89 27.79 184.76 24.95 179.12 22.18Z" fill="rgba(204, 207, 212, 0.8)"/>
<path d="M105 46.16H84.47C83.72 46.16 83.11 46.77 83.11 47.52V54.15C83.11 54.9 83.72 55.51 84.47 55.51H97.62C97.94 55.51 98.2 55.25 98.2 54.93C98.2 54.61 97.94 54.35 97.62 54.35H84.47C84.36 54.35 84.28 54.26 84.28 54.16V47.53C84.28 47.42 84.37 47.34 84.47 47.34H105C105.11 47.34 105.19 47.43 105.19 47.53V54.16C105.19 54.27 105.1 54.35 105 54.35H100.34C100.02 54.35 99.76 54.61 99.76 54.93C99.76 55.25 100.02 55.51 100.34 55.51H105C105.75 55.51 106.36 54.9 106.36 54.15V47.52C106.36 46.77 105.75 46.16 105 46.16ZM87.04 48.5H86.02C85.7 48.5 85.4399 48.76 85.4399 49.08V52.6C85.4399 52.92 85.71 53.18 86.02 53.18C86.02 53.18 86.96 53.18 87.22 53.18C88.06 53.18 88.75 52.49 88.75 51.65C88.75 51.21 88.57 50.82 88.27 50.54C88.37 50.35 88.4301 50.12 88.4301 49.89C88.4301 49.12 87.81 48.5 87.04 48.5ZM86.6 49.66H87.04C87.16 49.66 87.27 49.76 87.27 49.89C87.27 50.02 87.17 50.12 87.04 50.12C86.96 50.12 86.75 50.12 86.6 50.12V49.66ZM87.22 52.01C87.1 52.01 86.85 52.01 86.6 52.01V51.28C86.7 51.28 87.12 51.28 87.22 51.28C87.42 51.28 87.58 51.44 87.58 51.64C87.58 51.84 87.42 52.01 87.22 52.01ZM110.01 59.01C110.63 59.01 111.14 58.5 111.14 57.88V35.45C111.14 34.83 110.63 34.32 110.01 34.32H79.45C78.83 34.32 78.3199 34.83 78.3199 35.45V57.88C78.3199 58.5 78.83 59.01 79.45 59.01H110.01ZM79.49 35.5H90.12H109.96V57.85H79.48V45.49V35.5H79.49ZM110.55 32H78.9C77.29 32 75.98 33.31 75.98 34.92V40.2C75.98 40.52 76.2401 40.78 76.5601 40.78C76.8801 40.78 77.14 40.52 77.14 40.2V34.92C77.14 33.96 77.92 33.17 78.89 33.17H110.54C111.5 33.17 112.29 33.95 112.29 34.92V58.43C112.29 59.39 111.51 60.18 110.54 60.18H78.89C77.93 60.18 77.14 59.4 77.14 58.43V42.92C77.14 42.6 76.8801 42.34 76.5601 42.34C76.2401 42.34 75.98 42.6 75.98 42.92V58.43C75.98 60.04 77.29 61.35 78.9 61.35H91.84L90.9 66.09H90.53C89.17 66.09 88.0699 67.19 88.0699 68.55V70.92C88.0699 71.41 88.47 71.81 88.96 71.81H100.48C100.97 71.81 101.37 71.41 101.37 70.92V68.55C101.37 67.19 100.27 66.09 98.91 66.09H98.54L97.6 61.35H110.54C112.15 61.35 113.46 60.04 113.46 58.43V34.92C113.47 33.31 112.16 32 110.55 32ZM93.03 61.35H96.42L97.36 66.09H92.1L93.03 61.35ZM98.92 67.25C99.63 67.25 100.22 67.83 100.22 68.55V70.65H89.24V68.55C89.24 67.84 89.82 67.25 90.54 67.25H98.92ZM107.56 40.16H82.1C81.78 40.16 81.52 40.42 81.52 40.74C81.52 41.06 81.78 41.32 82.1 41.32H107.56C107.88 41.32 108.14 41.06 108.14 40.74C108.14 40.42 107.88 40.16 107.56 40.16ZM100.56 43.66C100.88 43.66 101.14 43.4 101.14 43.08C101.14 42.76 100.88 42.5 100.56 42.5H82.1C81.78 42.5 81.52 42.76 81.52 43.08C81.52 43.4 81.78 43.66 82.1 43.66H100.56ZM97.6 48.5C96.31 48.5 95.26 49.55 95.26 50.84C95.26 52.13 96.31 53.18 97.6 53.18C98.89 53.18 99.9399 52.13 99.9399 50.84C99.9499 49.55 98.89 48.5 97.6 48.5ZM97.6 52.01C96.95 52.01 96.42 51.48 96.42 50.83C96.42 50.18 96.95 49.65 97.6 49.65C98.25 49.65 98.78 50.18 98.78 50.83C98.78 51.48 98.25 52.01 97.6 52.01ZM89.6801 50.84C89.6801 52.13 90.73 53.18 92.02 53.18C93.31 53.18 94.36 52.13 94.36 50.84C94.36 49.55 93.31 48.5 92.02 48.5C90.73 48.5 89.6801 49.55 89.6801 50.84ZM93.2 50.84C93.2 51.49 92.67 52.02 92.02 52.02C91.37 52.02 90.84 51.49 90.84 50.84C90.84 50.19 91.37 49.66 92.02 49.66C92.67 49.66 93.2 50.19 93.2 50.84ZM107.56 37.83H82.1C81.78 37.83 81.52 38.09 81.52 38.41C81.52 38.73 81.78 38.99 82.1 38.99H107.56C107.88 38.99 108.14 38.73 108.14 38.41C108.14 38.09 107.88 37.83 107.56 37.83ZM101.42 48.5C101.1 48.5 100.84 48.76 100.84 49.08V52.6C100.84 52.92 101.1 53.18 101.42 53.18C101.74 53.18 102 52.92 102 52.6V52.03L103.03 53.02C103.26 53.24 103.63 53.24 103.85 53.01C104.07 52.78 104.07 52.41 103.84 52.19L102.38 50.78L103.7 49.56C103.94 49.34 103.95 48.97 103.73 48.74C103.51 48.5 103.14 48.49 102.91 48.71L102 49.55V49.09C102.01 48.76 101.75 48.5 101.42 48.5Z" fill="black"/>
</svg>
