<svg width="145" height="161" viewBox="0 0 145 161" fill="none" xmlns="http://www.w3.org/2000/svg">
<path d="M86.35 158.1C61.64 141.58 40.76 119.18 25.7 93.47C10.98 67.57 2.03004 38.28 0.0900407 8.62C-0.309959 2.50999 1.94999 0.899987 4.53999 0.829987C4.58999 0.829987 4.64003 0.830007 4.70003 0.820007C4.71003 0.820007 4.73 0.820007 4.74 0.820007C37.47 0.660007 70.21 0.489987 102.94 0.329987C102.97 7.22999 103.85 14 105.48 20.55C112.98 19.68 120.48 18.82 127.98 17.95L135.12 30.32L142.26 42.69C137.75 48.75 133.26 54.81 128.75 60.87C133.6 65.55 139.02 69.7 144.98 73.18C128.46 101.44 111.94 129.7 95.42 157.96C94.1 160.29 91.58 161.6 86.35 158.1Z" fill="rgba(204, 207, 212, 0.8)"/>
<path d="M86.85 55.63C87.2 55.28 87.39 54.81 87.39 54.32C87.38 53.3 86.55 52.47 85.53 52.46H85.52C85.03 52.46 84.56 52.66 84.22 53.01L82.12 55.11C81.62 54.99 81.11 54.93 80.59 54.93V48.91L82.98 44.73C82.99 44.72 82.99 44.71 82.99 44.7C83.01 44.66 83.02 44.62 83.03 44.58C83.04 44.54 83.05 44.5 83.05 44.46C83.05 44.45 83.06 44.44 83.06 44.42C83.06 44.38 83.05 44.34 83.04 44.3C83.04 44.28 83.04 44.26 83.03 44.24C82.75 42.61 78.6 42.56 78.11 42.56C77.62 42.56 73.48 42.61 73.19 44.24C73.18 44.26 73.18 44.28 73.18 44.3C73.17 44.34 73.17 44.38 73.16 44.42C73.16 44.43 73.17 44.44 73.17 44.46C73.17 44.5 73.18 44.54 73.19 44.58C73.2 44.62 73.21 44.66 73.23 44.7C73.24 44.71 73.24 44.72 73.24 44.73L75.63 48.91V54.93H73.16V50.83C73.61 50.18 73.82 49.41 73.78 48.62C73.78 46.89 71.91 45.34 71.69 45.17C71.67 45.16 71.66 45.15 71.64 45.14C71.57 45.1 71.5 45.07 71.42 45.05C71.26 45.02 71.1 45.05 70.97 45.14C70.95 45.15 70.93 45.15 70.92 45.17C70.71 45.34 68.83 46.89 68.83 48.62C68.78 49.4 69 50.18 69.45 50.83V54.93H67.6V49.37C67.6 49.35 67.59 49.33 67.59 49.31C67.59 49.29 67.59 49.27 67.59 49.25L66.95 45.98C66.81 45.42 66.31 45.04 65.74 45.04C65.17 45.05 64.67 45.45 64.55 46.01L63.91 49.25C63.91 49.27 63.91 49.29 63.91 49.31C63.91 49.33 63.9 49.35 63.9 49.37V54.93H62.66V52.46C62.66 51.78 62.11 51.22 61.42 51.22V49.81C61.8 49.59 62.04 49.19 62.04 48.75V43.81C62.04 43.13 61.49 42.57 60.8 42.57H57.71C57.03 42.57 56.47 43.12 56.47 43.81V48.75C56.47 49.19 56.71 49.59 57.09 49.81V51.22C56.41 51.22 55.85 51.77 55.85 52.46V55.05C52.63 55.65 50.29 58.46 50.29 61.74L50.3 78.39C50.29 78.72 50.42 79.05 50.65 79.29C50.88 79.53 51.2 79.66 51.54 79.66H86.11C86.44 79.66 86.76 79.53 86.99 79.29C87.22 79.05 87.35 78.74 87.35 78.41L87.36 61.74C87.37 59.97 86.68 58.27 85.44 57.01L86.85 55.63ZM85.11 53.89C85.22 53.77 85.38 53.71 85.54 53.71C85.79 53.71 86.02 53.86 86.12 54.09C86.22 54.32 86.16 54.59 85.98 54.77L84.54 56.21C84.19 55.96 83.82 55.75 83.44 55.57L85.11 53.89ZM74.52 44.44C74.92 44.18 76.16 43.81 78.13 43.81C80.09 43.81 81.34 44.18 81.74 44.44L79.63 48.14H76.64L74.52 44.44ZM76.89 50.61V49.37H79.36V50.61H76.89ZM79.37 51.85V54.94H76.9V51.85H79.37ZM70.1 48.64C70.1 47.89 70.81 47.02 71.34 46.51C71.87 47.03 72.58 47.89 72.58 48.64C72.61 49.11 72.5 49.58 72.28 50H70.4C70.17 49.58 70.07 49.11 70.1 48.64ZM70.71 52.47V51.23H71.95V52.47H70.71ZM71.95 53.7V54.94H70.71V53.7H71.95ZM65.76 46.26L66.25 48.76H65.28L65.76 46.26ZM65.15 49.99H66.39V54.93H65.15V49.99ZM57.74 43.82H60.83V48.76H57.74V43.82ZM57.12 52.47C57.8 52.47 58.36 51.92 58.36 51.23V49.99H60.21V51.23C60.21 51.91 60.76 52.47 61.45 52.47V54.94H57.13H57.12V52.47ZM86.16 61.74L86.15 78.42L51.58 78.4L51.57 61.73C51.57 60.25 52.15 58.84 53.2 57.79C54.24 56.75 55.66 56.16 57.13 56.16H80.6C82.08 56.16 83.49 56.75 84.53 57.79C85.57 58.85 86.16 60.26 86.16 61.74Z" fill="black"/>
<path d="M73.57 59.89C72.5 59.89 71.48 60.34 70.76 61.12L68.86 63.15L66.96 61.12C66.24 60.34 65.22 59.89 64.16 59.89C63.1 59.89 62.08 60.34 61.36 61.12C59.84 62.78 59.84 65.33 61.36 66.99L68.42 74.52C68.54 74.64 68.7 74.72 68.87 74.72C69.04 74.72 69.2 74.65 69.32 74.52L76.38 66.99C77.9 65.33 77.9 62.78 76.38 61.12C75.65 60.34 74.63 59.89 73.57 59.89ZM75.47 66.14L68.86 73.19L62.25 66.14C61.17 64.96 61.17 63.14 62.25 61.96C62.74 61.43 63.42 61.12 64.15 61.12C64.87 61.12 65.56 61.43 66.05 61.96L68.4 64.48C68.52 64.6 68.68 64.67 68.85 64.67C69.02 64.67 69.18 64.6 69.3 64.48L71.65 61.97C72.14 61.44 72.83 61.13 73.55 61.13C74.27 61.13 74.96 61.44 75.45 61.97C76.55 63.15 76.55 64.96 75.47 66.14Z" fill="black"/>
<path d="M53.41 61.74C53.25 61.74 53.09 61.81 52.97 61.92C52.85 62.04 52.79 62.19 52.79 62.36V70.39C52.79 70.73 53.07 71.01 53.41 71.01C53.75 71.01 54.03 70.73 54.03 70.39V62.36C54.03 62.2 53.96 62.04 53.85 61.92C53.73 61.81 53.58 61.74 53.41 61.74Z" fill="black"/>
<path d="M53.41 72.25C53.25 72.25 53.09 72.32 52.97 72.43C52.85 72.55 52.79 72.7 52.79 72.87V75.34C52.79 75.68 53.07 75.96 53.41 75.96C53.75 75.96 54.03 75.68 54.03 75.34V72.87C54.03 72.71 53.96 72.55 53.85 72.43C53.73 72.31 53.58 72.25 53.41 72.25Z" fill="black"/>
</svg>
