<svg width="146" height="161" viewBox="0 0 146 161" fill="none" xmlns="http://www.w3.org/2000/svg">
<path d="M86.75 3.07C62.04 19.59 41.16 41.99 26.1 67.7C11.38 93.6 2.43 122.89 0.490003 152.55C0.090003 158.66 2.35002 160.27 4.94002 160.34C4.99002 160.34 5.03999 160.34 5.09999 160.35C5.10999 160.35 5.13003 160.35 5.14003 160.35C37.87 160.51 70.61 160.68 103.34 160.84C103.37 153.94 104.25 147.17 105.88 140.62C113.38 141.49 120.88 142.35 128.38 143.22L135.52 130.85L142.66 118.48C138.15 112.42 133.66 106.36 129.15 100.3C134 95.62 139.42 91.47 145.38 87.99C128.86 59.73 112.34 31.47 95.82 3.21C94.51 0.880003 91.98 -0.419996 86.75 3.07Z" fill="#f47529" stroke="white" stroke-width="2" stroke-miterlimit="10"/>
<path d="M67.81 101.5C64.7 101.63 64.7 106.06 67.81 106.19H74.23C77.34 106.06 77.34 101.63 74.23 101.5H67.81ZM75.34 103.85C75.34 104.46 74.84 104.96 74.23 104.96H67.81C66.34 104.9 66.34 102.8 67.81 102.74H74.23C74.84 102.74 75.34 103.23 75.34 103.85Z" fill="white"/>
<path d="M94.5 78.05H91.36C90.54 78.08 90.54 79.26 91.36 79.28H94.5C95.05 79.28 95.5 79.73 95.5 80.28V96.8C95.5 97.35 95.05 97.8 94.5 97.8H66.13C65.58 97.8 65.13 97.35 65.13 96.8V95.97H71.75C75.41 95.82 75.41 90.61 71.75 90.46H65.13V80.28C65.13 79.73 65.58 79.28 66.13 79.28H88.46C89.28 79.25 89.28 78.07 88.46 78.05H83.73V75.42C83.73 73.26 81.98 71.51 79.82 71.51H62.21C60.05 71.51 58.3 73.26 58.3 75.42V78.96C58.33 79.78 59.51 79.78 59.53 78.96V75.42C59.53 73.95 60.73 72.75 62.2 72.75H79.81C81.28 72.75 82.48 73.95 82.48 75.42V78.05H81.57V75.42C81.57 74.44 80.78 73.65 79.8 73.65H76.5C76.05 73.65 75.64 73.94 75.49 74.37L75.09 75.52H66.89L66.49 74.37C66.34 73.94 65.94 73.65 65.48 73.65H62.18C61.2 73.65 60.41 74.44 60.41 75.42V109.74C60.41 110.72 61.2 111.51 62.18 111.51H79.79C80.77 111.51 81.56 110.72 81.56 109.74V107.81C81.53 106.99 80.35 106.99 80.33 107.81V109.74C80.33 110.03 80.09 110.27 79.8 110.27H62.19C61.9 110.27 61.66 110.03 61.66 109.74V75.42C61.66 75.13 61.9 74.89 62.19 74.89H65.37L65.77 76.04C65.92 76.47 66.32 76.76 66.78 76.76H75.22C75.68 76.76 76.08 76.47 76.23 76.04L76.63 74.89H79.81C80.1 74.89 80.34 75.13 80.34 75.42V78.05H66.11C64.88 78.05 63.88 79.05 63.88 80.28V96.8C63.88 98.03 64.88 99.03 66.11 99.03H80.34V104.92C80.37 105.74 81.55 105.74 81.57 104.92V99.03H82.48V109.73C82.48 111.2 81.28 112.4 79.81 112.4H62.2C60.73 112.4 59.53 111.2 59.53 109.73V81.87C59.5 81.05 58.32 81.05 58.3 81.87V109.73C58.3 111.89 60.05 113.64 62.21 113.64H79.82C81.98 113.64 83.73 111.89 83.73 109.73V99.03H94.5C95.73 99.03 96.73 98.03 96.73 96.8V80.28C96.73 79.05 95.73 78.05 94.5 78.05ZM71.76 91.69C73.78 91.77 73.78 94.65 71.76 94.74H65.14V91.69H71.76Z" fill="white"/>
<path d="M85.02 96.17C85.34 96.29 85.7 96.13 85.82 95.81L86.11 95.04H88.13L88.42 95.81C88.54 96.13 88.9 96.29 89.22 96.17C89.54 96.05 89.7 95.69 89.58 95.37L87.81 90.68C87.81 90.67 87.81 90.67 87.8 90.66C87.69 90.39 87.42 90.21 87.13 90.21C86.83 90.21 86.57 90.39 86.46 90.66C86.46 90.66 86.46 90.67 86.45 90.67L84.66 95.36C84.54 95.69 84.7 96.05 85.02 96.17ZM87.13 92.38L87.67 93.81H86.59L87.13 92.38Z" fill="white"/>
<path d="M90.6599 93.35L90.65 95.6C90.65 95.94 90.92 96.22 91.27 96.22C91.61 96.22 91.89 95.94 91.89 95.6L91.9 93.35L93.31 91.19C93.5 90.9 93.42 90.52 93.13 90.34C92.84 90.15 92.46 90.23 92.28 90.52L91.2899 92.04L90.2899 90.5C90.0999 90.21 89.72 90.13 89.44 90.32C89.15 90.51 89.07 90.89 89.26 91.17L90.6599 93.35Z" fill="white"/>
<path d="M81.17 95.6C81.2 96.42 82.38 96.42 82.4 95.6V94.15C82.66 94.15 82.94 94.15 83.11 94.15C85.75 94.04 85.74 90.34 83.11 90.23H81.78C81.45 90.22 81.16 90.52 81.16 90.85V95.6H81.17ZM83.11 91.45C83.52 91.45 83.86 91.78 83.86 92.18C83.86 92.58 83.52 92.91 83.11 92.91C82.95 92.91 82.67 92.91 82.41 92.91C82.41 92.3 82.41 92.09 82.41 91.46L83.11 91.45Z" fill="white"/>
<path d="M68.71 81.26C68.1 81.26 67.6 81.76 67.6 82.37V85.66C67.6 86.27 68.1 86.77 68.71 86.77H73.81C74.42 86.77 74.92 86.27 74.92 85.66V82.37C74.92 81.76 74.42 81.26 73.81 81.26H68.71ZM73.69 85.54H68.83V82.5H73.69V85.54Z" fill="white"/>
<path d="M78.99 83.36V84.35C79.02 85.17 80.2 85.17 80.22 84.35V83.36C80.2 82.54 79.02 82.54 78.99 83.36Z" fill="white"/>
<path d="M89.79 84.96C90.13 84.96 90.41 84.68 90.41 84.34V83.35C90.38 82.53 89.2 82.53 89.18 83.35V84.34C89.17 84.69 89.45 84.96 89.79 84.96Z" fill="white"/>
<path d="M92.61 84.35V83.36C92.58 82.54 91.4 82.54 91.38 83.36V84.35C91.4 85.17 92.58 85.16 92.61 84.35Z" fill="white"/>
<path d="M83.42 84.35V83.36C83.39 82.54 82.21 82.54 82.19 83.36V84.35C82.21 85.17 83.39 85.16 83.42 84.35Z" fill="white"/>
<path d="M85.13 84.96C85.47 84.96 85.75 84.68 85.75 84.34V83.35C85.72 82.53 84.54 82.53 84.52 83.35V84.34C84.52 84.69 84.79 84.96 85.13 84.96Z" fill="white"/>
</svg>
