<svg width="146" height="161" viewBox="0 0 146 161" fill="none" xmlns="http://www.w3.org/2000/svg">
<path d="M59.3101 158.1C84.0201 141.58 104.9 119.18 119.96 93.47C134.68 67.57 143.63 38.28 145.57 8.62C145.97 2.50999 143.71 0.899987 141.12 0.829987C141.07 0.829987 141.02 0.830007 140.96 0.820007C140.95 0.820007 140.93 0.820007 140.92 0.820007C108.19 0.660007 75.45 0.489987 42.72 0.329987C42.69 7.22999 41.8101 14 40.1801 20.55C32.6801 19.68 25.1801 18.82 17.6801 17.95L10.54 30.32L3.40002 42.69C7.91002 48.75 12.4 54.81 16.91 60.87C12.06 65.55 6.64005 69.7 0.680054 73.18C17.2001 101.44 33.72 129.7 50.24 157.96C51.56 160.29 54.0901 161.6 59.3101 158.1Z" fill="rgba(204, 207, 212, 0.8)"/>
<path d="M94.14 47.85H92.71V49.28H94.14V47.85Z" fill="black"/>
<path d="M92.71 46.42H91.28V47.85H92.71V46.42Z" fill="black"/>
<path d="M91.29 47.85H89.86V49.28H91.29V47.85Z" fill="black"/>
<path d="M92.71 49.27H91.28V50.7H92.71V49.27Z" fill="black"/>
<path d="M88.4399 47.85H87.01V49.28H88.4399V47.85Z" fill="black"/>
<path d="M87.01 62.1H85.58V63.53H87.01V62.1Z" fill="black"/>
<path d="M89.86 62.1H88.4301V63.53H89.86V62.1Z" fill="black"/>
<path d="M88.4399 60.68H87.01V62.11H88.4399V60.68Z" fill="black"/>
<path d="M88.4399 63.53H87.01V64.96H88.4399V63.53Z" fill="black"/>
<path d="M60.64 59.96H59.21V61.39H60.64V59.96Z" fill="black"/>
<path d="M59.21 58.54H57.78V59.97H59.21V58.54Z" fill="black"/>
<path d="M57.79 59.96H56.36V61.39H57.79V59.96Z" fill="black"/>
<path d="M59.21 61.39H57.78V62.82H59.21V61.39Z" fill="black"/>
<path d="M54.9399 59.96H53.51V61.39H54.9399V59.96Z" fill="black"/>
<path d="M52.8 50.7H51.37V52.13H52.8V50.7Z" fill="black"/>
<path d="M55.65 50.7H54.22V52.13H55.65V50.7Z" fill="black"/>
<path d="M54.22 49.27H52.79V50.7H54.22V49.27Z" fill="black"/>
<path d="M54.22 52.12H52.79V53.55H54.22V52.12Z" fill="black"/>
<path d="M62.78 46.42H61.35V47.85H62.78V46.42Z" fill="black"/>
<path d="M89.73 79.92C89.43 79.07 88.62 78.5 87.71 78.5H85.99L83.4399 74.03V66.38C83.4399 64.81 82.16 63.53 80.59 63.53V54.26C80.73 50.07 77.46 46.56 73.27 46.42C73.1 46.41 72.92 46.41 72.75 46.42C67.85 46.42 65.05 50.45 64.91 54.23C64.91 54.24 64.92 54.25 64.92 54.26H64.91V63.53C63.34 63.53 62.0601 64.81 62.0601 66.38V74.03L59.51 78.5H57.79C56.61 78.5 55.65 79.45 55.65 80.63C55.65 81.53 56.2199 82.34 57.0699 82.64C56.0399 83.8 56.1501 85.58 57.3101 86.61C57.7301 86.98 58.2501 87.22 58.8101 87.29L72.66 89.18C72.72 89.19 72.79 89.19 72.85 89.18L86.7 87.29C88.24 87.09 89.33 85.68 89.13 84.14C89.06 83.58 88.82 83.06 88.45 82.64C89.5499 82.25 90.13 81.03 89.73 79.92ZM72.75 47.85C76.14 47.69 79.01 50.31 79.17 53.7C79.18 53.89 79.18 54.08 79.17 54.27H77.74C75.77 54.27 74.1801 52.67 74.1801 50.71C74.1801 50.32 73.86 50 73.47 50C73.28 50 73.1 50.08 72.97 50.21C71.2 51.98 68.9101 53.13 66.4301 53.48C66.8101 50.26 69.52 47.85 72.75 47.85ZM71.33 64.24V61.19C71.79 61.32 72.27 61.38 72.76 61.39C73.24 61.39 73.7199 61.32 74.1899 61.19V64.24C74.1899 64.63 74.51 64.95 74.9 64.95H76.33V65.86L72.77 67.05L69.21 65.86V64.95H70.64C71.01 64.95 71.33 64.64 71.33 64.24ZM67.1899 54.77C69.3099 54.38 71.29 53.46 72.96 52.11C73.59 54.23 75.53 55.68 77.74 55.68H78.05C77.16 58.07 74.9 59.96 72.75 59.96C70.28 59.96 67.7799 57.57 67.1899 54.77ZM75.6 63.53V60.62C77.17 59.73 78.42 58.37 79.16 56.72V63.53H77.02H75.6ZM66.34 56.72C67.08 58.37 68.33 59.74 69.9 60.62V63.53H66.34V56.72ZM67.76 64.95V66.38C67.76 66.69 67.96 66.96 68.25 67.06L72.53 68.49C72.68 68.54 72.83 68.54 72.98 68.49L77.26 67.06C77.55 66.96 77.75 66.69 77.75 66.38V64.95H79.6899L76.48 77.78H69.04L65.83 64.95H67.76ZM68.8 79.21H76.7L79.5601 82.55L72.75 83.48L65.9399 82.55L68.8 79.21ZM64.26 82.32L62.9399 82.14L67.41 77.18L67.7 78.31L64.26 82.32ZM77.8101 78.31L78.1 77.18L82.5699 82.14L81.25 82.32L77.8101 78.31ZM57.0699 80.64C57.0699 80.25 57.39 79.93 57.78 79.93H59.92C60.18 79.93 60.41 79.79 60.54 79.57L63.39 74.58C63.45 74.47 63.48 74.35 63.48 74.22V66.38C63.48 65.8 63.83 65.27 64.37 65.06L65.6801 70.29L66.99 75.52L61.74 81.35H57.78C57.39 81.35 57.0699 81.03 57.0699 80.64ZM72.75 87.76L59 85.88C58.23 85.78 57.69 85.07 57.79 84.3C57.88 83.6 58.4799 83.08 59.1899 83.08C59.2499 83.08 59.32 83.08 59.38 83.09L64.45 83.78L72.5 84.88L76.3199 87.26L72.75 87.76ZM86.5 85.88L78.52 86.97L74.79 84.64L81.04 83.78L86.11 83.09C86.88 82.98 87.59 83.52 87.7 84.29C87.7099 84.36 87.71 84.42 87.71 84.49C87.72 85.19 87.2 85.78 86.5 85.88ZM87.72 81.35H83.76L78.51 75.51L79.8199 70.28L81.13 65.05C81.67 65.27 82.03 65.79 82.03 66.37V74.21C82.03 74.34 82.06 74.46 82.12 74.57L84.97 79.56C85.1 79.78 85.33 79.92 85.59 79.92H87.73C88.12 79.92 88.4399 80.24 88.4399 80.63C88.4299 81.03 88.11 81.35 87.72 81.35Z" fill="black"/>
</svg>
