<svg width="146" height="161" viewBox="0 0 146 161" fill="none" xmlns="http://www.w3.org/2000/svg">
<path d="M58.71 3.07C83.42 19.59 104.3 41.99 119.36 67.7C134.08 93.6 143.03 122.89 144.97 152.55C145.37 158.66 143.11 160.27 140.52 160.34C140.47 160.34 140.42 160.34 140.36 160.35C140.35 160.35 140.33 160.35 140.32 160.35C107.59 160.51 74.85 160.68 42.12 160.84C42.09 153.94 41.21 147.17 39.58 140.62C32.08 141.49 24.58 142.35 17.08 143.22L9.93994 130.85L2.80005 118.48C7.31005 112.42 11.8001 106.36 16.3101 100.3C11.4601 95.62 6.03996 91.47 0.0799561 87.99C16.6 59.73 33.12 31.47 49.64 3.21C50.96 0.880003 53.49 -0.419996 58.71 3.07Z" fill="rgba(204, 207, 212, 0.8)"/>
<path d="M95.46 95.2L92.85 93.11C92.84 93.1 92.8299 93.09 92.8199 93.08L95.25 92.59C95.58 92.53 95.8101 92.24 95.8101 91.91V89.82C95.8101 89.44 95.5 89.12 95.11 89.12H91.63C91.25 89.12 90.9301 89.43 90.9301 89.82V91.04C90.9101 91.02 90.9 91 90.88 90.98C90.84 90.86 90.76 90.76 90.66 90.68C90.27 90.12 89.93 89.57 89.71 89.09L88.53 86.5C87.78 84.85 85.77 83.56 83.96 83.56H67.25C65.44 83.56 63.4301 84.85 62.6801 86.5L61.5 89.09C61.28 89.57 60.95 90.13 60.55 90.68C60.45 90.76 60.37 90.86 60.33 90.98C60.31 91 60.3 91.02 60.28 91.04V89.82C60.28 89.44 59.97 89.12 59.58 89.12H56.1C55.72 89.12 55.4 89.43 55.4 89.82V91.91C55.4 92.24 55.63 92.53 55.96 92.59L58.39 93.08C58.38 93.09 58.37 93.1 58.36 93.11L55.75 95.2C54.38 96.29 53.3101 98.52 53.3101 100.27V112.11C53.3101 113.26 54.25 114.2 55.4 114.2H60.97C62.12 114.2 63.0601 113.26 63.0601 112.11V110.72H88.13V112.11C88.13 113.26 89.07 114.2 90.22 114.2H95.79C96.94 114.2 97.88 113.26 97.88 112.11V100.27C97.9 98.52 96.82 96.29 95.46 95.2ZM89.13 109.32L87.53 107.72C86.85 107.04 85.62 106.53 84.66 106.53H66.21C65.25 106.53 64.02 107.04 63.34 107.72L61.74 109.32H56.8101C55.6601 109.32 54.72 108.38 54.72 107.23V103.75H55.42V104.45C55.42 105.99 56.67 107.24 58.21 107.24H60.3C60.68 107.24 61 106.93 61 106.54C61 106.15 60.69 105.84 60.3 105.84H58.21C57.44 105.84 56.8199 105.22 56.8199 104.45V103.75H58.21C58.79 103.75 59.69 104.12 60.1 104.53C60.24 104.67 60.41 104.73 60.59 104.73C60.77 104.73 60.95 104.66 61.08 104.53C61.35 104.26 61.35 103.82 61.08 103.55C60.4 102.87 59.17 102.36 58.21 102.36H54.73V100.27C54.73 100.02 54.7699 99.76 54.8199 99.49C55.2699 99.96 55.9099 100.27 56.8199 100.27H62.39C62.57 100.27 62.75 100.2 62.88 100.07L63.78 99.17L64.6801 100.07C64.8101 100.2 64.99 100.27 65.17 100.27H73.24L75.13 102.16C75.27 102.3 75.44 102.36 75.62 102.36C75.8 102.36 75.98 102.29 76.11 102.16L78 100.27H86.0699C86.2499 100.27 86.4301 100.2 86.5601 100.07L87.46 99.17L88.36 100.07C88.49 100.2 88.67 100.27 88.85 100.27H94.42C95.32 100.27 95.97 99.95 96.42 99.49C96.47 99.76 96.51 100.03 96.51 100.27V102.36H93.03C92.07 102.36 90.84 102.87 90.16 103.55C89.89 103.82 89.89 104.26 90.16 104.53C90.3 104.67 90.47 104.73 90.65 104.73C90.83 104.73 91.01 104.66 91.14 104.53C91.55 104.12 92.45 103.75 93.03 103.75H94.42V104.45C94.42 105.22 93.8 105.84 93.03 105.84H90.9399C90.5599 105.84 90.24 106.15 90.24 106.54C90.24 106.93 90.5499 107.24 90.9399 107.24H93.03C94.57 107.24 95.8199 105.99 95.8199 104.45V103.75H96.52V107.23C96.52 108.38 95.5801 109.32 94.4301 109.32H89.13ZM87.16 109.32H63.71L64.3199 108.71C64.7299 108.3 65.63 107.93 66.21 107.93H84.66C85.24 107.93 86.14 108.3 86.55 108.71L87.16 109.32ZM61.38 91.91H89.85C90.52 92.8 91.3 93.65 91.98 94.19L92.8199 94.86L87.89 96.83C87.81 96.86 87.73 96.91 87.66 96.98L86.96 97.68L85.77 98.87H77.7C77.52 98.87 77.34 98.94 77.21 99.07L75.61 100.67L74.01 99.07C73.88 98.94 73.7 98.87 73.52 98.87H65.45L64.26 97.68L63.5601 96.98C63.4901 96.91 63.41 96.86 63.33 96.83L58.4 94.86L59.24 94.19C59.93 93.64 60.7 92.8 61.38 91.91ZM95.77 97.77C95.63 98.5 95.18 98.87 94.42 98.87H89.14L88.4399 98.17L88.54 98.07L94.0699 95.86L94.6 96.28C95.03 96.64 95.44 97.17 95.77 97.77ZM92.3199 90.52H94.41V91.34L92.3199 91.76V90.52ZM62.77 89.66L63.95 87.07C64.48 85.92 65.99 84.94 67.25 84.94H83.96C85.23 84.94 86.74 85.91 87.26 87.07L88.4399 89.66C88.5599 89.93 88.72 90.22 88.9 90.52H62.3101C62.4901 90.22 62.65 89.93 62.77 89.66ZM56.8101 90.52H58.9V91.76L56.8101 91.34V90.52ZM56.63 96.28L57.16 95.86L62.6899 98.07L62.79 98.17L62.09 98.87H56.8101C56.0501 98.87 55.6 98.5 55.46 97.77C55.79 97.17 56.19 96.64 56.63 96.28ZM60.99 112.8H55.42C55.04 112.8 54.72 112.49 54.72 112.1V110C55.3 110.44 56.0201 110.71 56.8101 110.71H61.6801V112.1C61.6801 112.49 61.37 112.8 60.99 112.8ZM95.8101 112.8H90.24C89.86 112.8 89.54 112.49 89.54 112.1V110.71H94.41C95.2 110.71 95.92 110.44 96.5 110V112.11C96.5 112.49 96.1901 112.8 95.8101 112.8Z" fill="black"/>
</svg>
