<svg width="183" height="128" viewBox="0 0 183 128" fill="none" xmlns="http://www.w3.org/2000/svg">
<path d="M177.72 107C151.06 120.14 121.22 127.04 91.43 127.23C61.64 127.04 31.8 120.15 5.13999 107C-0.350014 104.29 -0.620033 101.52 0.619967 99.25C0.639967 99.2 0.669974 99.16 0.689974 99.11C0.699974 99.1 0.699993 99.09 0.709993 99.07C16.93 70.64 33.15 42.2 49.37 13.77C55.37 17.19 61.67 19.82 68.15 21.67C71.14 14.74 74.15 7.82001 77.14 0.890015H91.43H105.72C108.71 7.82001 111.72 14.74 114.71 21.67C121.19 19.81 127.49 17.19 133.49 13.77C149.71 42.2 165.93 70.64 182.15 99.07C183.49 101.38 183.36 104.22 177.72 107Z" fill="#f47529" stroke="white" stroke-width="2" stroke-miterlimit="10"/>
<path d="M104.75 75.73C102.82 75.73 100.95 76.42 99.4799 77.69L95.4999 73.71C96.1399 72.74 96.1899 71.48 95.6199 70.47L99.65 66.44C103.13 69.26 108.24 68.72 111.05 65.23C113.87 61.75 113.33 56.64 109.84 53.83C106.36 51.01 101.25 51.55 98.4399 55.04C95.9299 58.15 96.0499 62.62 98.7399 65.59L94.8 69.53C93.75 68.72 92.29 68.67 91.18 69.4L87.1999 65.42C90.1199 62.01 89.7199 56.88 86.3199 53.96C82.9099 51.04 77.7799 51.44 74.8599 54.84C71.9399 58.25 72.3399 63.38 75.7399 66.3C78.7799 68.91 83.27 68.91 86.31 66.3L90.29 70.28C89.56 71.39 89.61 72.84 90.42 73.9L86.4799 77.84C83.1499 74.82 77.9999 75.07 74.9799 78.4C71.9599 81.73 72.21 86.88 75.54 89.9C78.87 92.92 84.02 92.67 87.04 89.34C89.74 86.37 89.8599 81.87 87.3399 78.75L91.3699 74.72C92.3899 75.29 93.6399 75.24 94.6099 74.6L98.5899 78.58C95.6799 81.98 96.0799 87.1 99.4799 90.01C102.88 92.92 108 92.52 110.91 89.12C113.82 85.72 113.42 80.6 110.02 77.69C108.56 76.42 106.68 75.73 104.75 75.73ZM100.65 65.64C100.77 63.38 102.71 61.64 104.98 61.77C107.07 61.89 108.74 63.55 108.85 65.64C106.42 67.45 103.08 67.45 100.65 65.64ZM102.75 58.5C102.75 57.4 103.65 56.5 104.75 56.5C105.85 56.5 106.75 57.39 106.75 58.5C106.75 59.61 105.85 60.5 104.75 60.5C103.65 60.5 102.75 59.61 102.75 58.5ZM104.75 53.28C108.54 53.28 111.61 56.36 111.6 60.15C111.6 61.78 111.01 63.36 109.95 64.61C109.55 62.98 108.42 61.63 106.87 60.95C108.22 59.77 108.37 57.72 107.19 56.37C106.01 55.02 103.96 54.87 102.61 56.05C101.26 57.23 101.11 59.28 102.29 60.63C102.39 60.74 102.5 60.85 102.61 60.95C101.07 61.62 99.93 62.97 99.53 64.61C97.07 61.73 97.4 57.4 100.28 54.94C101.53 53.87 103.11 53.28 104.75 53.28ZM74.18 60.14C74.18 56.35 77.24 53.28 81.03 53.27C84.82 53.27 87.89 56.33 87.9 60.12C87.9 61.76 87.3099 63.35 86.2399 64.6C85.8399 62.97 84.71 61.62 83.17 60.94C84.52 59.76 84.6699 57.71 83.4899 56.36C82.3099 55.01 80.26 54.86 78.91 56.04C77.56 57.22 77.4099 59.27 78.5899 60.62C78.6899 60.73 78.8 60.84 78.91 60.94C77.37 61.61 76.2299 62.96 75.8399 64.6C74.7699 63.36 74.18 61.78 74.18 60.14ZM79.05 58.5C79.05 57.4 79.95 56.5 81.05 56.5C82.15 56.5 83.05 57.39 83.05 58.5C83.05 59.61 82.15 60.5 81.05 60.5C79.94 60.5 79.05 59.61 79.05 58.5ZM76.9399 65.64C77.0599 63.38 79 61.64 81.27 61.77C83.36 61.89 85.03 63.55 85.14 65.64C82.71 67.45 79.3799 67.45 76.9399 65.64ZM76.9399 89.34C77.0599 87.08 79 85.34 81.27 85.47C83.36 85.59 85.03 87.25 85.14 89.34C82.71 91.15 79.3799 91.15 76.9399 89.34ZM79.05 82.2C79.05 81.1 79.95 80.2 81.05 80.2C82.15 80.2 83.05 81.1 83.05 82.2C83.05 83.3 82.15 84.2 81.05 84.2C79.94 84.2 79.05 83.31 79.05 82.2ZM86.2499 88.3C85.8499 86.67 84.72 85.32 83.18 84.64C84.53 83.46 84.6799 81.41 83.4999 80.06C82.3199 78.71 80.27 78.56 78.92 79.74C77.57 80.92 77.4199 82.97 78.5999 84.32C78.6999 84.43 78.81 84.54 78.92 84.64C77.38 85.31 76.2399 86.66 75.8499 88.3C73.3799 85.43 73.7099 81.09 76.5799 78.62C79.4499 76.15 83.79 76.48 86.26 79.35C88.46 81.94 88.4599 85.73 86.2499 88.3ZM91.03 71.99C91.03 70.96 91.87 70.12 92.9 70.12C93.93 70.12 94.77 70.96 94.77 71.99C94.77 73.02 93.93 73.86 92.9 73.86C91.86 73.86 91.03 73.02 91.03 71.99ZM100.65 89.34C100.77 87.08 102.71 85.34 104.98 85.47C107.07 85.59 108.74 87.25 108.85 89.34C106.42 91.15 103.08 91.15 100.65 89.34ZM102.75 82.2C102.75 81.1 103.65 80.2 104.75 80.2C105.85 80.2 106.75 81.1 106.75 82.2C106.75 83.3 105.85 84.2 104.75 84.2C103.64 84.2 102.75 83.31 102.75 82.2ZM109.95 88.3C109.55 86.67 108.42 85.32 106.87 84.64C108.22 83.46 108.37 81.41 107.19 80.06C106.01 78.71 103.96 78.56 102.61 79.74C101.26 80.92 101.11 82.97 102.29 84.32C102.39 84.43 102.5 84.54 102.61 84.64C101.07 85.31 99.93 86.66 99.53 88.3C97.06 85.43 97.39 81.09 100.26 78.62C103.13 76.15 107.47 76.48 109.94 79.35C112.16 81.94 112.16 85.73 109.95 88.3Z" fill="white"/>
</svg>
