<?xml version="1.0" encoding="utf-8"?>
<!-- Generator: Adobe Illustrator 25.0.0, SVG Export Plug-In . SVG Version: 6.00 Build 0)  -->
<svg version="1.1" id="Layer_1" xmlns="http://www.w3.org/2000/svg" xmlns:xlink="http://www.w3.org/1999/xlink" x="0px" y="0px"
	 viewBox="0 0 455.2 441.89" style="enable-background:new 0 0 455.2 441.89;" xml:space="preserve">
<style type="text/css">
	.st0{fill:url(#SVGID_1_);}
	.st1{fill:url(#SVGID_2_);}
	.st2{fill:url(#SVGID_3_);}
	.st3{fill:url(#SVGID_4_);}
</style>
<g id="Icon_Beautiful">
	<g>
		<g>
			<g>
				<linearGradient id="SVGID_1_" gradientUnits="userSpaceOnUse" x1="57.5086" y1="220.9265" x2="397.164" y2="220.9265">
					<stop  offset="4.102400e-07" style="stop-color:#F9A134"/>
					<stop  offset="1" style="stop-color:#F15722"/>
				</linearGradient>
				<path class="st0" d="M392.17,170.65c3.2-3.17,4.99-7.48,4.99-11.98c-0.05-9.38-7.65-16.97-17.03-17h-0.06
					c-4.49,0.01-8.79,1.81-11.94,5.01l-19.25,19.25c-4.59-1.07-9.29-1.62-14-1.64v-55.12l21.9-38.33c0.06-0.1,0.05-0.21,0.1-0.31
					c0.16-0.35,0.28-0.71,0.36-1.08c0.11-0.36,0.19-0.73,0.22-1.1c0.01-0.11,0.07-0.21,0.07-0.32c-0.03-0.36-0.09-0.72-0.17-1.08
					c-0.03-0.17-0.03-0.34-0.08-0.51c-2.6-14.91-40.57-15.39-45.04-15.39c-4.48,0-42.45,0.49-45.04,15.4
					c-0.05,0.17-0.05,0.34-0.08,0.51c-0.08,0.36-0.14,0.72-0.17,1.08c0,0.12,0.06,0.21,0.07,0.32c0.04,0.37,0.11,0.74,0.22,1.1
					c0.08,0.37,0.2,0.73,0.36,1.08c0.05,0.1,0.05,0.21,0.1,0.31l21.9,38.33v55.11h-22.65v-37.53c4.09-5.92,6.08-13.04,5.66-20.22
					c0-15.85-17.15-30.03-19.11-31.6c-0.14-0.11-0.31-0.14-0.46-0.24c-0.62-0.39-1.3-0.67-2.01-0.83c-1.43-0.26-2.91,0.04-4.13,0.83
					c-0.15,0.1-0.32,0.13-0.47,0.24c-1.96,1.56-19.11,15.75-19.11,31.6c-0.42,7.18,1.58,14.3,5.66,20.22v37.53h-16.98v-50.95
					c-0.03-0.18-0.06-0.36-0.11-0.53c0.01-0.18,0.01-0.37,0-0.55l-5.89-29.97c-1.27-5.09-5.88-8.65-11.13-8.58
					c-5.25,0.07-9.77,3.74-10.91,8.86l-5.83,29.69c-0.01,0.18-0.01,0.37,0,0.55c-0.05,0.18-0.08,0.35-0.11,0.53v50.96h-11.32v-22.65
					c-0.01-6.25-5.07-11.32-11.32-11.32v-12.9c3.49-2.01,5.65-5.72,5.66-9.75V62.38c-0.01-6.25-5.07-11.32-11.32-11.32H125.4
					c-6.25,0.01-11.32,5.07-11.32,11.32v45.29c0.01,4.03,2.17,7.74,5.66,9.75v12.9c-6.25,0.01-11.32,5.07-11.32,11.32v23.71
					c-29.53,5.46-50.95,31.23-50.91,61.26l0.12,152.55c-0.08,3.06,1.07,6.02,3.2,8.21s5.06,3.43,8.12,3.43h316.73
					c3.03,0,5.93-1.21,8.06-3.37c2.13-2.16,3.3-5.08,3.26-8.1l0.11-152.71c0.05-16.19-6.26-31.75-17.56-43.35L392.17,170.65z
					 M376.17,154.66c1.04-1.06,2.46-1.66,3.94-1.67h0.02c2.3-0.03,4.39,1.34,5.28,3.47c0.89,2.12,0.39,4.57-1.25,6.19l-13.22,13.22
					c-3.18-2.27-6.56-4.24-10.11-5.87L376.17,154.66z M279.17,68.12c3.65-2.36,15.06-5.74,33.06-5.74s29.41,3.38,33.06,5.74l0,0
					l-19.36,33.89h-27.4L279.17,68.12z M300.91,124.66v-11.32h22.65v11.32L300.91,124.66z M323.56,135.98v28.31h-22.65v-28.31
					H323.56z M238.64,106.54c0-6.91,6.49-14.8,11.32-19.55c4.83,4.74,11.32,12.64,11.32,19.55c0.24,4.32-0.7,8.63-2.72,12.46h-17.22
					C239.34,115.16,238.4,110.86,238.64,106.54z M244.3,141.64v-11.32h11.32v11.32H244.3z M255.62,152.96v11.32H244.3v-11.32H255.62
					z M198.94,84.74l4.5,22.93h-8.91L198.94,84.74z M193.34,118.99h11.32v45.29h-11.32V118.99z M125.4,62.38h28.31l0.01,45.29H125.4
					L125.4,62.38L125.4,62.38z M119.74,141.64c6.25-0.01,11.32-5.07,11.32-11.32v-11.32h16.98v11.32
					c0.01,6.25,5.07,11.32,11.32,11.32v22.65h-39.59l-0.05,0L119.74,141.64L119.74,141.64z M385.79,226.6l-0.11,152.87l-316.73-0.16
					L68.83,226.6c-0.01-13.52,5.35-26.49,14.91-36.06c9.56-9.56,22.52-14.94,36.04-14.94h215.05c13.52,0,26.49,5.37,36.04,14.94
					C380.44,200.11,385.8,213.08,385.79,226.6z"/>
				<linearGradient id="SVGID_2_" gradientUnits="userSpaceOnUse" x1="148.0903" y1="277.5658" x2="306.5331" y2="277.5658">
					<stop  offset="4.102400e-07" style="stop-color:#F9A134"/>
					<stop  offset="1" style="stop-color:#F15722"/>
				</linearGradient>
				<path class="st1" d="M270.47,209.63h-0.04c-9.77,0.02-19.09,4.12-25.7,11.31l-17.42,18.62l-17.43-18.64
					c-6.62-7.18-15.93-11.27-25.69-11.29h-0.04c-9.75,0.03-19.04,4.12-25.63,11.3c-13.92,15.22-13.91,38.55,0,53.77l64.65,69.02
					c1.07,1.14,2.57,1.79,4.13,1.79s3.06-0.65,4.13-1.79l64.65-69.02c13.92-15.22,13.92-38.55,0-53.77
					C289.51,213.75,280.22,209.65,270.47,209.63z M287.84,266.94L287.84,266.94l-0.01,0.01l-60.52,64.61l-60.53-64.62
					c-9.9-10.84-9.9-27.44,0.01-38.28c4.46-4.88,10.76-7.68,17.37-7.72h0.02c6.63,0.03,12.95,2.83,17.44,7.71l21.55,23.04
					c1.1,1.1,2.58,1.72,4.14,1.72c1.55,0,3.04-0.62,4.14-1.72l21.54-23.03c4.49-4.9,10.81-7.7,17.45-7.73h0.02
					c6.61,0.04,12.91,2.84,17.37,7.72C297.74,239.5,297.75,256.11,287.84,266.94z"/>
				<linearGradient id="SVGID_3_" gradientUnits="userSpaceOnUse" x1="80.1077" y1="269.0727" x2="91.4305" y2="269.0727">
					<stop  offset="4.102400e-07" style="stop-color:#F9A134"/>
					<stop  offset="1" style="stop-color:#F15722"/>
				</linearGradient>
				<path class="st2" d="M85.77,226.61c-1.5,0-2.94,0.6-4,1.66c-1.06,1.06-1.66,2.5-1.66,4v73.6c0,3.13,2.53,5.66,5.66,5.66
					s5.66-2.53,5.66-5.66v-73.6c0-1.5-0.6-2.94-1.66-4C88.71,227.21,87.27,226.61,85.77,226.61z"/>
				<linearGradient id="SVGID_4_" gradientUnits="userSpaceOnUse" x1="80.1077" y1="339.8447" x2="91.4305" y2="339.8447">
					<stop  offset="4.102400e-07" style="stop-color:#F9A134"/>
					<stop  offset="1" style="stop-color:#F15722"/>
				</linearGradient>
				<path class="st3" d="M85.77,322.86c-1.5,0-2.94,0.6-4,1.66c-1.06,1.06-1.66,2.5-1.66,4v22.65c0,3.13,2.53,5.66,5.66,5.66
					s5.66-2.53,5.66-5.66v-22.65c0-1.5-0.6-2.94-1.66-4C88.71,323.46,87.27,322.86,85.77,322.86z"/>
			</g>
		</g>
	</g>
</g>
</svg>
