<svg width="36" height="36" viewBox="0 0 36 36" fill="none" xmlns="http://www.w3.org/2000/svg">
<path d="M24.1875 1.125H1.6875C1.53832 1.125 1.39524 1.18426 1.28975 1.28975C1.18426 1.39524 1.125 1.53832 1.125 1.6875V34.3125C1.125 34.4617 1.18426 34.6048 1.28975 34.7102C1.39524 34.8157 1.53832 34.875 1.6875 34.875H24.1875C24.5568 34.875 24.9226 34.8023 25.2638 34.6609C25.605 34.5196 25.9151 34.3124 26.1762 34.0512C26.4374 33.7901 26.6446 33.48 26.7859 33.1388C26.9273 32.7976 27 32.4318 27 32.0625V3.9375C27 3.56816 26.9273 3.20243 26.7859 2.8612C26.6446 2.51997 26.4374 2.20993 26.1762 1.94876C25.9151 1.6876 25.605 1.48043 25.2638 1.33909C24.9226 1.19775 24.5568 1.125 24.1875 1.125ZM2.25 2.25H4.5V29.25H2.25V2.25ZM25.875 32.0625C25.8737 32.5096 25.6954 32.9381 25.3793 33.2543C25.0631 33.5704 24.6346 33.7487 24.1875 33.75H2.25V32.625H24.1875C24.7985 32.6233 25.3918 32.4196 25.875 32.0456V32.0625ZM25.875 29.8125C25.8737 30.2596 25.6954 30.6881 25.3793 31.0043C25.0631 31.3204 24.6346 31.4987 24.1875 31.5H2.25V30.375H24.1875C24.7985 30.3733 25.3918 30.1696 25.875 29.7956V29.8125ZM25.875 27.5625C25.8737 28.0096 25.6954 28.4381 25.3793 28.7543C25.0631 29.0704 24.6346 29.2487 24.1875 29.25H5.625V2.25H24.1875C24.6346 2.25134 25.0631 2.42955 25.3793 2.74573C25.6954 3.06191 25.8737 3.49036 25.875 3.9375V27.5625Z" fill="white"/>
<path d="M34.3124 7.875H32.6249V5.0625C32.6249 4.91332 32.5656 4.77024 32.4601 4.66475C32.3546 4.55926 32.2116 4.5 32.0624 4.5V2.8125C32.0624 2.36495 31.8846 1.93572 31.5681 1.61926C31.2517 1.30279 30.8224 1.125 30.3749 1.125C29.9273 1.125 29.4981 1.30279 29.1816 1.61926C28.8652 1.93572 28.6874 2.36495 28.6874 2.8125V4.5C28.5382 4.5 28.3951 4.55926 28.2896 4.66475C28.1841 4.77024 28.1249 4.91332 28.1249 5.0625V28.125C28.1237 28.1747 28.1313 28.2242 28.1474 28.2712L29.8349 34.4587C29.8664 34.5779 29.9365 34.6833 30.0341 34.7585C30.1318 34.8337 30.2516 34.8745 30.3749 34.8745C30.4982 34.8745 30.618 34.8337 30.7156 34.7585C30.8133 34.6833 30.8834 34.5779 30.9149 34.4587L32.6024 28.2712C32.6185 28.2242 32.6261 28.1747 32.6249 28.125V9H33.7499V16.3125H34.8749V8.4375C34.8749 8.28831 34.8156 8.14524 34.7101 8.03975C34.6046 7.93426 34.4616 7.875 34.3124 7.875ZM29.8124 2.8125C29.8124 2.66332 29.8716 2.52024 29.9771 2.41475C30.0826 2.30926 30.2257 2.25 30.3749 2.25C30.5241 2.25 30.6671 2.30926 30.7726 2.41475C30.8781 2.52024 30.9374 2.66332 30.9374 2.8125V4.5H29.8124V2.8125ZM30.3749 32.175L29.4243 28.6875H31.3255L30.3749 32.175ZM31.4999 27.5625H29.2499V9H31.4999V27.5625ZM31.4999 7.875H29.2499V5.625H31.4999V7.875Z" fill="white"/>
<path d="M23.0625 3.9375H21.375V3.375H20.25V3.9375H18V3.375H16.875V3.9375H14.625V3.375H13.5V3.9375H11.25V3.375H10.125V3.9375H8.4375C8.28832 3.9375 8.14524 3.99676 8.03975 4.10225C7.93426 4.20774 7.875 4.35082 7.875 4.5V15.75C7.875 15.8992 7.93426 16.0423 8.03975 16.1477C8.14524 16.2532 8.28832 16.3125 8.4375 16.3125H23.0625C23.2117 16.3125 23.3548 16.2532 23.4602 16.1477C23.5657 16.0423 23.625 15.8992 23.625 15.75V4.5C23.625 4.35082 23.5657 4.20774 23.4602 4.10225C23.3548 3.99676 23.2117 3.9375 23.0625 3.9375ZM22.5 15.1875H9V7.875H22.5V15.1875ZM22.5 6.75H9V5.0625H10.125V5.625H11.25V5.0625H13.5V5.625H14.625V5.0625H16.875V5.625H18V5.0625H20.25V5.625H21.375V5.0625H22.5V6.75Z" fill="white"/>
<path d="M7.875 18.5625H10.125V19.6875H7.875V18.5625Z" fill="white"/>
<path d="M11.25 18.5625H23.625V19.6875H11.25V18.5625Z" fill="white"/>
<path d="M7.875 21.9375H10.125V23.0625H7.875V21.9375Z" fill="white"/>
<path d="M11.25 21.9375H23.625V23.0625H11.25V21.9375Z" fill="white"/>
<path d="M7.875 25.3125H10.125V26.4375H7.875V25.3125Z" fill="white"/>
<path d="M11.25 25.3125H23.625V26.4375H11.25V25.3125Z" fill="white"/>
</svg>
