<svg width="31" height="31" viewBox="0 0 31 31" fill="none" xmlns="http://www.w3.org/2000/svg">
<path d="M30.5426 10.9126C30.8342 10.6236 30.9982 10.23 30.9982 9.81943C30.9936 8.96348 30.3001 8.27119 29.4441 8.26811H29.4388C29.0292 8.26866 28.6368 8.43349 28.3496 8.72566L26.5929 10.4821C26.1742 10.3843 25.7457 10.334 25.3156 10.3321V5.30304L27.3139 1.806C27.319 1.79708 27.3187 1.78692 27.3233 1.77781C27.3375 1.74624 27.3484 1.71337 27.3558 1.67958C27.3659 1.6469 27.3727 1.61336 27.3761 1.57932C27.3767 1.56898 27.382 1.56024 27.382 1.54972C27.3789 1.5166 27.3737 1.48374 27.3665 1.4513C27.3634 1.43561 27.3637 1.41997 27.3592 1.40465C27.1224 0.0446223 23.6578 0 23.2492 0C22.8407 0 19.376 0.0446223 19.1392 1.40471C19.1347 1.42004 19.135 1.43573 19.1319 1.45136C19.1247 1.4838 19.1195 1.51667 19.1164 1.54978C19.1164 1.5603 19.1217 1.56904 19.1224 1.57938C19.1257 1.61342 19.1324 1.64702 19.1426 1.67964C19.1501 1.71343 19.1609 1.74636 19.1752 1.77788C19.1797 1.78705 19.1794 1.79714 19.1845 1.80606L21.1829 5.3031V10.332H19.1164V6.90747C19.4892 6.36714 19.671 5.71793 19.633 5.06257C19.633 3.61619 18.0679 2.32214 17.8892 2.17941C17.8764 2.16914 17.8608 2.16667 17.8474 2.15781C17.791 2.12205 17.7289 2.09639 17.6637 2.08192C17.5329 2.0586 17.3982 2.08562 17.2865 2.15744C17.2728 2.16637 17.2569 2.16895 17.2439 2.17935C17.0653 2.32214 15.5001 3.61613 15.5001 5.06251C15.4622 5.71781 15.644 6.36702 16.0167 6.90735V10.3319H14.4669V5.6826C14.4645 5.66617 14.4612 5.64986 14.4571 5.6338C14.4581 5.61693 14.4582 5.60007 14.4574 5.5832L13.9196 2.84881C13.8036 2.38394 13.3832 2.05977 12.9041 2.06592C12.425 2.07207 12.013 2.40683 11.9089 2.87454L11.3769 5.58314C11.3761 5.60001 11.3762 5.61687 11.3772 5.63373C11.373 5.6498 11.3698 5.66611 11.3674 5.68254V10.3319H10.3342V8.26553C10.3335 7.69516 9.87132 7.233 9.30096 7.23232V6.05546C9.61947 5.87236 9.81636 5.53341 9.81753 5.16597V1.03321C9.81698 0.462841 9.35475 0.000677028 8.78445 0H6.20146C5.6311 0.000677028 5.16893 0.462841 5.16826 1.03321V5.16603C5.16949 5.53347 5.36632 5.87242 5.68483 6.05552V7.23244C5.11446 7.23312 4.6523 7.69528 4.65162 8.26565V10.4294C1.95718 10.9275 0.00302724 13.2791 0.00653548 16.0192L0.0171217 29.9385C0.00942823 30.2174 0.11486 30.4875 0.309413 30.6874C0.503966 30.8873 0.771085 31.0001 1.05008 31H29.9504C30.2268 31.0001 30.4917 30.8894 30.6859 30.6926C30.8801 30.4959 30.9873 30.2295 30.9836 29.9531L30.9939 16.0191C30.9981 14.5418 30.4227 13.1217 29.3913 12.064L30.5426 10.9126ZM29.0827 9.45365C29.1773 9.35665 29.3069 9.30175 29.4424 9.30132H29.4439C29.6539 9.29873 29.8444 9.42398 29.9253 9.6178C30.0062 9.81161 29.9612 10.0352 29.8116 10.1826L28.6051 11.3892C28.3151 11.1819 28.0061 11.0027 27.6823 10.8539L29.0827 9.45365ZM20.2323 1.55729C20.5657 1.34199 21.6066 1.03321 23.2492 1.03321C24.8919 1.03321 25.9327 1.34199 26.2662 1.55729L24.4993 4.6494H21.9992L20.2323 1.55729ZM22.216 6.71581V5.6826H24.2824V6.71581H22.216V6.71581ZM24.2824 7.74902V10.332H22.216V7.74902H24.2824ZM16.5334 5.06257C16.5334 4.43238 17.1256 3.71171 17.5666 3.27897C18.0076 3.71171 18.5998 4.43238 18.5998 5.06257C18.6214 5.45684 18.5357 5.84964 18.352 6.19918H16.7811C16.5975 5.84958 16.5119 5.45684 16.5334 5.06257ZM17.05 8.26559V7.23238H18.0832V8.26559H17.05ZM18.0832 9.29879V10.332H17.05V9.29879H18.0832ZM12.9114 3.07334L13.3224 5.16597H12.5094L12.9114 3.07334ZM12.4006 6.19918H13.4338V10.332H12.4006V6.19918ZM6.2014 1.03321H8.78439L8.78488 5.16603H6.20134V1.03321H6.2014ZM5.68483 8.26559C6.25519 8.26491 6.71736 7.80275 6.71804 7.23238V6.19918H8.26781V7.23238C8.26849 7.80275 8.73066 8.26491 9.30102 8.26559V10.332H5.68908L5.68477 10.3322V8.26559H5.68483ZM29.9607 16.0181L29.9504 29.9668L1.05008 29.9521L1.03974 16.018C1.03876 14.7843 1.52819 13.6008 2.40026 12.7281C3.27227 11.8554 4.45547 11.3651 5.68914 11.3651H25.3113C26.545 11.3651 27.7282 11.8554 28.6002 12.7281C29.4723 13.6009 29.9617 14.7844 29.9607 16.0181Z" fill="white"/>
<path d="M19.4361 14.4688H19.4326C18.5412 14.4707 17.691 14.8447 17.0872 15.5005L15.4981 17.1996L13.9077 15.499C13.3039 14.844 12.4543 14.4707 11.5635 14.4688H11.56C10.6708 14.4713 9.82314 14.8451 9.22169 15.5C7.95196 16.8889 7.95208 19.0173 9.22194 20.4062L15.1209 26.7038C15.2186 26.808 15.3551 26.8672 15.4981 26.8672C15.641 26.8672 15.7775 26.8081 15.8752 26.7038L21.7742 20.4062C23.044 19.0173 23.044 16.8889 21.7742 15.5C21.1728 14.8451 20.3252 14.4712 19.4361 14.4688ZM21.0212 19.6989L21.0204 19.6999L15.4981 25.5948L9.97486 19.6989C9.07115 18.7099 9.07146 17.1948 9.9756 16.2062C10.3828 15.7608 10.9575 15.5055 11.5609 15.502H11.5632C12.1684 15.5048 12.7449 15.7599 13.1541 16.2058L15.1206 18.3085C15.2206 18.4087 15.3564 18.4651 15.498 18.4651C15.6396 18.4651 15.7754 18.4087 15.8753 18.3085L17.8406 16.2073C18.2498 15.7606 18.8269 15.505 19.4328 15.502H19.435C20.0385 15.5055 20.6131 15.7608 21.0201 16.2063C21.9246 17.1947 21.925 18.7099 21.0212 19.6989Z" fill="white"/>
<path d="M2.58292 16.0186C2.44591 16.0186 2.31445 16.073 2.21757 16.1699C2.12069 16.2668 2.06628 16.3982 2.06628 16.5353V23.251C2.06628 23.5363 2.29758 23.7676 2.58286 23.7676C2.86813 23.7676 3.09943 23.5363 3.09943 23.251V16.5353C3.09949 16.3982 3.04502 16.2668 2.94814 16.1699C2.85139 16.073 2.71992 16.0186 2.58292 16.0186Z" fill="white"/>
<path d="M2.58292 24.8008C2.44591 24.8008 2.31445 24.8552 2.21757 24.9521C2.12069 25.049 2.06628 25.1804 2.06628 25.3174V27.3839C2.06628 27.6692 2.29758 27.9004 2.58286 27.9004C2.86813 27.9004 3.09943 27.6691 3.09943 27.3839V25.3174C3.09949 25.1804 3.04502 25.049 2.94814 24.9521C2.85139 24.8552 2.71992 24.8008 2.58292 24.8008Z" fill="white"/>
</svg>
