<?xml version="1.0" encoding="utf-8"?>
<!-- Generator: Adobe Illustrator 25.0.0, SVG Export Plug-In . SVG Version: 6.00 Build 0)  -->
<svg version="1.1" xmlns="http://www.w3.org/2000/svg" xmlns:xlink="http://www.w3.org/1999/xlink" x="0px" y="0px"
	 viewBox="0 0 455.2 441.89" style="enable-background:new 0 0 455.2 441.89;" xml:space="preserve">
<style type="text/css">
	.st0{fill:url(#SVGID_1_);}
</style>
<g id="Layer_1">
</g>
<g id="Layer_2">
	<g id="Booking">
		<g id="Icon_Booking">
			<linearGradient id="SVGID_1_" gradientUnits="userSpaceOnUse" x1="72.0305" y1="220.9268" x2="382.6036" y2="220.9268">
				<stop  offset="4.102400e-07" style="stop-color:#F9A134"/>
				<stop  offset="1" style="stop-color:#F15722"/>
			</linearGradient>
			<path class="st0" d="M312.4,173.36H142.23c-6.22,0-11.28,5.06-11.28,11.28v54.93c0,6.22,5.06,11.28,11.28,11.28h108.98
				c2.67,0,4.83-2.16,4.83-4.83s-2.16-4.83-4.83-4.83H142.23c-0.89,0-1.61-0.72-1.61-1.61v-54.93c0-0.89,0.72-1.61,1.61-1.61H312.4
				c0.89,0,1.61,0.72,1.61,1.61v54.93c0,0.89-0.72,1.61-1.61,1.61h-38.64c-2.67,0-4.83,2.16-4.83,4.83s2.16,4.83,4.83,4.83h38.64
				c6.22,0,11.28-5.06,11.28-11.28v-54.93C323.68,178.42,318.62,173.36,312.4,173.36L312.4,173.36z M163.59,192.69h-8.47
				c-2.67,0-4.83,2.16-4.83,4.83v29.15c-0.01,2.62,2.21,4.85,4.83,4.83h0.02c0,0,7.78-0.03,9.93-0.03c6.99,0,12.68-5.69,12.68-12.68
				c0-3.61-1.53-6.87-3.96-9.18c0.85-1.61,1.34-3.44,1.34-5.38C175.13,197.86,169.95,192.69,163.59,192.69L163.59,192.69z
				 M159.95,202.35h3.64c1.03,0,1.88,0.84,1.88,1.88s-0.84,1.88-1.88,1.88c-0.66,0-2.43,0.01-3.64,0.01V202.35z M165.06,221.81
				c-0.97,0-3.08,0.01-5.11,0.01v-6.04c0.82,0.03,4.34,0,5.11,0c1.66,0,3.01,1.35,3.01,3.01S166.73,221.81,165.06,221.81z
				 M353.93,279.83c5.15,0,9.34-4.19,9.34-9.34V84.65c0-5.15-4.19-9.34-9.34-9.34H100.7c-5.15,0-9.34,4.19-9.34,9.34v185.84
				c0,5.15,4.19,9.34,9.34,9.34H353.93z M101.03,84.97h88.13h164.46v185.2H101.03V167.71V84.97z M358.44,55.98H96.19
				c-13.32,0-24.16,10.84-24.16,24.16v43.74c0,2.67,2.16,4.83,4.83,4.83s4.83-2.16,4.83-4.83V80.14c0-7.99,6.5-14.5,14.5-14.5
				h262.25c7.99,0,14.5,6.5,14.5,14.5V275c0,7.99-6.5,14.5-14.5,14.5H96.19c-7.99,0-14.5-6.5-14.5-14.5V146.43
				c0-2.67-2.16-4.83-4.83-4.83s-4.83,2.16-4.83,4.83V275c0,13.32,10.84,24.16,24.16,24.16h107.22l-7.76,39.26h-3.07
				c-11.25,0-20.41,9.15-20.41,20.41v19.64c0,4.09,3.32,7.41,7.41,7.41h95.47c4.09,0,7.41-3.32,7.41-7.41v-19.64
				c0-11.25-9.15-20.41-20.41-20.41h-3.07l-7.76-39.26h107.22c13.32,0,24.16-10.84,24.16-24.16V80.14
				C382.6,66.81,371.76,55.98,358.44,55.98L358.44,55.98z M213.26,299.16h28.11l7.76,39.26h-43.62L213.26,299.16z M262.05,348.08
				c5.92,0,10.74,4.82,10.74,10.74v17.39h-90.96v-17.39c0-5.92,4.82-10.74,10.74-10.74L262.05,348.08L262.05,348.08z M333.61,123.63
				H122.66c-2.67,0-4.83,2.16-4.83,4.83c0,2.67,2.16,4.83,4.83,4.83h210.95c2.67,0,4.83-2.16,4.83-4.83
				C338.44,125.79,336.28,123.63,333.61,123.63z M275.62,152.63c2.67,0,4.83-2.16,4.83-4.83c0-2.67-2.16-4.83-4.83-4.83H122.66
				c-2.67,0-4.83,2.16-4.83,4.83c0,2.67,2.16,4.83,4.83,4.83H275.62z M251.13,192.69c-10.7,0-19.41,8.71-19.41,19.41
				s8.71,19.41,19.41,19.41c10.7,0,19.41-8.71,19.41-19.41S261.84,192.69,251.13,192.69z M251.13,221.84
				c-5.37,0-9.74-4.37-9.74-9.74c0-5.37,4.37-9.74,9.74-9.74s9.74,4.37,9.74,9.74C260.88,217.47,256.51,221.84,251.13,221.84z
				 M185.48,212.1c0,10.7,8.71,19.41,19.41,19.41s19.41-8.71,19.41-19.41s-8.71-19.41-19.41-19.41S185.48,201.39,185.48,212.1z
				 M214.63,212.1c0,5.37-4.37,9.74-9.74,9.74c-5.37,0-9.74-4.37-9.74-9.74c0-5.37,4.37-9.74,9.74-9.74
				C210.26,202.35,214.63,206.72,214.63,212.1z M333.61,104.3H122.66c-2.67,0-4.83,2.16-4.83,4.83c0,2.67,2.16,4.83,4.83,4.83
				h210.95c2.67,0,4.83-2.16,4.83-4.83C338.44,106.46,336.28,104.3,333.61,104.3z M282.8,192.69c-2.67,0-4.83,2.16-4.83,4.83v29.15
				c0,2.67,2.16,4.83,4.83,4.83c2.67,0,4.83-2.16,4.83-4.83v-4.75l8.53,8.23c1.92,1.85,4.98,1.8,6.83-0.12
				c1.85-1.92,1.8-4.98-0.12-6.83l-12.09-11.67l10.97-10.08c1.97-1.81,2.09-4.86,0.29-6.83c-1.81-1.97-4.86-2.09-6.83-0.29
				l-7.58,6.97v-3.78C287.63,194.85,285.47,192.69,282.8,192.69L282.8,192.69z"/>
		</g>
	</g>
</g>
</svg>
