<svg width="33" height="33" viewBox="0 0 33 33" fill="none" xmlns="http://www.w3.org/2000/svg">
<g clip-path="url(#clip0)">
<path d="M30.3925 21.3925C31.3879 22.5518 31.9355 24.0278 31.9355 25.5484C31.9355 26.8603 31.5368 28.0803 30.8562 29.0959C30.78 27.9942 30.0224 27.0339 28.9496 26.7267L27.1452 26.2116V26.0695C27.8084 25.5697 28.2097 24.7835 28.2097 23.9516V22.9973C28.2097 21.5666 27.1446 20.3542 25.7851 20.2359C25.0385 20.171 24.298 20.4228 23.7505 20.9247C23.2016 21.4281 22.8871 22.1435 22.8871 22.8871V23.9516C22.8871 24.7835 23.2884 25.5697 23.9516 26.0695V26.2116L22.1472 26.7267C21.0775 27.0329 20.3217 27.9877 20.2411 29.0847C19.5441 28.0394 19.1613 26.8109 19.1613 25.5484C19.1613 22.0263 22.0263 19.1613 25.5484 19.1613C27.069 19.1613 28.5449 19.7089 29.7043 20.7043L30.3977 19.8963C29.0458 18.7361 27.3234 18.0968 25.5484 18.0968C23.685 18.0968 21.984 18.7886 20.6762 19.9236L18.3278 17.5752C18.5147 17.2578 18.629 16.894 18.629 16.5C18.629 16.106 18.5147 15.7422 18.3273 15.4253L24.2331 9.51931C24.7552 9.89148 25.3919 10.1129 26.0806 10.1129C26.4341 10.1129 26.7735 10.0529 27.0914 9.94631L29.163 13.8312C28.9044 14.115 28.7419 14.4892 28.7419 14.9032C28.7419 15.7835 29.4585 16.5 30.3387 16.5C31.219 16.5 31.9355 15.7835 31.9355 14.9032C31.9355 14.023 31.219 13.3065 30.3387 13.3065C30.2584 13.3065 30.1807 13.3187 30.1035 13.3304L28.0304 9.44342C28.7851 8.85841 29.2742 7.94619 29.2742 6.91936C29.2742 6.23064 29.0528 5.59391 28.6806 5.07179L30.7192 3.03398C30.9274 3.13299 31.1574 3.19355 31.4032 3.19355C32.2835 3.19355 33 2.47703 33 1.59677C33 0.716521 32.2835 0 31.4032 0C30.523 0 29.8065 0.716521 29.8065 1.59677C29.8065 1.84263 29.8665 2.07264 29.9665 2.28081L27.9282 4.31862C27.4061 3.94723 26.7694 3.72581 26.0806 3.72581C25.3919 3.72581 24.7552 3.94723 24.2331 4.3194L22.1947 2.28133C22.2948 2.07264 22.3548 1.84263 22.3548 1.59677C22.3548 0.716521 21.6383 0 20.7581 0C19.8778 0 19.1613 0.716521 19.1613 1.59677C19.1613 2.47703 19.8778 3.19355 20.7581 3.19355C21.0039 3.19355 21.2339 3.13299 21.4421 3.03346L23.4807 5.07127C23.1085 5.59391 22.8871 6.23064 22.8871 6.91936C22.8871 7.60807 23.1085 8.2448 23.4807 8.76692L17.5747 14.6727C17.2578 14.4853 16.894 14.371 16.5 14.371C16.106 14.371 15.7422 14.4858 15.4253 14.6727L13.0692 12.3165C14.2085 11.0033 14.9032 9.29918 14.9032 7.45161C14.9032 3.58105 11.8789 0.319927 8.01844 0.0283282L7.93865 1.08947C11.2471 1.33974 13.8387 4.13462 13.8387 7.45161C13.8387 8.74873 13.4385 9.96347 12.7578 10.9794C12.6741 9.88576 11.9194 8.93455 10.8528 8.62996L9.04839 8.11486V7.97322C9.71163 7.47344 10.1129 6.68727 10.1129 5.85536V4.90156C10.1129 3.47085 9.04787 2.25846 7.68837 2.14021C6.94119 2.07472 6.20127 2.32655 5.65368 2.82892C5.10479 3.33129 4.79032 4.04677 4.79032 4.79032V5.85484C4.79032 6.68675 5.1916 7.47344 5.85484 7.9727V8.11434L4.05041 8.62996C2.9833 8.93455 2.22857 9.88576 2.14541 10.9794C1.46475 9.96347 1.06452 8.74873 1.06452 7.45161C1.06452 4.13462 3.65616 1.33974 6.96458 1.08947L6.88479 0.0283282C3.02436 0.319927 0 3.58105 0 7.45161C0 11.3222 3.02436 14.5833 6.88479 14.8749L6.96458 13.8138C5.27632 13.6859 3.77804 12.8935 2.71197 11.7097H12.1913C11.1257 12.8935 9.62691 13.6859 7.93865 13.8138L8.01844 14.8749C9.65991 14.7509 11.1465 14.0861 12.3176 13.0702L14.6722 15.4253C14.4853 15.7422 14.371 16.1068 14.371 16.5C14.371 16.894 14.4853 17.2578 14.6727 17.5747L8.76692 23.4807C8.2448 23.1085 7.60807 22.8871 6.91936 22.8871C6.33434 22.8871 5.78727 23.0477 5.31504 23.3235L2.9651 20.5036C3.10674 20.2653 3.19355 19.9906 3.19355 19.6935C3.19355 18.8133 2.47703 18.0968 1.59677 18.0968C0.716521 18.0968 0 18.8133 0 19.6935C0 20.5738 0.716521 21.2903 1.59677 21.2903C1.79117 21.2903 1.97518 21.2503 2.14774 21.1866L4.49665 24.0059C4.01741 24.5642 3.72581 25.2888 3.72581 26.0806C3.72581 26.7694 3.94723 27.4061 4.3194 27.9282L2.28081 29.9665C2.07264 29.8665 1.84263 29.8065 1.59677 29.8065C0.716521 29.8065 0 30.523 0 31.4032C0 32.2835 0.716521 33 1.59677 33C2.47703 33 3.19355 32.2835 3.19355 31.4032C3.19355 31.1574 3.13351 30.9274 3.03346 30.7192L5.07179 28.6806C5.59391 29.0528 6.23064 29.2742 6.91936 29.2742C7.83365 29.2742 8.65777 28.8857 9.24045 28.2676L11.7635 29.9497C11.7315 30.0747 11.7097 30.2036 11.7097 30.3387C11.7097 31.219 12.4262 31.9355 13.3065 31.9355C14.1867 31.9355 14.9032 31.219 14.9032 30.3387C14.9032 29.4585 14.1867 28.7419 13.3065 28.7419C12.9483 28.7419 12.6209 28.8643 12.3542 29.0645L9.83248 27.383C10.0113 26.9851 10.1129 26.5448 10.1129 26.0806C10.1129 25.3919 9.89148 24.7552 9.51931 24.2331L15.4253 18.3273C15.7422 18.5147 16.106 18.629 16.5 18.629C16.894 18.629 17.2578 18.5147 17.5747 18.3273L19.923 20.6757C18.7886 21.984 18.0968 23.685 18.0968 25.5484C18.0968 27.3234 18.7361 29.0458 19.8968 30.3972L20.585 29.8065H30.2956C29.1258 31.1095 27.4336 31.9355 25.5484 31.9355C24.0278 31.9355 22.5518 31.3879 21.3925 30.3925L20.6991 31.2005C22.051 32.3607 23.7733 33 25.5484 33C29.6575 33 33 29.6575 33 25.5484C33 23.7733 32.3607 22.051 31.2 20.6996L30.3925 21.3925ZM30.871 14.9032C30.871 15.1964 30.6324 15.4355 30.3387 15.4355C30.045 15.4355 29.8065 15.1964 29.8065 14.9032C29.8065 14.6101 30.045 14.371 30.3387 14.371C30.6324 14.371 30.871 14.6101 30.871 14.9032ZM3.28659 10.6452C3.45604 10.1742 3.84406 9.7961 4.34279 9.65368L6.91936 8.9174V7.38248L6.65479 7.22863C6.15397 6.93703 5.85484 6.42322 5.85484 5.85484V4.79032C5.85484 4.34435 6.04326 3.91475 6.37332 3.61301C6.7065 3.30738 7.14338 3.16106 7.59637 3.20005C8.41061 3.27074 9.04839 4.01741 9.04839 4.90104V5.85484C9.04839 6.42322 8.74925 6.93703 8.24844 7.22863L7.98387 7.38248V8.9174L10.5604 9.65368C11.0597 9.7961 11.4472 10.1742 11.6166 10.6452H3.28659ZM13.3065 29.8065C13.6001 29.8065 13.8387 30.045 13.8387 30.3387C13.8387 30.6324 13.6001 30.871 13.3065 30.871C13.0128 30.871 12.7742 30.6324 12.7742 30.3387C12.7742 30.045 13.0128 29.8065 13.3065 29.8065ZM31.4032 1.06452C31.6969 1.06452 31.9355 1.30362 31.9355 1.59677C31.9355 1.88993 31.6969 2.12903 31.4032 2.12903C31.1095 2.12903 30.871 1.88993 30.871 1.59677C30.871 1.30362 31.1095 1.06452 31.4032 1.06452ZM26.0806 4.79032C27.2548 4.79032 28.2097 5.74516 28.2097 6.91936C28.2097 8.09355 27.2548 9.04839 26.0806 9.04839C24.9065 9.04839 23.9516 8.09355 23.9516 6.91936C23.9516 5.74516 24.9065 4.79032 26.0806 4.79032ZM20.7581 2.12903C20.4644 2.12903 20.2258 1.88993 20.2258 1.59677C20.2258 1.30362 20.4644 1.06452 20.7581 1.06452C21.0517 1.06452 21.2903 1.30362 21.2903 1.59677C21.2903 1.88993 21.0517 2.12903 20.7581 2.12903ZM1.06452 19.6935C1.06452 19.3999 1.3031 19.1613 1.59677 19.1613C1.89045 19.1613 2.12903 19.3999 2.12903 19.6935C2.12903 19.9872 1.89045 20.2258 1.59677 20.2258C1.3031 20.2258 1.06452 19.9872 1.06452 19.6935ZM1.59677 31.9355C1.3031 31.9355 1.06452 31.6969 1.06452 31.4032C1.06452 31.1095 1.3031 30.871 1.59677 30.871C1.89045 30.871 2.12903 31.1095 2.12903 31.4032C2.12903 31.6969 1.89045 31.9355 1.59677 31.9355ZM6.91936 28.2097C5.74516 28.2097 4.79032 27.2548 4.79032 26.0806C4.79032 24.9065 5.74516 23.9516 6.91936 23.9516C8.09355 23.9516 9.04839 24.9065 9.04839 26.0806C9.04839 27.2548 8.09355 28.2097 6.91936 28.2097ZM15.4355 16.5C15.4355 15.9129 15.9129 15.4355 16.5 15.4355C17.0871 15.4355 17.5645 15.9129 17.5645 16.5C17.5645 17.0871 17.0871 17.5645 16.5 17.5645C15.9129 17.5645 15.4355 17.0871 15.4355 16.5ZM21.3834 28.7419C21.5528 28.271 21.9408 27.8929 22.4396 27.751L25.0161 27.0142V25.4793L24.7516 25.3254C24.2507 25.0338 23.9516 24.52 23.9516 23.9516V22.8871C23.9516 22.4406 24.14 22.0115 24.4701 21.7098C24.8033 21.4042 25.2402 21.2578 25.6931 21.2968C26.5074 21.3675 27.1452 22.1142 27.1452 22.9973V23.9516C27.1452 24.52 26.846 25.0338 26.3452 25.3254L26.0806 25.4793V27.0142L28.6572 27.751C29.1559 27.8934 29.544 28.2715 29.7134 28.7419H21.3834Z" fill="black"/>
</g>
<defs>
<clipPath id="clip0">
<rect width="33" height="33" fill="white"/>
</clipPath>
</defs>
</svg>
