<?xml version="1.0" encoding="utf-8"?>
<!-- Generator: Adobe Illustrator 25.0.0, SVG Export Plug-In . SVG Version: 6.00 Build 0)  -->
<svg version="1.1" id="Layer_1" xmlns="http://www.w3.org/2000/svg" xmlns:xlink="http://www.w3.org/1999/xlink" x="0px" y="0px"
	 viewBox="0 0 455.2 441.89" style="enable-background:new 0 0 455.2 441.89;" xml:space="preserve">
<style type="text/css">
	.st0{fill:url(#Icon_Social_1_);}
</style>
<linearGradient id="Icon_Social_1_" gradientUnits="userSpaceOnUse" x1="67.6453" y1="221.222" x2="386.46" y2="221.222">
	<stop  offset="4.102400e-07" style="stop-color:#020211"/>
	<stop  offset="1" style="stop-color:#020211"/>
</linearGradient>
<path id="Icon_Social" class="st0" d="M321.74,250.99c-15.42,0-30.33,5.53-42.02,15.59L248,234.85c5.13-7.76,5.49-17.74,0.94-25.86
	l32.12-32.12c27.76,22.45,68.46,18.15,90.91-9.61c22.45-27.76,18.15-68.46-9.61-90.91c-27.76-22.45-68.46-18.15-90.91,9.61
	c-20.04,24.78-19.03,60.47,2.38,84.08l-31.43,31.43c-8.41-6.46-19.99-6.88-28.84-1.04l-31.73-31.73
	c23.28-27.16,20.13-68.05-7.04-91.33s-68.05-20.13-91.33,7.04s-20.13,68.05,7.04,91.33c24.25,20.78,60.04,20.78,84.29,0l31.73,31.73
	c-5.84,8.85-5.42,20.43,1.04,28.84l-31.43,31.43c-26.54-24.08-67.58-22.09-91.66,4.45s-22.09,67.58,4.45,91.66
	c26.54,24.08,67.58,22.09,91.66-4.45c21.51-23.7,22.52-59.55,2.39-84.43l32.12-32.12c8.12,4.55,18.09,4.18,25.86-0.94l31.73,31.73
	c-23.21,27.13-20.02,67.94,7.11,91.14s67.94,20.02,91.14-7.11s20.02-67.94-7.11-91.14C352.11,256.47,337.18,250.97,321.74,250.99
	L321.74,250.99z M289.05,170.5c1-18.06,16.44-31.89,34.5-30.89c16.66,0.92,29.97,14.23,30.89,30.89
	C335.04,184.97,308.45,184.97,289.05,170.5L289.05,170.5z M305.81,113.62c0-8.8,7.14-15.94,15.94-15.94s15.94,7.14,15.94,15.94
	s-7.14,15.94-15.94,15.94C312.94,129.55,305.81,122.42,305.81,113.62L305.81,113.62z M321.74,71.97
	c30.21,0.03,54.68,24.54,54.65,54.75c-0.01,13.03-4.68,25.63-13.15,35.53c-3.16-13.01-12.24-23.8-24.52-29.14
	c10.79-9.38,11.93-25.73,2.55-36.51c-9.38-10.79-25.73-11.93-36.51-2.55s-11.93,25.73-2.55,36.51c0.79,0.91,1.64,1.76,2.55,2.55
	c-12.28,5.34-21.35,16.13-24.52,29.14c-19.65-22.95-16.98-57.48,5.97-77.13C296.11,76.65,308.71,71.98,321.74,71.97z M78.09,126.67
	c-0.03-30.21,24.43-54.72,54.64-54.76s54.72,24.43,54.76,54.64c0.01,13.1-4.67,25.76-13.2,35.7c-3.16-13.01-12.24-23.8-24.52-29.14
	c10.79-9.38,11.93-25.73,2.55-36.51c-9.38-10.79-25.73-11.93-36.51-2.55s-11.93,25.73-2.55,36.51c0.79,0.91,1.64,1.76,2.55,2.55
	c-12.28,5.34-21.35,16.13-24.52,29.14C82.76,152.36,78.07,139.73,78.09,126.67z M116.85,113.62c0-8.8,7.14-15.94,15.94-15.94
	s15.94,7.14,15.94,15.94s-7.14,15.94-15.94,15.94S116.85,122.42,116.85,113.62L116.85,113.62z M100.09,170.5
	c1-18.06,16.44-31.89,34.5-30.89c16.67,0.92,29.97,14.23,30.89,30.89C146.08,184.97,119.49,184.97,100.09,170.5z M100.09,359.46
	c1-18.06,16.44-31.89,34.5-30.89c16.67,0.92,29.97,14.23,30.89,30.89C146.08,373.93,119.49,373.93,100.09,359.46z M116.85,302.58
	c0-8.8,7.14-15.94,15.94-15.94s15.94,7.14,15.94,15.94c0,8.8-7.14,15.94-15.94,15.94h0C123.98,318.51,116.85,311.38,116.85,302.58
	L116.85,302.58L116.85,302.58z M174.28,351.21c-3.16-13.01-12.24-23.8-24.52-29.14c10.79-9.38,11.93-25.73,2.55-36.51
	s-25.73-11.93-36.51-2.55c-10.79,9.38-11.93,25.73-2.55,36.51c0.79,0.91,1.64,1.76,2.55,2.55c-12.28,5.34-21.35,16.13-24.52,29.14
	c-19.68-22.92-17.06-57.45,5.86-77.13s57.45-17.06,77.13,5.86C191.88,300.43,191.88,330.71,174.28,351.21z M212.35,221.15
	c0-8.24,6.68-14.92,14.92-14.92c8.24,0,14.92,6.68,14.92,14.92c0,8.24-6.68,14.92-14.92,14.92h0
	C219.03,236.07,212.35,229.39,212.35,221.15L212.35,221.15z M289.05,359.46c1-18.06,16.44-31.89,34.5-30.89
	c16.67,0.92,29.97,14.23,30.89,30.89C335.04,373.93,308.45,373.93,289.05,359.46z M305.81,302.58c0-8.8,7.14-15.94,15.94-15.94
	c8.8,0,15.94,7.14,15.94,15.94c0,8.8-7.14,15.94-15.94,15.94h0C312.94,318.51,305.81,311.38,305.81,302.58L305.81,302.58
	L305.81,302.58z M363.24,351.21c-3.16-13.01-12.24-23.8-24.52-29.14c10.79-9.38,11.93-25.73,2.55-36.51
	c-9.38-10.79-25.73-11.93-36.51-2.55s-11.93,25.73-2.55,36.51c0.79,0.91,1.64,1.76,2.55,2.55c-12.28,5.34-21.35,16.13-24.52,29.14
	c-19.68-22.92-17.06-57.45,5.86-77.13s57.45-17.06,77.13,5.86C380.84,300.43,380.84,330.71,363.24,351.21z"/>
</svg>
