<?xml version="1.0" encoding="utf-8"?>
<!-- Generator: Adobe Illustrator 25.0.0, SVG Export Plug-In . SVG Version: 6.00 Build 0)  -->
<svg version="1.1" id="Layer_1" xmlns="http://www.w3.org/2000/svg" xmlns:xlink="http://www.w3.org/1999/xlink" x="0px" y="0px"
	 viewBox="0 0 455.2 441.89" style="enable-background:new 0 0 455.2 441.89;" xml:space="preserve">
<style type="text/css">
	.st0{fill:url(#SVGID_1_);}
</style>
<g id="Icon_Go">
	<linearGradient id="SVGID_1_" gradientUnits="userSpaceOnUse" x1="42.1015" y1="220.9268" x2="412.5326" y2="220.9268">
		<stop  offset="4.102400e-07" style="stop-color:white"/>
		<stop  offset="1" style="stop-color:white"/>
	</linearGradient>
	<path class="st0" d="M392.28,190.37l-21.72-17.38c-0.09-0.07-0.17-0.16-0.26-0.23l20.22-4.05c2.7-0.54,4.65-2.91,4.65-5.67v-17.36
		c0-3.19-2.59-5.79-5.79-5.79h-28.94c-3.19,0-5.79,2.59-5.79,5.79v10.14c-0.13-0.18-0.27-0.36-0.4-0.54
		c-0.36-1.01-1.01-1.83-1.83-2.48c-3.26-4.61-6.05-9.23-7.87-13.23l-9.78-21.51c-6.23-13.72-22.93-24.47-38-24.47H157.86
		c-15.07,0-31.76,10.75-38,24.47l-9.78,21.51c-1.82,3.99-4.61,8.62-7.87,13.23c-0.82,0.65-1.46,1.48-1.83,2.48
		c-0.13,0.18-0.26,0.35-0.4,0.54v-10.14c0-3.19-2.59-5.79-5.79-5.79H65.25c-3.19,0-5.79,2.59-5.79,5.79v17.36
		c0,2.76,1.94,5.13,4.65,5.67l20.22,4.05c-0.09,0.07-0.17,0.16-0.26,0.23l-21.72,17.38C51,199.45,42.1,217.96,42.1,232.5v98.4
		c0,9.57,7.79,17.36,17.36,17.36h46.3c9.57,0,17.36-7.79,17.36-17.36v-11.58H331.5v11.58c0,9.57,7.79,17.36,17.36,17.36h46.3
		c9.57,0,17.36-7.79,17.36-17.36v-98.4C412.53,217.96,403.64,199.45,392.28,190.37z M339.69,307.75l-13.27-13.27
		c-5.63-5.63-15.89-9.88-23.85-9.88H149.18c-7.96,0-18.22,4.25-23.85,9.88l-13.27,13.27H71.04c-9.57,0-17.36-7.79-17.36-17.36
		v-28.94h5.79v5.79c0,12.77,10.38,23.15,23.15,23.15h17.36c3.19,0,5.79-2.59,5.79-5.79s-2.59-5.79-5.79-5.79H82.62
		c-6.38,0-11.58-5.19-11.58-11.58v-5.79h11.58c4.8,0,12.27,3.09,15.67,6.49c1.13,1.13,2.61,1.7,4.09,1.7s2.96-0.57,4.09-1.7
		c2.26-2.26,2.26-5.92,0-8.18c-5.63-5.63-15.88-9.88-23.85-9.88H53.68V232.5c0-2.04,0.32-4.25,0.78-6.5c3.7,3.87,9.09,6.5,16.58,6.5
		h46.3c1.53,0,3-0.61,4.09-1.7l7.48-7.48l7.48,7.48c1.08,1.09,2.56,1.7,4.09,1.7h67.06l15.67,15.67c1.13,1.13,2.61,1.7,4.09,1.7
		s2.96-0.57,4.09-1.7l15.67-15.67h67.06c1.53,0,3.01-0.61,4.09-1.7l7.48-7.48l7.48,7.48c1.08,1.09,2.56,1.7,4.09,1.7h46.3
		c7.49,0,12.88-2.63,16.58-6.5c0.46,2.25,0.78,4.46,0.78,6.5v17.36h-28.94c-7.96,0-18.22,4.25-23.85,9.88
		c-2.26,2.26-2.26,5.92,0,8.18c1.13,1.13,2.61,1.7,4.09,1.7c1.48,0,2.96-0.57,4.09-1.7c3.4-3.4,10.86-6.49,15.67-6.49h11.58v5.79
		c0,6.38-5.19,11.58-11.58,11.58h-17.36c-3.19,0-5.79,2.59-5.79,5.79s2.59,5.79,5.79,5.79h17.36c12.77,0,23.15-10.38,23.15-23.15
		v-5.79h5.79v28.94c0,9.57-7.79,17.36-17.36,17.36H339.69z M323.32,307.75H128.42l5.09-5.09c3.4-3.4,10.86-6.49,15.67-6.49h153.38
		c4.8,0,12.27,3.09,15.67,6.49L323.32,307.75z M109.01,163.05h236.61c5.61,7.41,12.02,14.43,17.71,18.98l6.96,5.57l-40.94,16.37
		c-0.01,0-0.01,0.01-0.01,0.01c-0.7,0.28-1.36,0.71-1.93,1.27l-5.79,5.79l-9.89,9.89h-67.06c-1.53,0-3.01,0.61-4.09,1.7
		l-13.27,13.27l-13.27-13.27c-1.08-1.09-2.56-1.7-4.09-1.7h-67.06l-9.88-9.88l-5.79-5.79c-0.57-0.57-1.23-0.99-1.93-1.27
		c-0.01,0-0.01-0.01-0.01-0.01l-40.94-16.37l6.96-5.57C96.99,177.48,103.4,170.46,109.01,163.05L109.01,163.05z M394.83,211.78
		c-1.16,6.05-4.91,9.15-11.23,9.15h-43.91l-5.79-5.79l0.86-0.86l45.93-18.37l4.36,3.5C388.72,202.34,392.1,206.8,394.83,211.78z
		 M366.23,151.47h17.36v6.83l-17.36,3.47V151.47z M120.62,144.36l9.78-21.51c4.36-9.59,16.94-17.69,27.47-17.69h138.91
		c10.53,0,23.11,8.1,27.46,17.68l9.78,21.51c1.02,2.23,2.34,4.65,3.8,7.11h-221C118.27,149.01,119.6,146.6,120.62,144.36
		L120.62,144.36z M71.04,151.47h17.36v10.3l-17.36-3.47V151.47z M69.58,199.41l4.36-3.5l45.93,18.37l0.86,0.86l-5.79,5.79H71.04
		c-6.32,0-10.07-3.1-11.23-9.15C62.53,206.8,65.91,202.34,69.58,199.41L69.58,199.41z M105.77,336.69h-46.3
		c-3.19,0-5.79-2.6-5.79-5.79v-17.51c4.85,3.67,10.82,5.93,17.36,5.93h40.52v11.58C111.56,334.09,108.96,336.69,105.77,336.69z
		 M395.17,336.69h-46.3c-3.19,0-5.79-2.6-5.79-5.79v-11.58h40.52c6.54,0,12.51-2.26,17.36-5.93v17.51
		C400.96,334.09,398.36,336.69,395.17,336.69z"/>
</g>
</svg>
