<svg width="35" height="32" viewBox="0 0 35 32" fill="none" xmlns="http://www.w3.org/2000/svg">
<g clip-path="url(#clip0)">
<path d="M6.44815 18.1573C5.22748 18.1573 4.23397 19.0864 4.2291 20.2324C4.22423 21.3785 5.20985 22.3075 6.43052 22.3075C7.65119 22.3075 8.6447 21.3785 8.64957 20.2324C8.65444 19.0864 7.66882 18.1573 6.44815 18.1573ZM6.43493 21.27C5.82456 21.27 5.33178 20.8055 5.33422 20.2324C5.33665 19.6594 5.83337 19.1948 6.44374 19.1948C7.05411 19.1948 7.54689 19.6594 7.54445 20.2324C7.54202 20.8055 7.0453 21.27 6.43493 21.27Z" fill="white" fill-opacity="0.85"/>
<path d="M24.6849 17.6385H10.3184C10.0133 17.6385 9.76488 17.8708 9.76367 18.1573L9.74603 22.3076C9.74482 22.5941 9.99124 22.8264 10.2964 22.8264H24.6629C24.9681 22.8264 25.2165 22.5941 25.2177 22.3076L25.2353 18.1573C25.2365 17.8708 24.9901 17.6385 24.6849 17.6385ZM24.1148 21.7888H10.8534L10.8578 20.7512H24.1192L24.1148 21.7888ZM24.1236 19.7137H10.8622L10.8666 18.6761H24.128L24.1236 19.7137Z" fill="white" fill-opacity="0.85"/>
<path d="M28.5507 18.1573C27.33 18.1573 26.3365 19.0864 26.3316 20.2324C26.3268 21.3785 27.3124 22.3076 28.5331 22.3076C29.7537 22.3076 30.7472 21.3785 30.7521 20.2324C30.757 19.0864 29.7714 18.1573 28.5507 18.1573ZM28.5375 21.27C27.9271 21.27 27.4343 20.8055 27.4368 20.2324C27.4392 19.6594 27.9359 19.1949 28.5463 19.1949C29.1566 19.1949 29.6494 19.6594 29.647 20.2324C29.6446 20.8055 29.1478 21.27 28.5375 21.27Z" fill="white" fill-opacity="0.85"/>
<path d="M19.778 2.07513H15.3575L15.3531 3.1127H19.7736L19.778 2.07513Z" fill="white" fill-opacity="0.85"/>
<path d="M33.5787 5.18781H31.3684C31.0633 5.18781 30.8149 5.42009 30.8137 5.70659L30.7916 10.8944C30.7904 11.1809 31.0369 11.4132 31.342 11.4132H31.8946L31.8902 12.4507H29.6799L29.724 2.07512C29.7289 0.929071 28.7432 0 27.5226 0L7.63046 0C6.40979 0 5.41628 0.929071 5.41141 2.07512L5.36733 12.4507H3.1571L3.16151 11.4132H3.71407C4.01922 11.4132 4.26761 11.1809 4.26883 10.8944L4.29087 5.70659C4.29208 5.42009 4.04566 5.18781 3.74051 5.18781H1.53028C1.22513 5.18781 0.976731 5.42009 0.975514 5.70659L0.953476 10.8944C0.952259 11.1809 1.19868 11.4132 1.50383 11.4132H2.05639L2.04978 12.9695C2.04856 13.256 2.29498 13.4883 2.60013 13.4883H5.36293L5.35411 15.5634H4.24899C3.02832 15.5634 2.03481 16.4925 2.02994 17.6385L2.00791 22.8263C2.00503 23.812 2.73999 24.6611 3.76746 24.8594L4.01322 25.7984C4.16745 26.3861 4.6721 26.8346 5.30575 26.947L5.2902 30.6081C5.28898 30.8945 5.53541 31.1268 5.84056 31.1268H12.4713C12.7764 31.1268 13.0248 30.8945 13.026 30.6081L13.0414 26.9766H21.8824L21.867 30.6081C21.8657 30.8945 22.1122 31.1268 22.4173 31.1268H29.048C29.3532 31.1268 29.6016 30.8945 29.6028 30.6081L29.6183 26.947C30.2532 26.8346 30.7619 26.3859 30.9212 25.7979L31.1749 24.8594C32.2039 24.6609 32.9458 23.8118 32.9512 22.8263L32.9732 17.6385C32.9781 16.4925 31.9925 15.5634 30.7718 15.5634H29.6667L29.6755 13.4883H32.4383C32.7435 13.4883 32.9919 13.256 32.9931 12.9695L32.9997 11.4132H33.5522C33.8574 11.4132 34.1058 11.1809 34.107 10.8944L34.129 5.70659C34.1303 5.42009 33.8838 5.18781 33.5787 5.18781ZM2.0608 10.3756L2.07843 6.22537H3.18355L3.16591 10.3756H2.0608ZM6.51653 2.07512C6.51896 1.50206 7.01568 1.03756 7.62605 1.03756H27.5182C28.1285 1.03756 28.6213 1.50206 28.6189 2.07512L28.5616 15.5634H27.4565L27.5027 4.66902C27.504 4.38253 27.2575 4.15024 26.9524 4.15024H8.16539C7.86024 4.15024 7.61184 4.38253 7.61063 4.66902L7.56435 15.5634H6.45923L6.51653 2.07512ZM26.3954 5.18781L26.3513 15.5634H8.66946L8.71354 5.18781H26.3954ZM11.9231 30.0893H6.39752L6.41074 26.9766H7.51586L7.50705 29.0517H8.61216L8.62098 26.9766H9.7261L9.72169 28.0141H10.8268L10.8312 26.9766H11.9363L11.9231 30.0893ZM28.4999 30.0893H22.9743L22.9875 26.9766H24.0926L24.0882 28.0141H25.1933L25.1977 26.9766H26.3029L26.294 29.0517H27.3992L27.408 26.9766H28.5131L28.4999 30.0893ZM29.8503 25.5458C29.7879 25.777 29.5659 25.9392 29.3121 25.939H5.62057C5.36695 25.9393 5.14634 25.7773 5.08571 25.5463L4.9166 24.9015H30.0249L29.8503 25.5458ZM30.7674 16.601C31.3778 16.601 31.8706 17.0655 31.8681 17.6385L31.8461 22.8263C31.8436 23.3994 31.3469 23.8639 30.7366 23.8639H4.21373C3.60336 23.8639 3.11059 23.3994 3.11302 22.8263L3.13506 17.6385C3.1375 17.0655 3.63422 16.601 4.24459 16.601H30.7674ZM33.0041 10.3756H31.899L31.9166 6.22537H33.0217L33.0041 10.3756Z" fill="white" fill-opacity="0.85"/>
<path d="M10.3669 6.2254C10.0617 6.2254 9.81334 6.45769 9.81213 6.74418L9.7945 10.8944H10.8996L10.915 7.26296H12.0202L12.0246 6.2254H10.3669Z" fill="white" fill-opacity="0.85"/>
<path d="M10.8952 11.9319H9.79004L9.78563 12.9695H10.8908L10.8952 11.9319Z" fill="white" fill-opacity="0.85"/>
</g>
<defs>
<clipPath id="clip0">
<rect width="33.1535" height="31.1271" fill="white" transform="matrix(1 0 -0.00424803 0.999991 0.999756 0)"/>
</clipPath>
</defs>
</svg>
