<?xml version="1.0" encoding="utf-8"?>
<!-- Generator: Adobe Illustrator 25.0.0, SVG Export Plug-In . SVG Version: 6.00 Build 0)  -->
<svg version="1.1" id="Layer_1" xmlns="http://www.w3.org/2000/svg" xmlns:xlink="http://www.w3.org/1999/xlink" x="0px" y="0px"
	 viewBox="0 0 455.2 441.89" style="enable-background:new 0 0 455.2 441.89;" xml:space="preserve">
<style type="text/css">
	.st0{fill:url(#SVGID_1_);}
	.st1{fill:url(#SVGID_2_);}
	.st2{fill:url(#SVGID_3_);}
	.st3{fill:url(#SVGID_4_);}
	.st4{fill:url(#SVGID_5_);}
	.st5{fill:url(#SVGID_6_);}
	.st6{fill:url(#SVGID_7_);}
	.st7{fill:url(#SVGID_8_);}
	.st8{fill:url(#SVGID_9_);}
	.st9{fill:url(#SVGID_10_);}
	.st10{fill:url(#SVGID_11_);}
</style>
<g id="Icon_Pay">
	<g>
		<g>
			<linearGradient id="SVGID_1_" gradientUnits="userSpaceOnUse" x1="129.4798" y1="312.5118" x2="219.5308" y2="312.5118">
				<stop  offset="4.102400e-07" style="stop-color:#F9A134"/>
				<stop  offset="1" style="stop-color:#F15722"/>
			</linearGradient>
			<path class="st0" d="M148.43,293.46c-25.28,1.05-25.26,37.06,0,38.1h52.14c25.28-1.05,25.26-37.06,0-38.1H148.43z M209.6,312.51
				c0,4.98-4.05,9.02-9.02,9.02h-52.14c-11.98-0.5-11.97-17.56,0-18.05h52.14C205.55,303.49,209.6,307.54,209.6,312.51z"/>
			<linearGradient id="SVGID_2_" gradientUnits="userSpaceOnUse" x1="71.2214" y1="220.9268" x2="383.4127" y2="220.9268">
				<stop  offset="4.102400e-07" style="stop-color:#F9A134"/>
				<stop  offset="1" style="stop-color:#F15722"/>
			</linearGradient>
			<path class="st1" d="M365.28,102.94h-25.52c-6.64,0.23-6.63,9.8,0,10.03h25.52c4.47,0,8.11,3.64,8.11,8.11v134.19
				c0,4.47-3.64,8.11-8.11,8.11H134.82c-4.47,0-8.11-3.64-8.11-8.11v-6.71h53.81c29.72-1.23,29.69-43.57,0-44.79h-53.81v-82.69
				c0-4.47,3.64-8.11,8.11-8.11h181.37c6.64-0.23,6.63-9.8,0-10.03h-38.4V81.54c0-17.51-14.25-31.75-31.75-31.75H102.98
				c-17.51,0-31.75,14.25-31.75,31.75v28.77c0.23,6.64,9.8,6.63,10.03,0V81.54c0-11.98,9.75-21.73,21.73-21.73h143.06
				c11.98,0,21.73,9.75,21.73,21.73v21.39h-7.35V81.54c0-7.93-6.45-14.37-14.37-14.37h-26.81c-3.7,0-6.99,2.35-8.2,5.84l-3.21,9.35
				h-66.63l-3.21-9.35c-1.21-3.49-4.5-5.84-8.2-5.84h-26.81c-7.93,0-14.37,6.45-14.37,14.37v278.77c0,7.93,6.45,14.37,14.37,14.37
				h143.06c7.93,0,14.37-6.45,14.37-14.37v-15.68c-0.23-6.64-9.8-6.63-10.03,0v15.68c0,2.4-1.95,4.35-4.35,4.35H102.98
				c-2.4,0-4.35-1.95-4.35-4.35V81.54c0-2.4,1.95-4.35,4.35-4.35h25.84l3.21,9.35c1.21,3.49,4.5,5.84,8.2,5.84h68.56
				c3.7,0,6.99-2.35,8.2-5.84l3.21-9.35h25.84c2.4,0,4.35,1.95,4.35,4.35v21.39H134.82c-10,0-18.14,8.14-18.14,18.14v134.19
				c0,10,8.14,18.14,18.14,18.14h115.56v47.85c0.23,6.64,9.8,6.63,10.03,0V273.4h7.35v86.91c0,11.98-9.75,21.73-21.73,21.73H102.98
				c-11.98,0-21.73-9.75-21.73-21.73V134.02c-0.23-6.64-9.8-6.63-10.03,0v226.29c0,17.51,14.25,31.75,31.75,31.75h143.06
				c17.51,0,31.75-14.25,31.75-31.75V273.4h87.49c10,0,18.14-8.14,18.14-18.14V121.07C383.41,111.07,375.28,102.94,365.28,102.94
				L365.28,102.94z M180.52,213.79c16.41,0.68,16.4,24.06,0,24.73h-53.81v-24.73L180.52,213.79z"/>
			<linearGradient id="SVGID_3_" gradientUnits="userSpaceOnUse" x1="285.0408" y1="226.1605" x2="325.5988" y2="226.1605">
				<stop  offset="4.102400e-07" style="stop-color:#F9A134"/>
				<stop  offset="1" style="stop-color:#F15722"/>
			</linearGradient>
			<path class="st2" d="M288.27,250.18c2.59,0.99,5.48-0.31,6.47-2.9l2.39-6.27h16.41l2.36,6.25c0.97,2.62,3.94,3.89,6.46,2.92
				c2.59-0.98,3.9-3.87,2.92-6.46l-14.39-38.12c-0.02-0.05-0.04-0.09-0.05-0.14c-0.91-2.22-3.05-3.65-5.45-3.65h-0.01
				c-2.4,0-4.54,1.44-5.44,3.66c-0.02,0.04-0.03,0.07-0.04,0.11l-14.52,38.12C284.38,246.29,285.68,249.19,288.27,250.18
				L288.27,250.18z M305.37,219.37l4.38,11.61h-8.8L305.37,219.37z"/>
			<linearGradient id="SVGID_4_" gradientUnits="userSpaceOnUse" x1="321.7068" y1="226.1586" x2="356.3354" y2="226.1586">
				<stop  offset="4.102400e-07" style="stop-color:#F9A134"/>
				<stop  offset="1" style="stop-color:#F15722"/>
			</linearGradient>
			<path class="st3" d="M334.05,227.23l-0.04,18.25c-0.01,2.77,2.23,5.02,5,5.03h0.01c2.76,0,5.01-2.24,5.01-5l0.04-18.27
				l11.44-17.57c1.51-2.32,0.85-5.43-1.47-6.94c-2.32-1.51-5.43-0.86-6.94,1.47l-8.05,12.37l-8.15-12.48
				c-1.52-2.32-4.62-2.97-6.94-1.46c-2.32,1.51-2.97,4.62-1.46,6.94L334.05,227.23z"/>
			<linearGradient id="SVGID_5_" gradientUnits="userSpaceOnUse" x1="257.0122" y1="226.1401" x2="288.8486" y2="226.1401">
				<stop  offset="4.102400e-07" style="stop-color:#F9A134"/>
				<stop  offset="1" style="stop-color:#F15722"/>
			</linearGradient>
			<path class="st4" d="M257.01,245.49c0.23,6.64,9.8,6.63,10.03,0v-11.81c2.12-0.01,4.41-0.02,5.75-0.02
				c21.41-0.88,21.4-30.98,0-31.85h-10.77c-2.7-0.05-5.08,2.33-5.01,5.03V245.49z M272.79,211.84c3.31,0,6.11,2.7,6.11,5.9
				s-2.8,5.9-6.11,5.9c-1.33,0-3.6,0.01-5.7,0.02c-0.03-4.97-0.02-6.69-0.03-11.82L272.79,211.84L272.79,211.84z"/>
			<linearGradient id="SVGID_6_" gradientUnits="userSpaceOnUse" x1="146.7624" y1="151.4024" x2="206.2592" y2="151.4024">
				<stop  offset="4.102400e-07" style="stop-color:#F9A134"/>
				<stop  offset="1" style="stop-color:#F15722"/>
			</linearGradient>
			<path class="st5" d="M155.79,129.01c-4.98,0-9.02,4.05-9.02,9.02v26.74c0,4.98,4.05,9.02,9.02,9.02h41.45
				c4.98,0,9.02-4.05,9.02-9.02v-26.74c0-4.98-4.05-9.02-9.02-9.02H155.79z M196.23,163.77h-39.44v-24.73h39.44V163.77z"/>
			<linearGradient id="SVGID_7_" gradientUnits="userSpaceOnUse" x1="239.286" y1="150.1115" x2="249.3135" y2="150.1115">
				<stop  offset="4.102400e-07" style="stop-color:#F9A134"/>
				<stop  offset="1" style="stop-color:#F15722"/>
			</linearGradient>
			<path class="st6" d="M239.29,146.1v8.02c0.23,6.64,9.8,6.63,10.03,0v-8.02C249.08,139.46,239.51,139.47,239.29,146.1z"/>
			<linearGradient id="SVGID_8_" gradientUnits="userSpaceOnUse" x1="321.9812" y1="150.1298" x2="332.0088" y2="150.1298">
				<stop  offset="4.102400e-07" style="stop-color:#F9A134"/>
				<stop  offset="1" style="stop-color:#F15722"/>
			</linearGradient>
			<path class="st7" d="M327,159.14c2.77,0,5.01-2.24,5.01-5.01v-8.02c-0.23-6.64-9.8-6.63-10.03,0v8.02
				C321.98,156.89,324.23,159.14,327,159.14z"/>
			<linearGradient id="SVGID_9_" gradientUnits="userSpaceOnUse" x1="339.8544" y1="150.1117" x2="349.8819" y2="150.1117">
				<stop  offset="4.102400e-07" style="stop-color:#F9A134"/>
				<stop  offset="1" style="stop-color:#F15722"/>
			</linearGradient>
			<path class="st8" d="M349.88,154.12v-8.02c-0.23-6.64-9.8-6.63-10.03,0v8.02C340.08,160.76,349.65,160.76,349.88,154.12z"/>
			<linearGradient id="SVGID_10_" gradientUnits="userSpaceOnUse" x1="265.2366" y1="150.1117" x2="275.2642" y2="150.1117">
				<stop  offset="4.102400e-07" style="stop-color:#F9A134"/>
				<stop  offset="1" style="stop-color:#F15722"/>
			</linearGradient>
			<path class="st9" d="M275.26,154.12v-8.02c-0.23-6.64-9.8-6.63-10.03,0v8.02C265.47,160.76,275.04,160.76,275.26,154.12z"/>
			<linearGradient id="SVGID_11_" gradientUnits="userSpaceOnUse" x1="284.18" y1="150.1298" x2="294.2076" y2="150.1298">
				<stop  offset="4.102400e-07" style="stop-color:#F9A134"/>
				<stop  offset="1" style="stop-color:#F15722"/>
			</linearGradient>
			<path class="st10" d="M289.19,159.14c2.77,0,5.01-2.24,5.01-5.01v-8.02c-0.23-6.64-9.8-6.63-10.03,0v8.02
				C284.18,156.89,286.42,159.14,289.19,159.14z"/>
		</g>
	</g>
</g>
</svg>
