<svg width="39" height="35" viewBox="0 0 39 35" fill="none" xmlns="http://www.w3.org/2000/svg">
<path d="M26.4475 11.2728H12.553C11.0689 11.2728 9.8616 12.3564 9.8616 13.6882V20.1442C9.8616 21.476 11.069 22.5595 12.553 22.5595H26.4474C27.9315 22.5595 29.1388 21.4759 29.1388 20.1442V13.6882C29.1389 12.3564 27.9315 11.2728 26.4475 11.2728V11.2728ZM27.6154 20.1442C27.6154 20.7222 27.0915 21.1924 26.4475 21.1924H12.553C11.9089 21.1924 11.385 20.7222 11.385 20.1442V13.6882C11.385 13.1103 11.9089 12.6401 12.553 12.6401H26.4474C27.0915 12.6401 27.6154 13.1103 27.6154 13.6882V20.1442H27.6154Z" fill="white" fill-opacity="0.85"/>
<path d="M20.3206 14.7522C20.318 14.746 20.3152 14.7397 20.3124 14.7335C20.179 14.4424 19.8663 14.2545 19.5157 14.2545H19.5147C19.1638 14.2548 18.8511 14.4434 18.7181 14.7349C18.7158 14.7401 18.7135 14.7453 18.7113 14.7505L17.0559 18.6511C16.9062 19.0039 17.1035 19.3988 17.4967 19.5332C17.5859 19.5637 17.6775 19.5781 17.7676 19.5781C18.0746 19.5781 18.3639 19.4104 18.4796 19.1376L18.705 18.6065H20.3131L20.5357 19.1357C20.6842 19.489 21.1236 19.6672 21.5173 19.5339C21.9109 19.4006 22.1095 19.0062 21.961 18.653L20.3206 14.7522ZM19.2852 17.2394L19.5127 16.7032L19.7382 17.2394H19.2852Z" fill="white" fill-opacity="0.85"/>
<path d="M25.6309 14.3752C25.2783 14.1693 24.8064 14.2587 24.5769 14.5751L23.8177 15.6218L23.0483 14.5643C22.8184 14.2481 22.3462 14.1591 21.9941 14.3656C21.6418 14.5721 21.5428 14.9956 21.7727 15.3117L23.0564 17.076L23.0514 18.8927C23.0504 19.2702 23.3906 19.577 23.8113 19.5779H23.8132C24.233 19.5779 24.5739 19.273 24.575 18.896L24.5799 17.077L25.8537 15.3209C26.0832 15.0046 25.9835 14.5811 25.6309 14.3752V14.3752Z" fill="white" fill-opacity="0.85"/>
<path d="M15.0125 14.2545H13.7849C13.7785 14.2545 13.7721 14.2545 13.7658 14.2547C13.7597 14.2548 13.7535 14.255 13.7473 14.2553C13.7472 14.2553 13.7472 14.2553 13.7472 14.2553C13.5791 14.2627 13.4255 14.3189 13.3033 14.4085C13.3026 14.409 13.3019 14.4095 13.3012 14.41C13.2977 14.4126 13.2942 14.4152 13.2907 14.4179C13.2894 14.4189 13.2881 14.4199 13.2868 14.4209C13.2849 14.4223 13.283 14.4239 13.2812 14.4254C13.269 14.435 13.2571 14.445 13.2455 14.4554C13.2383 14.4619 13.2312 14.4686 13.2244 14.4753C13.2232 14.4766 13.2219 14.4777 13.2207 14.4789C13.2184 14.4812 13.2161 14.4835 13.2139 14.4858C13.212 14.4878 13.21 14.4897 13.2081 14.4917C13.2063 14.4936 13.2044 14.4956 13.2026 14.4975C13.2004 14.4999 13.1981 14.5023 13.1959 14.5047C13.1945 14.5062 13.1932 14.5077 13.1918 14.5092C13.1891 14.5122 13.1865 14.5151 13.1839 14.5181C13.1831 14.5191 13.1823 14.5201 13.1814 14.5211C13.1783 14.5247 13.1752 14.5284 13.1721 14.5321C13.1719 14.5323 13.1718 14.5325 13.1715 14.5328C13.0886 14.6338 13.0359 14.756 13.0254 14.8887C13.0253 14.8897 13.0252 14.8908 13.0251 14.8918C13.0248 14.8963 13.0245 14.9007 13.0243 14.9051C13.0241 14.9075 13.0241 14.9099 13.024 14.9123C13.0238 14.9155 13.0237 14.9186 13.0236 14.9217C13.0235 14.9252 13.0235 14.9287 13.0235 14.9321C13.0235 14.9341 13.0234 14.936 13.0234 14.938V18.8943C13.0234 19.2718 13.3644 19.5779 13.7851 19.5779C14.2058 19.5779 14.5468 19.2718 14.5468 18.8943V17.8558C14.7267 17.855 14.8994 17.8545 15.0126 17.8545C16.132 17.8545 17.0427 17.0469 17.0427 16.0544C17.0427 15.0618 16.132 14.2545 15.0125 14.2545V14.2545ZM15.0125 16.4874C14.9001 16.4874 14.7296 16.488 14.5512 16.4887C14.5503 16.3207 14.5497 16.1592 14.5497 16.0546C14.5497 15.9643 14.5493 15.7985 14.5489 15.6216H15.0125C15.2871 15.6216 15.5191 15.8199 15.5191 16.0546C15.5191 16.2892 15.2871 16.4874 15.0125 16.4874Z" fill="white" fill-opacity="0.85"/>
<path d="M28.6648 0H10.3347C8.30665 0 6.65677 1.47513 6.65677 3.28822V31.7056C6.65677 33.5221 8.30353 35 10.3277 35H28.6718C30.696 35 32.3428 33.5221 32.3428 31.7056V3.28822C32.3427 1.47513 30.6928 0 28.6648 0V0ZM8.18021 3.28822C8.18021 2.22893 9.14668 1.36719 10.3347 1.36719H28.6649C29.8529 1.36719 30.8193 2.22893 30.8193 3.28822V28.1755H8.18021V3.28822ZM30.8193 31.7056C30.8193 32.7682 29.8559 33.6328 28.6717 33.6328H10.3276C9.14355 33.6328 8.18013 32.7683 8.18013 31.7056V29.5427H30.8193V31.7056Z" fill="white" fill-opacity="0.85"/>
<path d="M18.9918 32.2714H20.0074C20.4281 32.2714 20.7691 31.9654 20.7691 31.5878C20.7691 31.2103 20.4281 30.9042 20.0074 30.9042H18.9918C18.5711 30.9042 18.23 31.2103 18.23 31.5878C18.23 31.9654 18.5711 32.2714 18.9918 32.2714Z" fill="white" fill-opacity="0.85"/>
<path d="M15.8828 4.07111H23.1176C23.5383 4.07111 23.8793 3.76506 23.8793 3.38751C23.8793 3.00996 23.5383 2.70392 23.1176 2.70392H15.8828C15.4621 2.70392 15.1211 3.00996 15.1211 3.38751C15.1211 3.76506 15.4621 4.07111 15.8828 4.07111V4.07111Z" fill="white" fill-opacity="0.85"/>
</svg>
