<?xml version="1.0" encoding="utf-8"?>
<!-- Generator: Adobe Illustrator 25.0.0, SVG Export Plug-In . SVG Version: 6.00 Build 0)  -->
<svg version="1.1" id="Layer_1" xmlns="http://www.w3.org/2000/svg" xmlns:xlink="http://www.w3.org/1999/xlink" x="0px" y="0px"
	 viewBox="0 0 455.2 441.89" style="enable-background:new 0 0 455.2 441.89;" xml:space="preserve">
<style type="text/css">
	.st0{fill:url(#SVGID_1_);}
	.st1{fill:url(#SVGID_2_);}
	.st2{fill:url(#SVGID_3_);}
	.st3{fill:url(#SVGID_4_);}
	.st4{fill:url(#SVGID_5_);}
	.st5{fill:url(#SVGID_6_);}
	.st6{fill:url(#SVGID_7_);}
	.st7{fill:url(#SVGID_8_);}
	.st8{fill:url(#SVGID_9_);}
	.st9{fill:url(#SVGID_10_);}
	.st10{fill:url(#SVGID_11_);}
	.st11{fill:url(#SVGID_12_);}
	.st12{fill:url(#SVGID_13_);}
	.st13{fill:url(#SVGID_14_);}
	.st14{fill:url(#SVGID_15_);}
	.st15{fill:url(#SVGID_16_);}
	.st16{fill:url(#SVGID_17_);}
	.st17{fill:url(#SVGID_18_);}
	.st18{fill:url(#SVGID_19_);}
	.st19{fill:url(#SVGID_20_);}
</style>
<g id="Icon_Relax">
	<g>
		<g>
			<linearGradient id="SVGID_1_" gradientUnits="userSpaceOnUse" x1="373.8752" y1="79.6164" x2="384.3438" y2="79.6164">
				<stop  offset="4.102400e-07" style="stop-color:#F9A134"/>
				<stop  offset="1" style="stop-color:#F15722"/>
			</linearGradient>
			<rect x="373.88" y="74.38" class="st0" width="10.47" height="10.47"/>
		</g>
	</g>
	<g>
		<g>
			<linearGradient id="SVGID_2_" gradientUnits="userSpaceOnUse" x1="363.4067" y1="69.1485" x2="373.8752" y2="69.1485">
				<stop  offset="4.102400e-07" style="stop-color:#F9A134"/>
				<stop  offset="1" style="stop-color:#F15722"/>
			</linearGradient>
			<rect x="363.41" y="63.91" class="st1" width="10.47" height="10.47"/>
		</g>
	</g>
	<g>
		<g>
			<linearGradient id="SVGID_3_" gradientUnits="userSpaceOnUse" x1="352.9381" y1="79.6164" x2="363.4067" y2="79.6164">
				<stop  offset="4.102400e-07" style="stop-color:#F9A134"/>
				<stop  offset="1" style="stop-color:#F15722"/>
			</linearGradient>
			<rect x="352.94" y="74.38" class="st2" width="10.47" height="10.47"/>
		</g>
	</g>
	<g>
		<g>
			<linearGradient id="SVGID_4_" gradientUnits="userSpaceOnUse" x1="363.4067" y1="90.0849" x2="373.8752" y2="90.0849">
				<stop  offset="4.102400e-07" style="stop-color:#F9A134"/>
				<stop  offset="1" style="stop-color:#F15722"/>
			</linearGradient>
			<rect x="363.41" y="84.85" class="st3" width="10.47" height="10.47"/>
		</g>
	</g>
	<g>
		<g>
			<linearGradient id="SVGID_5_" gradientUnits="userSpaceOnUse" x1="332.001" y1="79.6164" x2="342.4695" y2="79.6164">
				<stop  offset="4.102400e-07" style="stop-color:#F9A134"/>
				<stop  offset="1" style="stop-color:#F15722"/>
			</linearGradient>
			<rect x="332" y="74.38" class="st4" width="10.47" height="10.47"/>
		</g>
	</g>
	<g>
		<g>
			<linearGradient id="SVGID_6_" gradientUnits="userSpaceOnUse" x1="321.5324" y1="184.3019" x2="332.001" y2="184.3019">
				<stop  offset="4.102400e-07" style="stop-color:#F9A134"/>
				<stop  offset="1" style="stop-color:#F15722"/>
			</linearGradient>
			<rect x="321.53" y="179.07" class="st5" width="10.47" height="10.47"/>
		</g>
	</g>
	<g>
		<g>
			<linearGradient id="SVGID_7_" gradientUnits="userSpaceOnUse" x1="342.4695" y1="184.3019" x2="352.9381" y2="184.3019">
				<stop  offset="4.102400e-07" style="stop-color:#F9A134"/>
				<stop  offset="1" style="stop-color:#F15722"/>
			</linearGradient>
			<rect x="342.47" y="179.07" class="st6" width="10.47" height="10.47"/>
		</g>
	</g>
	<g>
		<g>
			<linearGradient id="SVGID_8_" gradientUnits="userSpaceOnUse" x1="332.001" y1="173.8334" x2="342.4695" y2="173.8334">
				<stop  offset="4.102400e-07" style="stop-color:#F9A134"/>
				<stop  offset="1" style="stop-color:#F15722"/>
			</linearGradient>
			<rect x="332" y="168.6" class="st7" width="10.47" height="10.47"/>
		</g>
	</g>
	<g>
		<g>
			<linearGradient id="SVGID_9_" gradientUnits="userSpaceOnUse" x1="332.001" y1="194.7705" x2="342.4695" y2="194.7705">
				<stop  offset="4.102400e-07" style="stop-color:#F9A134"/>
				<stop  offset="1" style="stop-color:#F15722"/>
			</linearGradient>
			<rect x="332" y="189.54" class="st8" width="10.47" height="10.47"/>
		</g>
	</g>
	<g>
		<g>
			<linearGradient id="SVGID_10_" gradientUnits="userSpaceOnUse" x1="127.8707" y1="168.5991" x2="138.3392" y2="168.5991">
				<stop  offset="4.102400e-07" style="stop-color:#F9A134"/>
				<stop  offset="1" style="stop-color:#F15722"/>
			</linearGradient>
			<rect x="127.87" y="163.36" class="st9" width="10.47" height="10.47"/>
		</g>
	</g>
	<g>
		<g>
			<linearGradient id="SVGID_11_" gradientUnits="userSpaceOnUse" x1="117.4021" y1="158.1306" x2="127.8707" y2="158.1306">
				<stop  offset="4.102400e-07" style="stop-color:#F9A134"/>
				<stop  offset="1" style="stop-color:#F15722"/>
			</linearGradient>
			<rect x="117.4" y="152.9" class="st10" width="10.47" height="10.47"/>
		</g>
	</g>
	<g>
		<g>
			<linearGradient id="SVGID_12_" gradientUnits="userSpaceOnUse" x1="106.927" y1="168.5991" x2="117.3956" y2="168.5991">
				<stop  offset="4.102400e-07" style="stop-color:#F9A134"/>
				<stop  offset="1" style="stop-color:#F15722"/>
			</linearGradient>
			<rect x="106.93" y="163.36" class="st11" width="10.47" height="10.47"/>
		</g>
	</g>
	<g>
		<g>
			<linearGradient id="SVGID_13_" gradientUnits="userSpaceOnUse" x1="117.4021" y1="179.0677" x2="127.8707" y2="179.0677">
				<stop  offset="4.102400e-07" style="stop-color:#F9A134"/>
				<stop  offset="1" style="stop-color:#F15722"/>
			</linearGradient>
			<rect x="117.4" y="173.83" class="st12" width="10.47" height="10.47"/>
		</g>
	</g>
	<g>
		<g>
			<linearGradient id="SVGID_14_" gradientUnits="userSpaceOnUse" x1="85.9899" y1="168.5991" x2="96.4585" y2="168.5991">
				<stop  offset="4.102400e-07" style="stop-color:#F9A134"/>
				<stop  offset="1" style="stop-color:#F15722"/>
			</linearGradient>
			<rect x="85.99" y="163.36" class="st13" width="10.47" height="10.47"/>
		</g>
	</g>
	<g>
		<g>
			<linearGradient id="SVGID_15_" gradientUnits="userSpaceOnUse" x1="70.2904" y1="100.5535" x2="80.7589" y2="100.5535">
				<stop  offset="4.102400e-07" style="stop-color:#F9A134"/>
				<stop  offset="1" style="stop-color:#F15722"/>
			</linearGradient>
			<rect x="70.29" y="95.32" class="st14" width="10.47" height="10.47"/>
		</g>
	</g>
	<g>
		<g>
			<linearGradient id="SVGID_16_" gradientUnits="userSpaceOnUse" x1="91.2242" y1="100.5535" x2="101.6928" y2="100.5535">
				<stop  offset="4.102400e-07" style="stop-color:#F9A134"/>
				<stop  offset="1" style="stop-color:#F15722"/>
			</linearGradient>
			<rect x="91.22" y="95.32" class="st15" width="10.47" height="10.47"/>
		</g>
	</g>
	<g>
		<g>
			<linearGradient id="SVGID_17_" gradientUnits="userSpaceOnUse" x1="80.7557" y1="90.0849" x2="91.2242" y2="90.0849">
				<stop  offset="4.102400e-07" style="stop-color:#F9A134"/>
				<stop  offset="1" style="stop-color:#F15722"/>
			</linearGradient>
			<rect x="80.76" y="84.85" class="st16" width="10.47" height="10.47"/>
		</g>
	</g>
	<g>
		<g>
			<linearGradient id="SVGID_18_" gradientUnits="userSpaceOnUse" x1="80.7557" y1="111.0221" x2="91.2242" y2="111.0221">
				<stop  offset="4.102400e-07" style="stop-color:#F9A134"/>
				<stop  offset="1" style="stop-color:#F15722"/>
			</linearGradient>
			<rect x="80.76" y="105.79" class="st17" width="10.47" height="10.47"/>
		</g>
	</g>
	<g>
		<g>
			<linearGradient id="SVGID_19_" gradientUnits="userSpaceOnUse" x1="143.5735" y1="69.1485" x2="154.0421" y2="69.1485">
				<stop  offset="4.102400e-07" style="stop-color:#F9A134"/>
				<stop  offset="1" style="stop-color:#F15722"/>
			</linearGradient>
			<rect x="143.57" y="63.91" class="st18" width="10.47" height="10.47"/>
		</g>
	</g>
	<g>
		<g>
			<linearGradient id="SVGID_20_" gradientUnits="userSpaceOnUse" x1="101.6999" y1="220.9247" x2="352.9464" y2="220.9247">
				<stop  offset="4.102400e-07" style="stop-color:#F9A134"/>
				<stop  offset="1" style="stop-color:#F15722"/>
			</linearGradient>
			<path class="st19" d="M352.04,309.87c-2.23-6.26-8.16-10.43-14.8-10.42h-12.66l-18.74-32.8v-56.18
				c0-11.56-9.37-20.94-20.94-20.94v-68.05c1.06-30.74-22.99-56.52-53.73-57.58c-1.28-0.04-2.56-0.04-3.85,0
				c-35.99,0-56.53,29.56-57.58,57.38c0,0.07,0.04,0.13,0.04,0.2h-0.04v68.05c-11.56,0-20.94,9.37-20.94,20.94v56.18l-18.74,32.8
				H117.4c-8.65-0.02-15.68,6.98-15.7,15.63c-0.01,6.64,4.16,12.57,10.42,14.79c-7.56,8.55-6.76,21.6,1.78,29.16
				c3.09,2.73,6.92,4.48,11.01,5.01l101.7,13.87c0.47,0.06,0.95,0.06,1.42,0l101.7-13.87c11.31-1.48,19.29-11.85,17.81-23.16
				c-0.53-4.09-2.28-7.92-5.01-11.01C350.68,326.98,354.94,318.03,352.04,309.87z M227.32,74.38c24.86-1.15,45.95,18.07,47.11,42.93
				c0.06,1.39,0.06,2.79,0,4.18h-10.47c-14.45-0.02-26.15-11.72-26.17-26.17c0-2.89-2.34-5.23-5.24-5.23c-1.39,0-2.72,0.55-3.7,1.53
				c-12.98,13.03-29.85,21.46-48.06,24.03C183.67,92.12,203.62,74.43,227.32,74.38z M216.85,194.77v-22.39
				c3.41,0.94,6.93,1.42,10.47,1.45c3.54-0.03,7.06-0.53,10.47-1.48v22.42c0,2.89,2.34,5.23,5.23,5.23h10.47v6.69l-26.17,8.73
				l-26.17-8.73v-6.69h10.47C214.51,200.01,216.85,197.66,216.85,194.77z M186.45,125.25c15.54-2.87,30.12-9.59,42.4-19.54
				c4.62,15.54,18.9,26.21,35.11,26.24h2.28c-6.54,17.56-23.14,31.41-38.92,31.41C209.14,163.37,190.78,145.75,186.45,125.25z
				 M248.26,189.54v-21.38c11.56-6.5,20.73-16.54,26.17-28.63v50.01h-15.7H248.26z M180.21,139.54
				c5.41,12.12,14.59,22.16,26.17,28.64v21.35h-26.17V139.54z M190.68,200.01v10.47c0,2.25,1.44,4.25,3.58,4.96v0.01l31.41,10.47
				c1.07,0.36,2.24,0.36,3.31,0l31.41-10.47c2.14-0.71,3.58-2.71,3.58-4.97v-10.47h14.23l-23.55,94.22H200l-23.55-94.22H190.68z
				 M198.32,304.69h58l21.03,24.53l-50.03,6.83l-50.03-6.8L198.32,304.69z M164.97,327.54l-9.66-1.31l32.79-36.44l2.09,8.32
				L164.97,327.54z M264.48,298.11l2.09-8.32l32.79,36.44l-9.68,1.31L264.48,298.11z M112.16,315.16c0-2.89,2.34-5.23,5.23-5.23
				h15.7c1.87,0,3.61-0.99,4.54-2.62l20.94-36.64c0.46-0.8,0.69-1.7,0.69-2.62v-57.58c0-4.28,2.6-8.12,6.57-9.71l9.6,38.39
				l9.59,38.39l-38.56,42.85H117.4C114.51,320.39,112.16,318.05,112.16,315.16z M227.32,367.46l-100.99-13.78
				c-5.65-0.75-9.63-5.93-8.88-11.58c0.68-5.15,5.08-8.99,10.28-8.97c0.47,0,0.93,0.03,1.39,0.1l37.22,5.08l59.15,8.07l28.02,17.51
				L227.32,367.46z M328.31,353.68l-58.59,7.99l-27.37-17.11l45.92-6.28l37.22-5.08c5.65-0.79,10.87,3.14,11.66,8.79
				c0.07,0.48,0.1,0.97,0.1,1.45C337.22,348.61,333.41,352.96,328.31,353.68z M337.24,320.39h-29.08l-38.57-42.85l9.59-38.39
				l9.6-38.39c3.97,1.59,6.58,5.44,6.57,9.72v57.58c0,0.92,0.23,1.82,0.69,2.62l20.94,36.64c0.94,1.62,2.67,2.62,4.54,2.62h15.7
				c2.89,0,5.23,2.34,5.23,5.23S340.13,320.39,337.24,320.39z"/>
		</g>
	</g>
</g>
</svg>
