<svg width="24" height="23" viewBox="0 0 24 23" fill="none" xmlns="http://www.w3.org/2000/svg">
<path d="M8.85267 1.95679V4.47888H6.38275V18.0271H8.85267V20.406H10.1731V18.0271H12.0477V20.406H13.3682V17.9625C15.7994 17.6587 17.2259 16.2822 17.2259 14.187C17.2259 12.4216 15.928 11.1165 13.981 10.9291V10.7695C15.3989 10.5441 16.5071 9.27639 16.5071 7.85889C16.5071 6.10321 15.349 4.90992 13.3682 4.57629V1.95679H12.0477V4.47888H10.1731V1.95679H8.85267ZM8.61928 6.26278H11.6546C13.3115 6.26278 14.2805 6.99519 14.2805 8.24384C14.2805 9.52975 13.2523 10.2155 11.2752 10.2155H8.61928V6.26278ZM8.61928 11.8762H11.7245C13.8313 11.8762 14.9395 12.6193 14.9395 14.0368C14.9395 15.4735 13.871 16.2432 11.8543 16.2432H8.61928V11.8762Z" fill="black"/>
</svg>
