<svg width="24" height="23" viewBox="0 0 24 23" fill="none" xmlns="http://www.w3.org/2000/svg">
<path d="M12.2263 2.23657C7.04734 2.23657 2.84839 6.24173 2.84839 11.1816C2.84839 15.3732 5.87432 18.8804 9.9537 19.8509C9.90994 19.7302 9.88181 19.59 9.88181 19.4163V17.8875C9.50122 17.8875 8.86352 17.8875 8.70332 17.8875C8.06171 17.8875 7.49123 17.6243 7.21458 17.1353C6.90745 16.5919 6.85431 15.7608 6.09314 15.2524C5.86729 15.0832 6.03922 14.8901 6.29945 14.9162C6.78007 15.0459 7.17863 15.3605 7.55375 15.8271C7.9273 16.2945 8.10313 16.4004 8.801 16.4004C9.13939 16.4004 9.6458 16.3817 10.1225 16.3102C10.3788 15.6892 10.8219 15.1175 11.3635 14.8476C8.24068 14.5413 6.75037 13.0594 6.75037 11.0475C6.75037 10.1813 7.13721 9.34343 7.79444 8.63752C7.57875 7.93682 7.30758 6.50785 7.87728 5.96369C9.2824 5.96369 10.1319 6.83285 10.3359 7.06766C11.0361 6.83881 11.8051 6.70911 12.6131 6.70911C13.4227 6.70911 14.1949 6.83881 14.8966 7.06915C15.0983 6.83583 15.9485 5.96369 17.3568 5.96369C17.9288 6.50859 17.6545 7.94353 17.4365 8.64274C18.0898 9.34716 18.4743 10.1828 18.4743 11.0475C18.4743 13.0579 16.9863 14.539 13.8682 14.8469C14.7263 15.274 15.3522 16.4741 15.3522 17.3783V19.4163C15.3522 19.4939 15.3343 19.5498 15.3249 19.6161C18.9791 18.3944 21.6042 15.0847 21.6042 11.1816C21.6042 6.24173 17.4052 2.23657 12.2263 2.23657Z" fill="black"/>
</svg>
