<svg width="81" height="81" viewBox="0 0 81 81" fill="none" xmlns="http://www.w3.org/2000/svg">
<ellipse cx="40.6694" cy="40.1976" rx="39.9171" ry="40.1718" fill="white"/>
<g clip-path="url(#clip0)">
<path d="M36.101 22.1911H29.691C29.3519 22.1911 29.0771 22.4677 29.0771 22.809C29.0771 23.1502 29.3519 23.4269 29.691 23.4269H36.101C36.4402 23.4269 36.715 23.1502 36.715 22.809C36.715 22.4677 36.4402 22.1911 36.101 22.1911Z" fill="#FF972B"/>
<path d="M24.6596 23.4269H26.5278C26.8669 23.4269 27.1417 23.1502 27.1417 22.809C27.1417 22.4677 26.8669 22.1911 26.5278 22.1911H24.6596C24.3205 22.1911 24.0457 22.4677 24.0457 22.809C24.0457 23.1502 24.3205 23.4269 24.6596 23.4269V23.4269Z" fill="#FF972B"/>
<path d="M24.6596 26.3889H31.0695C31.4087 26.3889 31.6835 26.1122 31.6835 25.771C31.6835 25.4298 31.4087 25.1531 31.0695 25.1531H24.6596C24.3205 25.1531 24.0457 25.4298 24.0457 25.771C24.0457 26.1122 24.3205 26.3889 24.6596 26.3889V26.3889Z" fill="#FF972B"/>
<path d="M36.101 25.1531H34.2328C33.8936 25.1531 33.6188 25.4298 33.6188 25.771C33.6188 26.1122 33.8936 26.3889 34.2328 26.3889H36.101C36.4402 26.3889 36.715 26.1122 36.715 25.771C36.715 25.4298 36.4402 25.1531 36.101 25.1531Z" fill="#FF972B"/>
<path d="M57.7185 32.5242C56.3223 32.5242 55.1528 33.5186 54.8703 34.841H51.5164C51.4827 34.4981 51.4215 34.155 51.3308 33.8148C51.0944 32.9246 50.6773 32.115 50.1131 31.424L54.3297 27.1763C55.1045 27.9426 56.1272 28.3649 57.2149 28.3649C58.3168 28.3649 59.3522 27.9323 60.1298 27.1478C60.9092 26.364 61.3384 25.3212 61.3384 24.2116C61.3384 23.1019 60.9092 22.0592 60.1301 21.2757C59.3518 20.4918 58.3166 20.0601 57.2149 20.0601C56.1132 20.0601 55.078 20.4919 54.2998 21.2757C53.5205 22.0595 53.0914 23.1022 53.0914 24.2116C53.0914 24.9108 53.2622 25.5833 53.5831 26.1811C53.5791 26.1849 53.5749 26.1882 53.571 26.1921L49.2438 30.5511C48.9783 30.3323 48.6942 30.1324 48.391 29.9563C46.9328 29.109 45.2347 28.8844 43.6097 29.3236C42.7123 29.5653 41.9122 29.9918 41.2382 30.5511L39.2937 28.5924C39.5057 28.2654 39.6296 27.8753 39.6296 27.4564V21.1911C39.6295 20.0422 38.7013 19.1075 37.5604 19.1075H23.6266C22.4858 19.1075 21.5576 20.0422 21.5576 21.1911V27.4565C21.5576 28.6054 22.4858 29.5401 23.6266 29.5401H28.4653C28.8045 29.5401 29.0793 29.2635 29.0793 28.9223C29.0793 28.581 28.8045 28.3044 28.4653 28.3044H23.6266C23.1628 28.3044 22.7855 27.924 22.7855 27.4565V21.1911C22.7855 20.7236 23.1628 20.3432 23.6266 20.3432H37.5604C38.0243 20.3432 38.4016 20.7236 38.4016 21.1911V27.4565C38.4016 27.924 38.0243 28.3044 37.5604 28.3044H31.3013C30.9622 28.3044 30.6874 28.581 30.6874 28.9223C30.6874 29.2635 30.9622 29.5401 31.3013 29.5401H37.5604C37.8378 29.5401 38.1023 29.4845 38.3442 29.3844L40.3722 31.4274C39.2224 32.8408 38.6891 34.7334 39.045 36.6328L31.6879 40.9134C31.6873 40.9138 31.6869 40.9142 31.6863 40.9144C30.8202 39.8645 29.6575 39.1092 28.3212 38.7488C26.6156 38.2887 24.8341 38.5253 23.3054 39.4149C20.1484 41.252 19.0627 45.3326 20.8852 48.5106C21.7672 50.0523 23.1926 51.1547 24.8987 51.6152C25.4682 51.769 26.046 51.845 26.6202 51.845C27.7662 51.845 28.8976 51.5419 29.9168 50.9489C33.0471 49.1295 34.1396 45.1046 32.3823 41.937L39.4 37.8539C40.0573 39.4876 41.3473 40.7622 42.9944 41.3923V47.0827V47.41C42.9944 47.7215 42.9773 47.9498 42.9552 48.1146C41.7059 46.294 40.5556 44.9486 38.3448 45.3357C37.62 45.4646 37.0714 45.8853 36.8398 46.4902C36.6037 47.1069 36.7392 47.8152 37.2117 48.4366L42.3719 56.0613C43.3593 57.523 43.5259 58.4134 43.5259 59.8565C43.5259 60.6458 44.1647 61.2879 44.9498 61.2879H54.6227C55.4079 61.2879 56.0467 60.6458 56.0467 59.8565V57.3364C56.0467 56.4199 56.2367 56.0474 56.4997 55.5319C56.7799 54.9827 57.1287 54.2991 57.2778 52.9045C57.2801 52.8825 57.2813 52.8605 57.2813 52.8384V50.7226C57.2813 50.3814 57.0065 50.1047 56.6674 50.1047C56.3282 50.1047 56.0534 50.3814 56.0534 50.7226V52.8047C55.9272 53.9484 55.6629 54.4665 55.4073 54.9674C55.118 55.5347 54.8188 56.1211 54.8188 57.3363V59.8564C54.8188 59.9625 54.729 60.0521 54.6227 60.0521H44.9497C44.8435 60.0521 44.7538 59.9624 44.7538 59.8564C44.7538 58.2201 44.5424 57.0764 43.3871 55.366L38.2165 47.726C38.2093 47.7155 38.2017 47.705 38.194 47.6949C37.9818 47.4199 37.9058 47.1427 37.9856 46.9345C38.0587 46.7435 38.2675 46.6043 38.5569 46.5528C39.9743 46.3044 40.7333 47.0416 42.0022 48.9006C42.0108 48.9133 42.0201 48.9257 42.0296 48.9377C42.4928 49.518 42.9562 49.7313 43.407 49.5717C43.9709 49.372 44.2223 48.7053 44.2223 47.4099V47.0826V35.6039C44.2223 34.7761 44.771 34.4824 45.2409 34.4824C45.7109 34.4824 46.2596 34.7761 46.2596 35.6039V46.2597C46.2596 46.601 46.5344 46.8776 46.8736 46.8776C47.2127 46.8776 47.4875 46.601 47.4875 46.2597V41.3152C47.4875 40.4874 48.0363 40.1937 48.5062 40.1937C48.6194 40.1937 48.7371 40.2113 48.8507 40.2488C48.8691 40.2567 48.8878 40.2637 48.9067 40.2697C49.2408 40.402 49.5249 40.72 49.5249 41.3152V47.085C49.5249 47.4262 49.7997 47.7029 50.1388 47.7029C50.478 47.7029 50.7528 47.4262 50.7528 47.085V42.7156C50.7528 41.8878 51.3015 41.5941 51.7715 41.5941C52.2414 41.5941 52.7901 41.8878 52.7901 42.7156V47.9102C52.7901 48.2514 53.0649 48.5281 53.404 48.5281C53.7432 48.5281 54.018 48.2514 54.018 47.9102V44.1159C54.018 43.2875 54.5658 42.9936 55.035 42.9936C55.3014 42.9936 55.557 43.0909 55.736 43.2606C55.9464 43.46 56.0531 43.7478 56.0531 44.1159V47.868C56.0531 48.2093 56.3279 48.4859 56.667 48.4859C57.0062 48.4859 57.281 48.2093 57.281 47.868V44.1159C57.281 42.5677 56.1511 41.7577 55.0349 41.7577C54.6555 41.7577 54.2748 41.8516 53.9372 42.0361C53.66 40.9319 52.7109 40.3583 51.7713 40.3583C51.3915 40.3583 51.0102 40.4522 50.6722 40.6368C50.5604 40.1909 50.3392 39.8316 50.0533 39.5615C50.891 38.5654 51.3948 37.3487 51.5176 36.0768H54.8701C55.1528 37.3979 56.3222 38.3913 57.7183 38.3913C59.3237 38.3913 60.6298 37.0759 60.6298 35.4589C60.63 33.8407 59.3239 32.5242 57.7185 32.5242V32.5242ZM55.1681 22.1496C55.1681 22.1495 55.1683 22.1493 55.1684 22.1493C55.7147 21.599 56.4415 21.2959 57.2149 21.2959C57.9884 21.2959 58.7152 21.599 59.2618 22.1496C59.8091 22.7 60.1105 23.4323 60.1105 24.2116C60.1105 24.991 59.809 25.7234 59.261 26.2744C58.7149 26.8256 57.9882 27.1292 57.2149 27.1292C56.4417 27.1292 55.715 26.8257 55.1681 26.2738C54.6207 25.7234 54.3193 24.9911 54.3193 24.2117C54.3193 23.4324 54.6207 22.6999 55.1681 22.1496V22.1496ZM29.3025 49.8789C29.3024 49.879 29.3023 49.879 29.3022 49.8791C28.0566 50.604 26.6056 50.7966 25.2168 50.4217C23.8278 50.0468 22.6674 49.1492 21.949 47.8936C20.4645 45.3047 21.3486 41.9811 23.92 40.4847C24.7493 40.0022 25.6698 39.7556 26.6027 39.7556C27.0698 39.7556 27.5401 39.8175 28.0034 39.9425C29.3931 40.3173 30.5544 41.215 31.2732 42.4703C32.7587 45.0608 31.8746 48.3842 29.3025 49.8789ZM50.3191 35.4686C50.3181 36.7685 49.8235 38.0313 48.911 38.9938C48.7772 38.9701 48.6417 38.958 48.5063 38.958C48.1563 38.958 47.805 39.0377 47.4876 39.1945V35.6039C47.4876 34.0563 46.3574 33.2467 45.241 33.2467C44.1246 33.2467 42.9945 34.0563 42.9945 35.6039V40.0464C41.6902 39.4022 40.7212 38.2286 40.3351 36.7815C39.6112 34.056 41.2227 31.246 43.9279 30.5173C45.2361 30.1637 46.6032 30.3444 47.7771 31.0266C48.9531 31.7098 49.7939 32.8133 50.1448 34.1345C50.2605 34.5683 50.3178 35.008 50.3195 35.4438C50.3194 35.4489 50.3188 35.4538 50.3188 35.4589C50.3187 35.4622 50.3191 35.4653 50.3191 35.4686V35.4686ZM57.7185 37.1555C56.7889 37.1555 56.0326 36.3945 56.0326 35.4589C56.0326 34.5221 56.7888 33.76 57.7185 33.76C58.6469 33.76 59.4021 34.5221 59.4021 35.4589C59.4021 36.3944 58.6469 37.1555 57.7185 37.1555V37.1555Z" fill="#FF972B"/>
<path d="M27.4163 42.1574C26.6145 41.9409 25.7763 42.0519 25.0555 42.4706C23.5713 43.3345 23.0615 45.2536 23.9191 46.7486C24.3345 47.4728 25.0049 47.9907 25.8068 48.2069C26.0744 48.279 26.3459 48.3147 26.6158 48.3147C27.1548 48.3147 27.6872 48.1723 28.167 47.8936C28.167 47.8935 28.1672 47.8934 28.1674 47.8933C29.651 47.0299 30.1609 45.1117 29.3041 43.6181C28.8887 42.8927 28.2184 42.374 27.4163 42.1574V42.1574ZM27.5526 46.8236C27.1169 47.0767 26.6096 47.1441 26.1246 47.0132C25.6395 46.8825 25.234 46.569 24.9826 46.1308C24.4632 45.2254 24.7718 44.0633 25.6699 43.5406C25.9604 43.3718 26.2824 43.2856 26.6086 43.2856C26.7719 43.2856 26.9363 43.3072 27.098 43.3509C27.5831 43.4819 27.9887 43.7959 28.2403 44.2355C28.7591 45.1399 28.4506 46.3009 27.5526 46.8236V46.8236Z" fill="#FF972B"/>
</g>
<defs>
<clipPath id="clip0">
<rect width="41.913" height="42.1804" fill="white" transform="translate(19.7135 19.1075)"/>
</clipPath>
</defs>
</svg>
