<svg width="16" height="14" viewBox="0 0 16 14" fill="none" xmlns="http://www.w3.org/2000/svg">
<g clip-path="url(#clip0)">
<path d="M2.5792 0.710907C1.54623 0.710907 0.87085 1.34288 0.87085 2.17353C0.87085 2.98583 1.52611 3.63583 2.53956 3.63583H2.55916C3.61234 3.63583 4.26777 2.98583 4.26777 2.17353C4.24808 1.34288 3.61234 0.710907 2.5792 0.710907Z" fill="white"/>
<path d="M1.04932 4.79153H4.06912V13.2563H1.04932V4.79153Z" fill="white"/>
<path d="M11.4813 4.59286C9.85226 4.59286 8.75988 6.01912 8.75988 6.01912V4.79153H5.73999V13.2563H8.75971V8.52925C8.75971 8.27619 8.7794 8.02352 8.85919 7.84256C9.07749 7.33723 9.57429 6.81372 10.4086 6.81372C11.5013 6.81372 11.9383 7.58997 11.9383 8.72792V13.2563H14.9579V8.40276C14.9579 5.80275 13.468 4.59286 11.4813 4.59286Z" fill="white"/>
</g>
<defs>
<clipPath id="clip0">
<rect width="15.0262" height="14" fill="white" transform="translate(0.408691)"/>
</clipPath>
</defs>
</svg>
