<svg width="17" height="16" viewBox="0 0 17 16" fill="none" xmlns="http://www.w3.org/2000/svg">
<g clip-path="url(#clip0)">
<path d="M13.5013 0.727295H3.73265C2.11472 0.727295 0.802063 1.97937 0.802063 3.52263V12.8404C0.802063 14.3837 2.11472 15.6358 3.73265 15.6358H13.5013C15.1192 15.6358 16.4319 14.3837 16.4319 12.8404V3.52263C16.4319 1.97937 15.1192 0.727295 13.5013 0.727295ZM5.63472 13.3825H3.20665L3.19256 6.44788H5.62063L5.63472 13.3825ZM4.35963 5.54074H4.34554C3.55184 5.54074 3.03993 5.01885 3.03993 4.3693C3.03993 3.70406 3.56828 3.20009 4.37607 3.20009C5.18386 3.20009 5.67934 3.70406 5.69577 4.3693C5.69577 5.01885 5.18151 5.54074 4.35963 5.54074ZM14.0531 13.3825H11.6039V9.61503C11.6039 8.70341 11.3503 8.08297 10.4956 8.08297C9.84275 8.08297 9.49051 8.50182 9.32144 8.90724C9.25804 9.05283 9.2416 9.25217 9.2416 9.456V13.3825H6.78066L6.76657 6.44788H9.22751L9.2416 7.42669C9.55627 6.96304 10.0799 6.30677 11.3339 6.30677C12.8884 6.30677 14.0508 7.27438 14.0508 9.35521V13.3825H14.0531Z" fill="black"/>
</g>
<defs>
<clipPath id="clip0">
<rect width="15.6298" height="14.9085" fill="white" transform="translate(0.802063 0.727295)"/>
</clipPath>
</defs>
</svg>
