<svg width="126" height="44" viewBox="0 0 126 44" fill="none" xmlns="http://www.w3.org/2000/svg">
<path d="M29.0359 0.908447C19.8349 0.908447 12.3809 7.89692 12.3809 16.5233C12.3809 20.2359 13.7785 23.621 16.0496 26.2962L1.60758 39.3996C0.501126 40.437 0.442892 42.0749 1.54934 43.1668C2.65579 44.2042 4.40282 44.2588 5.5675 43.2214L20.359 29.7905C22.9213 31.2646 25.8912 32.1382 29.0941 32.1382C38.2951 32.1382 45.7491 25.1497 45.7491 16.5233C45.6908 7.89692 38.2369 0.908447 29.0359 0.908447ZM31.2488 28.6439C30.55 28.7531 29.7929 28.8077 29.0941 28.8077C21.8731 28.8077 15.9914 23.2934 15.9914 16.5233C15.9914 9.75323 21.8731 4.23889 29.0941 4.23889C32.8793 4.23889 36.2569 5.71302 38.6445 8.1153L27.5218 16.5233H31.2488V28.6439ZM40.3333 22.4744H37.0722V16.2503H42.0803V16.3049C42.0803 18.5434 41.4397 20.6727 40.3333 22.4744Z" fill="url(#paint0_linear)"/>
<path d="M63.1026 23.6209C63.5103 24.1669 63.7432 24.8221 63.7432 25.6956C63.7432 26.7876 63.3938 27.6066 62.6368 28.2071C61.8797 28.8077 60.8897 29.1353 59.6086 29.1353H54.7169V17.0146H58.7933C59.958 17.0146 60.8897 17.2876 61.5303 17.779C62.1709 18.2704 62.5203 19.0348 62.5203 20.0175C62.5203 20.6181 62.4038 21.1095 62.1709 21.5462C61.938 21.983 61.6468 22.3106 61.1809 22.5836C62.0544 22.7474 62.695 23.075 63.1026 23.6209ZM56.5222 22.0376H58.6186C59.3174 22.0376 59.8415 21.9284 60.1909 21.6554C60.5403 21.3824 60.715 20.9457 60.715 20.2359C60.715 19.5807 60.5403 19.0894 60.1909 18.8164C59.8415 18.5434 59.3174 18.4342 58.6186 18.4342H56.5222V22.0376ZM61.2391 27.1152C61.6468 26.7876 61.8797 26.2962 61.8797 25.5864C61.8797 24.2215 61.1227 23.5117 59.5504 23.5117H56.5804V27.6611H59.5504C60.2492 27.6611 60.8315 27.4974 61.2391 27.1152Z" fill="#FE5504"/>
<path d="M67.8196 17.0146H75.6812V18.4888H69.5666V22.0376H74.4583V23.5117H69.5666V27.6611H75.8559V29.1353H67.8196V17.0146Z" fill="#FE5504"/>
<path d="M81.4463 29.1359C80.631 28.9721 80.0486 28.8083 79.5245 28.5899L79.7575 26.8428C80.398 27.1158 81.0969 27.3888 81.8539 27.5526C82.6109 27.771 83.4262 27.8802 84.1833 27.8802C85.0568 27.8802 85.6974 27.7164 86.1632 27.4434C86.6291 27.1704 86.862 26.7336 86.862 26.133C86.862 25.6963 86.7456 25.3141 86.5126 25.0411C86.2797 24.7681 85.9303 24.4951 85.4644 24.2767C84.9985 24.0583 84.358 23.8399 83.5427 23.6216C82.7274 23.4032 82.0286 23.1302 81.4463 22.8572C80.8639 22.5842 80.4563 22.202 80.1069 21.7652C79.7575 21.3285 79.5828 20.7279 79.5828 20.0181C79.5828 19.0354 79.9904 18.271 80.8057 17.6704C81.621 17.0699 82.7274 16.7969 84.1833 16.7969C84.9985 16.7969 85.6974 16.8515 86.4544 17.0153C87.1532 17.1791 87.7938 17.3974 88.3179 17.6158L88.1432 19.363C87.4444 18.9808 86.8038 18.7078 86.1632 18.544C85.5226 18.3802 84.8821 18.271 84.1833 18.271C83.368 18.271 82.7274 18.4348 82.2615 18.7078C81.7957 18.9808 81.5627 19.4176 81.5627 19.9635C81.5627 20.3457 81.6792 20.6733 81.9121 20.9463C82.1451 21.2193 82.4362 21.4377 82.8439 21.6014C83.2515 21.7652 83.8339 21.9836 84.5327 22.202C85.9885 22.6388 87.095 23.1302 87.7938 23.6762C88.4926 24.2221 88.842 25.0411 88.842 26.0238C88.842 27.0612 88.4344 27.9347 87.5608 28.4807C86.6873 29.0813 85.4644 29.3543 83.7756 29.3543C83.0186 29.4089 82.2615 29.2997 81.4463 29.1359Z" fill="#FE5504"/>
<path d="M95.4809 18.4888H91.6957V17.0146H100.955V18.4888H97.1697V29.1353H95.4227V18.4888H95.4809Z" fill="#FE5504"/>
<path d="M110.447 25.8594H105.497L104.275 29.1353H102.411L107.07 17.0146H108.933L113.592 29.1353H111.728L110.447 25.8594ZM109.923 24.3853L108.001 19.3077L106.08 24.3853H109.923Z" fill="#FE5504"/>
<path d="M125.18 17.0146L120.638 23.8939V29.1353H118.891V23.8939L114.349 17.0146H116.329L119.764 22.256L123.2 17.0146H125.18Z" fill="#FE5504"/>
<path d="M56.3477 35.9607C56.5224 36.1245 56.5806 36.3429 56.5806 36.5613C56.5806 36.8889 56.4642 37.1073 56.2312 37.3257C55.9983 37.5441 55.6489 37.5987 55.2413 37.5987H53.7272V33.7769H55.2413C55.6489 33.7769 55.9401 33.8861 56.173 34.0498C56.4059 34.2136 56.5224 34.432 56.5224 34.7596C56.5224 35.0326 56.4642 35.1964 56.2895 35.3602C56.173 35.524 55.9401 35.6332 55.7654 35.6332C55.9983 35.6332 56.173 35.7424 56.3477 35.9607ZM54.2513 35.4148H55.1248C55.3577 35.4148 55.5907 35.3602 55.7071 35.251C55.8236 35.1418 55.9401 34.978 55.9401 34.7596C55.9401 34.5412 55.8818 34.432 55.7071 34.2682C55.5907 34.159 55.3577 34.1044 55.0666 34.1044H54.193V35.4148H54.2513ZM55.8236 36.9981C55.9983 36.8889 56.0565 36.7251 56.0565 36.5067C56.0565 36.2883 55.9983 36.1245 55.8236 36.0153C55.6489 35.9062 55.4742 35.8516 55.183 35.8516H54.3095V37.2165H55.183C55.416 37.1619 55.6489 37.1073 55.8236 36.9981Z" fill="#6D6D6D"/>
<path d="M58.6768 34.1581V35.4684H60.2491V35.8506H58.6768V37.2155H60.4238V37.5977H58.1527V33.7759H60.4238V34.1581H58.6768V34.1581Z" fill="#6D6D6D"/>
<path d="M64.3841 37.1063C64.2676 37.2701 64.1511 37.3793 63.9764 37.4885C63.8017 37.5977 63.5688 37.6523 63.2776 37.6523C62.9865 37.6523 62.7535 37.5977 62.5788 37.4885C62.3459 37.3793 62.1712 37.2701 62.0547 37.1063C61.9383 36.9425 61.88 36.7787 61.8218 36.5604H62.4041C62.4041 36.6695 62.4624 36.7787 62.5206 36.8879C62.5788 36.9971 62.6953 37.0517 62.8118 37.1609C62.9282 37.2155 63.1029 37.2701 63.2776 37.2701C63.5106 37.2701 63.6853 37.2155 63.8017 37.1063C63.9182 36.9971 63.9764 36.8333 63.9764 36.6695C63.9764 36.5058 63.9182 36.3966 63.86 36.2874C63.7435 36.1782 63.6853 36.1236 63.5106 36.069C63.3941 36.0144 63.2194 35.9598 62.9865 35.9052C62.7535 35.8506 62.5206 35.7414 62.3459 35.6868C62.1712 35.6322 62.0547 35.523 61.9382 35.3592C61.8218 35.1954 61.7635 35.0316 61.7635 34.8132C61.7635 34.5948 61.8218 34.431 61.9382 34.2673C62.0547 34.1035 62.1712 33.9943 62.4041 33.8851C62.6371 33.7759 62.8118 33.7759 63.1029 33.7759C63.5106 33.7759 63.8017 33.8851 64.0929 34.0489C64.3259 34.2127 64.4423 34.4856 64.5006 34.7586H63.9182C63.86 34.5948 63.8017 34.4856 63.6853 34.3765C63.5688 34.2673 63.3941 34.2127 63.1029 34.2127C62.87 34.2127 62.6953 34.2673 62.5788 34.3765C62.4624 34.4856 62.4041 34.6494 62.4041 34.8132C62.4041 34.977 62.4624 35.0862 62.5206 35.1954C62.5788 35.3046 62.6953 35.3592 62.8118 35.4138C62.9282 35.4684 63.1029 35.523 63.3359 35.5776C63.627 35.6322 63.8017 35.7414 63.9764 35.796C64.1511 35.8506 64.2676 35.9598 64.3841 36.1236C64.5006 36.2874 64.5588 36.4512 64.5588 36.7241C64.5588 36.7787 64.5006 36.9425 64.3841 37.1063Z" fill="#6D6D6D"/>
<path d="M68.6353 33.7222V34.1044H67.4707V37.544H66.9465V34.1044H65.7819V33.7222H68.6353V33.7222Z" fill="#6D6D6D"/>
<path d="M75.5068 33.7222V37.544H74.9827V35.7423H72.8863V37.544H72.3622V33.7222H72.8863V35.3601H74.9827V33.7222H75.5068V33.7222Z" fill="#6D6D6D"/>
<path d="M80.1074 33.9395C80.3986 34.1033 80.6315 34.3217 80.8062 34.6493C80.9809 34.9222 81.0974 35.3044 81.0974 35.6866C81.0974 36.0688 80.9809 36.3964 80.8062 36.724C80.6315 37.0515 80.3986 37.2699 80.1074 37.4337C79.8162 37.5975 79.4668 37.7067 79.0592 37.7067C78.6516 37.7067 78.3604 37.5975 78.011 37.4337C77.7198 37.2699 77.4869 37.0515 77.3122 36.724C77.1375 36.451 77.021 36.0688 77.021 35.6866C77.021 35.3044 77.0792 34.9768 77.3122 34.6493C77.4869 34.3217 77.7198 34.1033 78.011 33.9395C78.3021 33.7757 78.6516 33.6665 79.0592 33.6665C79.4668 33.6665 79.8162 33.7757 80.1074 33.9395ZM78.3604 34.3217C78.1274 34.4309 77.9527 34.5947 77.8363 34.8676C77.7198 35.086 77.6616 35.359 77.6616 35.6866C77.6616 36.0142 77.7198 36.2326 77.8363 36.5056C77.9527 36.7786 78.1274 36.8877 78.3604 37.0515C78.5933 37.1607 78.8263 37.2153 79.1174 37.2153C79.4086 37.2153 79.6415 37.1607 79.8745 37.0515C80.1074 36.9423 80.2821 36.7786 80.3986 36.5056C80.515 36.2872 80.5733 36.0142 80.5733 35.6866C80.5733 35.359 80.515 35.1406 80.3986 34.8676C80.2821 34.6493 80.1074 34.4855 79.8745 34.3217C79.6415 34.1579 79.4086 34.1579 79.1174 34.1579C78.8263 34.1579 78.5933 34.2125 78.3604 34.3217Z" fill="#6D6D6D"/>
<path d="M86.804 33.8306V37.5978H86.2799V34.5949L84.9988 37.5978H84.5329L83.2518 34.5949V37.5978H82.7277V33.8306H83.3682L84.8241 36.9972L86.2217 33.8306H86.804V33.8306Z" fill="#6D6D6D"/>
<path d="M89.0756 34.1581V35.4684H90.6479V35.8506H89.0756V37.2155H90.8226V37.5977H88.5515V33.7759H90.8226V34.1581H89.0756V34.1581Z" fill="#6D6D6D"/>
<path d="M96.9954 33.7222V34.1044H95.1901V35.4147H96.7042V35.8515H95.1901V37.5986H94.666V33.7768H96.9954V33.7222Z" fill="#6D6D6D"/>
<path d="M101.421 33.9395C101.712 34.1033 101.945 34.3217 102.12 34.6493C102.295 34.9222 102.411 35.3044 102.411 35.6866C102.411 36.0688 102.295 36.3964 102.12 36.724C101.945 37.0515 101.712 37.2699 101.421 37.4337C101.13 37.5975 100.781 37.7067 100.373 37.7067C99.9654 37.7067 99.6742 37.5975 99.3248 37.4337C99.0336 37.2699 98.8007 37.0515 98.626 36.724C98.4513 36.451 98.3348 36.0688 98.3348 35.6866C98.3348 35.3044 98.3931 34.9768 98.626 34.6493C98.8007 34.3217 99.0336 34.1033 99.3248 33.9395C99.616 33.7757 99.9654 33.6665 100.373 33.6665C100.781 33.6665 101.13 33.7757 101.421 33.9395ZM99.616 34.3217C99.3831 34.4309 99.2083 34.5947 99.0919 34.8676C98.9754 35.086 98.9172 35.359 98.9172 35.6866C98.9172 36.0142 98.9754 36.2326 99.0919 36.5056C99.2083 36.7786 99.3831 36.8877 99.616 37.0515C99.8489 37.1607 100.082 37.2153 100.373 37.2153C100.664 37.2153 100.897 37.1607 101.13 37.0515C101.363 36.9423 101.538 36.7786 101.654 36.5056C101.771 36.2872 101.829 36.0142 101.829 35.6866C101.829 35.359 101.771 35.1406 101.654 34.8676C101.538 34.6493 101.363 34.4855 101.13 34.3217C100.897 34.1579 100.664 34.1579 100.373 34.1579C100.082 34.1579 99.8489 34.2125 99.616 34.3217Z" fill="#6D6D6D"/>
<path d="M106.139 37.5977L105.09 36.0144H104.508V37.5977H103.984V33.7759H105.323C105.789 33.7759 106.139 33.8851 106.372 34.1035C106.605 34.3219 106.721 34.5948 106.721 34.9224C106.721 35.25 106.605 35.4684 106.43 35.6868C106.255 35.9052 105.964 36.0144 105.615 36.069L106.721 37.6523H106.139V37.5977ZM104.508 35.6868H105.265C105.848 35.6868 106.139 35.4138 106.139 34.9224C106.139 34.431 105.848 34.1581 105.265 34.1581H104.508V35.6868Z" fill="#6D6D6D"/>
<path d="M113.476 33.7222L112.136 36.1245V37.5986H111.612V36.1245L110.273 33.7222H110.914L111.904 35.5785L112.893 33.7222H113.476Z" fill="#6D6D6D"/>
<path d="M117.785 33.9395C118.076 34.1033 118.309 34.3217 118.484 34.6493C118.658 34.9222 118.775 35.3044 118.775 35.6866C118.775 36.0688 118.658 36.3964 118.484 36.724C118.309 37.0515 118.076 37.2699 117.785 37.4337C117.494 37.5975 117.144 37.7067 116.737 37.7067C116.329 37.7067 116.038 37.5975 115.688 37.4337C115.397 37.2699 115.164 37.0515 114.99 36.724C114.815 36.451 114.698 36.0688 114.698 35.6866C114.698 35.3044 114.757 34.9768 114.99 34.6493C115.164 34.3217 115.397 34.1033 115.688 33.9395C115.98 33.7757 116.329 33.6665 116.737 33.6665C117.144 33.6665 117.494 33.7757 117.785 33.9395ZM115.98 34.3217C115.747 34.4309 115.572 34.5947 115.456 34.8676C115.339 35.086 115.281 35.359 115.281 35.6866C115.281 36.0142 115.339 36.2326 115.456 36.5056C115.572 36.7786 115.747 36.8877 115.98 37.0515C116.213 37.1607 116.446 37.2153 116.737 37.2153C117.028 37.2153 117.261 37.1607 117.494 37.0515C117.727 36.9423 117.901 36.7786 118.018 36.5056C118.134 36.2872 118.193 36.0142 118.193 35.6866C118.193 35.359 118.134 35.1406 118.018 34.8676C117.901 34.6493 117.727 34.4855 117.494 34.3217C117.261 34.1579 117.028 34.1579 116.737 34.1579C116.504 34.1579 116.213 34.2125 115.98 34.3217Z" fill="#6D6D6D"/>
<path d="M120.872 33.7222V36.0153C120.872 36.3974 120.988 36.6704 121.163 36.8342C121.337 36.998 121.57 37.1072 121.92 37.1072C122.211 37.1072 122.444 36.998 122.677 36.8342C122.851 36.6704 122.91 36.3974 122.91 36.0153V33.7222H123.434V36.0153C123.434 36.5612 123.317 36.9434 123.026 37.2164C122.735 37.4894 122.386 37.5986 121.92 37.5986C121.454 37.5986 121.104 37.4894 120.813 37.2164C120.522 36.9434 120.406 36.5612 120.406 36.0153V33.7222H120.872V33.7222Z" fill="#6D6D6D"/>
<defs>
<linearGradient id="paint0_linear" x1="0.734063" y1="22.4414" x2="45.6963" y2="22.4414" gradientUnits="userSpaceOnUse">
<stop offset="4.1024e-07" stop-color="#FFA131"/>
<stop offset="1" stop-color="#FE5403"/>
</linearGradient>
</defs>
</svg>
