<svg width="143" height="52" viewBox="0 0 143 52" fill="none" xmlns="http://www.w3.org/2000/svg">
<path d="M32.5089 0C21.9349 0 13.3687 8.35785 13.3687 18.6746C13.3687 23.1147 14.9748 27.163 17.5849 30.3625L0.987785 46.0335C-0.283766 47.2741 -0.350689 49.2329 0.920861 50.5389C2.19241 51.7795 4.20012 51.8448 5.5386 50.6041L22.5372 34.5414C25.4819 36.3044 28.895 37.3491 32.5758 37.3491C43.1497 37.3491 51.716 28.9913 51.716 18.6746C51.649 8.35785 43.0828 0 32.5089 0ZM35.052 33.1702C34.2489 33.3008 33.3789 33.3661 32.5758 33.3661C24.2772 33.3661 17.5179 26.7712 17.5179 18.6746C17.5179 10.5779 24.2772 3.98304 32.5758 3.98304C36.9258 3.98304 40.8074 5.74602 43.5513 8.61903L30.7688 18.6746H35.052V33.1702ZM45.4921 25.7918H41.7443V18.3481H47.4998V18.4134C47.4998 21.0905 46.7636 23.637 45.4921 25.7918Z" fill="url(#paint0_linear)"/>
<path d="M71.6592 27.1635C72.1277 27.8164 72.3954 28.6 72.3954 29.6447C72.3954 30.9506 71.9939 31.9301 71.1239 32.6483C70.2538 33.3666 69.1161 33.7583 67.6438 33.7583H62.0222V19.2627H66.7069C68.0454 19.2627 69.1161 19.5892 69.8523 20.1768C70.5885 20.7645 70.99 21.6786 70.99 22.854C70.99 23.5722 70.8562 24.1599 70.5885 24.6822C70.3208 25.2046 69.9861 25.5964 69.4508 25.9229C70.4546 26.1187 71.1908 26.5105 71.6592 27.1635ZM64.0969 25.2699H66.5061C67.3092 25.2699 67.9115 25.1393 68.3131 24.8128C68.7146 24.4864 68.9154 23.964 68.9154 23.1151C68.9154 22.3316 68.7146 21.7439 68.3131 21.4175C67.9115 21.091 67.3092 20.9604 66.5061 20.9604H64.0969V25.2699ZM69.5177 31.3424C69.9861 30.9506 70.2538 30.363 70.2538 29.5141C70.2538 27.8817 69.3838 27.0329 67.5769 27.0329H64.1638V31.9954H67.5769C68.38 31.9954 69.0492 31.7995 69.5177 31.3424Z" fill="#FE5504"/>
<path d="M77.0801 19.2627H86.1148V21.0257H79.0878V25.2699H84.7094V27.0329H79.0878V31.9954H86.3156V33.7583H77.0801V19.2627Z" fill="#FE5504"/>
<path d="M92.7401 33.7578C91.8032 33.5619 91.1339 33.3661 90.5316 33.1049L90.7993 31.0154C91.5355 31.3419 92.3386 31.6684 93.2086 31.8643C94.0786 32.1254 95.0155 32.256 95.8855 32.256C96.8894 32.256 97.6255 32.0601 98.1609 31.7337C98.6963 31.4072 98.964 30.8848 98.964 30.1666C98.964 29.6442 98.8302 29.1871 98.5625 28.8607C98.2948 28.5342 97.8932 28.2077 97.3578 27.9465C96.8224 27.6853 96.0863 27.4241 95.1493 27.163C94.2124 26.9018 93.4093 26.5753 92.7401 26.2488C92.0709 25.9223 91.6024 25.4653 91.2009 24.9429C90.7993 24.4205 90.5985 23.7023 90.5985 22.8535C90.5985 21.6781 91.067 20.764 92.0039 20.0457C92.9409 19.3275 94.2124 19.001 95.8855 19.001C96.8224 19.001 97.6255 19.0663 98.4955 19.2622C99.2986 19.4581 100.035 19.7193 100.637 19.9804L100.436 22.0699C99.6332 21.6128 98.8971 21.2864 98.1609 21.0905C97.4248 20.8946 96.6886 20.764 95.8855 20.764C94.9486 20.764 94.2124 20.9599 93.677 21.2864C93.1416 21.6128 92.8739 22.1352 92.8739 22.7882C92.8739 23.2452 93.0078 23.637 93.2755 23.9635C93.5432 24.29 93.8778 24.5511 94.3463 24.747C94.8147 24.9429 95.484 25.2041 96.287 25.4653C97.9601 25.9876 99.2317 26.5753 100.035 27.2283C100.838 27.8812 101.239 28.8607 101.239 30.036C101.239 31.2766 100.771 32.3213 99.7671 32.9743C98.7632 33.6925 97.3578 34.019 95.417 34.019C94.547 34.0843 93.677 33.9537 92.7401 33.7578Z" fill="#FE5504"/>
<path d="M108.869 21.0257H104.519V19.2627H115.16V21.0257H110.81V33.7583H108.802V21.0257H108.869Z" fill="#FE5504"/>
<path d="M126.068 29.8406H120.38L118.974 33.7583H116.833L122.187 19.2627H124.328L129.682 33.7583H127.541L126.068 29.8406ZM125.466 28.0776L123.257 22.0051L121.049 28.0776H125.466Z" fill="#FE5504"/>
<path d="M143 19.2627L137.78 27.49V33.7583H135.772V27.49L130.552 19.2627H132.828L136.776 25.5311L140.725 19.2627H143Z" fill="#FE5504"/>
<path d="M63.8963 41.9199C64.0971 42.1158 64.164 42.377 64.164 42.6382C64.164 43.03 64.0302 43.2911 63.7625 43.5523C63.4948 43.8135 63.0932 43.8788 62.6248 43.8788H60.8848V39.3081H62.6248C63.0932 39.3081 63.4279 39.4387 63.6956 39.6346C63.9633 39.8305 64.0971 40.0917 64.0971 40.4834C64.0971 40.8099 64.0302 41.0058 63.8294 41.2017C63.6956 41.3976 63.4279 41.5282 63.2271 41.5282C63.4948 41.5282 63.6956 41.6588 63.8963 41.9199ZM61.4871 41.267H62.4909C62.7586 41.267 63.0263 41.2017 63.1602 41.0711C63.294 40.9405 63.4279 40.7446 63.4279 40.4834C63.4279 40.2222 63.3609 40.0917 63.1602 39.8958C63.0263 39.7652 62.7586 39.6999 62.424 39.6999H61.4202V41.267H61.4871ZM63.294 43.1606C63.4948 43.03 63.5617 42.8341 63.5617 42.5729C63.5617 42.3117 63.4948 42.1158 63.294 41.9852C63.0932 41.8546 62.8925 41.7893 62.5579 41.7893H61.554V43.4217H62.5579C62.8256 43.3564 63.0932 43.2911 63.294 43.1606Z" fill="#6D6D6D"/>
<path d="M66.5733 39.7652V41.3323H68.3802V41.7893H66.5733V43.4217H68.581V43.8788H65.9709V39.3081H68.581V39.7652H66.5733Z" fill="#6D6D6D"/>
<path d="M73.1318 43.2912C72.998 43.487 72.8641 43.6176 72.6633 43.7482C72.4626 43.8788 72.1949 43.9441 71.8603 43.9441C71.5256 43.9441 71.2579 43.8788 71.0572 43.7482C70.7895 43.6176 70.5887 43.487 70.4549 43.2912C70.321 43.0953 70.2541 42.8994 70.1872 42.6382H70.8564C70.8564 42.7688 70.9233 42.8994 70.9902 43.03C71.0572 43.1606 71.191 43.2259 71.3249 43.3565C71.4587 43.4217 71.6595 43.487 71.8603 43.487C72.1279 43.487 72.3287 43.4217 72.4626 43.2912C72.5964 43.1606 72.6633 42.9647 72.6633 42.7688C72.6633 42.5729 72.5964 42.4423 72.5295 42.3117C72.3956 42.1811 72.3287 42.1158 72.1279 42.0505C71.9941 41.9852 71.7933 41.9199 71.5256 41.8546C71.2579 41.7893 70.9902 41.6588 70.7895 41.5935C70.5887 41.5282 70.4549 41.3976 70.321 41.2017C70.1872 41.0058 70.1202 40.8099 70.1202 40.5487C70.1202 40.2875 70.1872 40.0917 70.321 39.8958C70.4549 39.6999 70.5887 39.5693 70.8564 39.4387C71.1241 39.3081 71.3249 39.3081 71.6595 39.3081C72.1279 39.3081 72.4626 39.4387 72.7972 39.6346C73.0649 39.8305 73.1987 40.157 73.2657 40.4834H72.5964C72.5295 40.2875 72.4626 40.157 72.3287 40.0264C72.1949 39.8958 71.9941 39.8305 71.6595 39.8305C71.3918 39.8305 71.191 39.8958 71.0572 40.0264C70.9233 40.157 70.8564 40.3528 70.8564 40.5487C70.8564 40.7446 70.9233 40.8752 70.9902 41.0058C71.0572 41.1364 71.191 41.2017 71.3249 41.267C71.4587 41.3323 71.6595 41.3976 71.9272 41.4629C72.2618 41.5282 72.4626 41.6588 72.6633 41.7241C72.8641 41.7893 72.998 41.9199 73.1318 42.1158C73.2657 42.3117 73.3326 42.5076 73.3326 42.8341C73.3326 42.8994 73.2657 43.0953 73.1318 43.2912Z" fill="#6D6D6D"/>
<path d="M78.0173 39.2432V39.7002H76.6788V43.8139H76.0765V39.7002H74.738V39.2432H78.0173Z" fill="#6D6D6D"/>
<path d="M85.9143 39.2432V43.8139H85.312V41.6591H82.9027V43.8139H82.3004V39.2432H82.9027V41.202H85.312V39.2432H85.9143Z" fill="#6D6D6D"/>
<path d="M91.2013 39.5038C91.5359 39.6997 91.8036 39.9609 92.0043 40.3527C92.2051 40.6792 92.339 41.1362 92.339 41.5933C92.339 42.0504 92.2051 42.4421 92.0043 42.8339C91.8036 43.2257 91.5359 43.4869 91.2013 43.6828C90.8666 43.8786 90.4651 44.0092 89.9966 44.0092C89.5282 44.0092 89.1935 43.8786 88.792 43.6828C88.4574 43.4869 88.1897 43.2257 87.9889 42.8339C87.7881 42.5074 87.6543 42.0504 87.6543 41.5933C87.6543 41.1362 87.7212 40.7445 87.9889 40.3527C88.1897 39.9609 88.4574 39.6997 88.792 39.5038C89.1266 39.308 89.5282 39.1774 89.9966 39.1774C90.4651 39.1774 90.8666 39.308 91.2013 39.5038ZM89.1935 39.9609C88.9259 40.0915 88.7251 40.2874 88.5912 40.6139C88.4574 40.8751 88.3905 41.2015 88.3905 41.5933C88.3905 41.9851 88.4574 42.2463 88.5912 42.5727C88.7251 42.8992 88.9259 43.0298 89.1935 43.2257C89.4612 43.3563 89.7289 43.4216 90.0636 43.4216C90.3982 43.4216 90.6659 43.3563 90.9336 43.2257C91.2013 43.0951 91.402 42.8992 91.5359 42.5727C91.6697 42.3116 91.7366 41.9851 91.7366 41.5933C91.7366 41.2015 91.6697 40.9403 91.5359 40.6139C91.402 40.3527 91.2013 40.1568 90.9336 39.9609C90.6659 39.765 90.3982 39.765 90.0636 39.765C89.7289 39.765 89.4612 39.8303 89.1935 39.9609Z" fill="#6D6D6D"/>
<path d="M98.8974 39.3736V43.879H98.2951V40.2878L96.8228 43.879H96.2874L94.8151 40.2878V43.879H94.2128V39.3736H94.9489L96.622 43.1608L98.2282 39.3736H98.8974Z" fill="#6D6D6D"/>
<path d="M101.507 39.7652V41.3323H103.314V41.7893H101.507V43.4217H103.515V43.8788H100.905V39.3081H103.515V39.7652H101.507Z" fill="#6D6D6D"/>
<path d="M110.609 39.2432V39.7002H108.534V41.2673H110.274V41.7897H108.534V43.8792H107.932V39.3085H110.609V39.2432Z" fill="#6D6D6D"/>
<path d="M115.695 39.5038C116.03 39.6997 116.298 39.9609 116.498 40.3527C116.699 40.6792 116.833 41.1362 116.833 41.5933C116.833 42.0504 116.699 42.4421 116.498 42.8339C116.298 43.2257 116.03 43.4869 115.695 43.6828C115.361 43.8786 114.959 44.0092 114.491 44.0092C114.022 44.0092 113.688 43.8786 113.286 43.6828C112.952 43.4869 112.684 43.2257 112.483 42.8339C112.282 42.5074 112.148 42.0504 112.148 41.5933C112.148 41.1362 112.215 40.7445 112.483 40.3527C112.684 39.9609 112.952 39.6997 113.286 39.5038C113.621 39.308 114.022 39.1774 114.491 39.1774C114.959 39.1774 115.361 39.308 115.695 39.5038ZM113.621 39.9609C113.353 40.0915 113.152 40.2874 113.018 40.6139C112.885 40.8751 112.818 41.2015 112.818 41.5933C112.818 41.9851 112.885 42.2463 113.018 42.5727C113.152 42.8992 113.353 43.0298 113.621 43.2257C113.888 43.3563 114.156 43.4216 114.491 43.4216C114.825 43.4216 115.093 43.3563 115.361 43.2257C115.628 43.0951 115.829 42.8992 115.963 42.5727C116.097 42.3116 116.164 41.9851 116.164 41.5933C116.164 41.2015 116.097 40.9403 115.963 40.6139C115.829 40.3527 115.628 40.1568 115.361 39.9609C115.093 39.765 114.825 39.765 114.491 39.765C114.156 39.765 113.888 39.8303 113.621 39.9609Z" fill="#6D6D6D"/>
<path d="M121.116 43.8788L119.911 41.9852H119.242V43.8788H118.64V39.3081H120.179C120.715 39.3081 121.116 39.4387 121.384 39.6999C121.651 39.9611 121.785 40.2875 121.785 40.6793C121.785 41.0711 121.651 41.3323 121.451 41.5935C121.25 41.8546 120.915 41.9852 120.514 42.0505L121.785 43.9441H121.116V43.8788ZM119.242 41.5935H120.112C120.781 41.5935 121.116 41.267 121.116 40.6793C121.116 40.0917 120.781 39.7652 120.112 39.7652H119.242V41.5935Z" fill="#6D6D6D"/>
<path d="M129.548 39.2432L128.009 42.1162V43.8792H127.407V42.1162L125.868 39.2432H126.604L127.742 41.4632L128.879 39.2432H129.548Z" fill="#6D6D6D"/>
<path d="M134.501 39.5038C134.836 39.6997 135.103 39.9609 135.304 40.3527C135.505 40.6792 135.639 41.1362 135.639 41.5933C135.639 42.0504 135.505 42.4421 135.304 42.8339C135.103 43.2257 134.836 43.4869 134.501 43.6828C134.166 43.8786 133.765 44.0092 133.296 44.0092C132.828 44.0092 132.493 43.8786 132.092 43.6828C131.757 43.4869 131.489 43.2257 131.289 42.8339C131.088 42.5074 130.954 42.0504 130.954 41.5933C130.954 41.1362 131.021 40.7445 131.289 40.3527C131.489 39.9609 131.757 39.6997 132.092 39.5038C132.426 39.308 132.828 39.1774 133.296 39.1774C133.765 39.1774 134.166 39.308 134.501 39.5038ZM132.426 39.9609C132.159 40.0915 131.958 40.2874 131.824 40.6139C131.69 40.8751 131.623 41.2015 131.623 41.5933C131.623 41.9851 131.69 42.2463 131.824 42.5727C131.958 42.8992 132.159 43.0298 132.426 43.2257C132.694 43.3563 132.962 43.4216 133.296 43.4216C133.631 43.4216 133.899 43.3563 134.166 43.2257C134.434 43.0951 134.635 42.8992 134.769 42.5727C134.902 42.3116 134.969 41.9851 134.969 41.5933C134.969 41.2015 134.902 40.9403 134.769 40.6139C134.635 40.3527 134.434 40.1568 134.166 39.9609C133.899 39.765 133.631 39.765 133.296 39.765C133.029 39.765 132.694 39.8303 132.426 39.9609Z" fill="#6D6D6D"/>
<path d="M138.048 39.2432V41.9856C138.048 42.4427 138.182 42.7691 138.382 42.965C138.583 43.1609 138.851 43.2915 139.252 43.2915C139.587 43.2915 139.855 43.1609 140.122 42.965C140.323 42.7691 140.39 42.4427 140.39 41.9856V39.2432H140.992V41.9856C140.992 42.6385 140.859 43.0956 140.524 43.4221C140.189 43.7486 139.788 43.8792 139.252 43.8792C138.717 43.8792 138.316 43.7486 137.981 43.4221C137.646 43.0956 137.512 42.6385 137.512 41.9856V39.2432H138.048Z" fill="#6D6D6D"/>
<defs>
<linearGradient id="paint0_linear" x1="-0.0160708" y1="25.7523" x2="51.6553" y2="25.7523" gradientUnits="userSpaceOnUse">
<stop offset="4.1024e-07" stop-color="#FFA131"/>
<stop offset="1" stop-color="#FE5403"/>
</linearGradient>
</defs>
</svg>
