<svg width="20" height="17" viewBox="0 0 20 17" fill="none" xmlns="http://www.w3.org/2000/svg">
<g clip-path="url(#clip0)">
<path d="M6.56953 10.0418C6.56953 12.0185 6.56953 13.9952 6.56953 15.9763C6.56953 16.076 6.56953 16.18 6.56044 16.2797C6.51499 16.6525 6.20596 16.8476 5.82876 16.7349C5.72877 16.7045 5.63334 16.6568 5.5379 16.6135C3.92911 15.8332 2.32032 15.0529 0.711525 14.277C0.279787 14.0689 0.0616455 13.7438 0.0616455 13.2756C0.0616455 9.34391 0.0616455 5.40785 0.0616455 1.47612C0.0616455 1.44144 0.0616455 1.40243 0.0616455 1.36775C0.0752793 0.938599 0.379768 0.756534 0.788783 0.947269C1.35231 1.2117 1.90676 1.48479 2.46574 1.75789C3.7655 2.38644 5.06526 3.015 6.36502 3.63489C6.51954 3.70858 6.57862 3.78661 6.57862 3.96C6.56953 5.98439 6.56953 8.0131 6.56953 10.0418Z" fill="black"/>
<path d="M13.0728 13.93C12.3866 12.6512 11.7004 11.3681 11.0141 10.0893C10.4415 9.01862 9.8689 7.94791 9.29173 6.88154C9.21447 6.74282 9.22356 6.64745 9.30991 6.51307C10.4415 4.74878 11.564 2.98449 12.6911 1.21587C12.9774 0.769379 13.2774 0.687017 13.7727 0.925434C15.6451 1.82709 17.5129 2.73307 19.3898 3.63039C19.5625 3.71275 19.5807 3.77777 19.4762 3.93816C17.3811 7.21532 15.2906 10.4968 13.2001 13.774C13.1683 13.8303 13.1501 13.8953 13.0728 13.93Z" fill="black"/>
<path d="M19.5989 5.47266C19.5989 5.58103 19.5989 5.63738 19.5989 5.6894C19.5989 9.13995 19.5989 12.5905 19.5989 16.0367C19.5989 16.1277 19.5989 16.2274 19.5762 16.3141C19.4944 16.6306 19.2035 16.778 18.8263 16.6913C18.7036 16.6609 18.5809 16.6133 18.4673 16.5612C17.0039 15.859 15.5451 15.1524 14.0863 14.4502C13.9681 14.3938 13.9181 14.3591 14.0045 14.2247C15.8496 11.3421 17.6856 8.45504 19.5262 5.56802C19.5353 5.54635 19.5489 5.53334 19.5989 5.47266Z" fill="black"/>
<path d="M7.55112 5.56372C8.06921 6.53039 8.58729 7.49273 9.10083 8.45941C9.90977 9.97227 10.7187 11.4808 11.5231 12.9937C11.5549 13.0544 11.6413 13.1194 11.5867 13.1844C11.5231 13.2581 11.4459 13.1714 11.3868 13.141C10.1506 12.5428 8.90996 11.9446 7.67383 11.3464C7.58748 11.3031 7.50568 11.2814 7.50568 11.1514C7.51022 9.2917 7.51022 7.42771 7.51022 5.56806C7.52385 5.56806 7.53749 5.56372 7.55112 5.56372Z" fill="black"/>
</g>
<defs>
<clipPath id="clip0">
<rect width="19.5373" height="15.9653" fill="white" transform="translate(0.0616455 0.79541)"/>
</clipPath>
</defs>
</svg>
