<svg width="166" height="167" viewBox="0 0 166 167" fill="none" xmlns="http://www.w3.org/2000/svg">
<path d="M107.482 142.154C139.782 128.775 155.119 91.745 141.74 59.4458C128.361 27.1466 91.3318 11.8088 59.0326 25.1879C26.7334 38.5669 11.3957 75.5964 24.7747 107.896C38.1538 140.195 75.1832 155.533 107.482 142.154Z" stroke="url(#paint0_linear)" stroke-miterlimit="10" stroke-dasharray="1 1"/>
<path d="M63.0999 107.67C63.0799 107.65 63.06 107.63 63.03 107.61C62.34 107.04 61.65 106.42 61.01 105.78C60.61 105.38 59.96 105.38 59.55 105.78C59.15 106.19 59.15 106.84 59.55 107.25C60.24 107.94 60.9299 108.58 61.7099 109.21C62.1399 109.59 62.79 109.56 63.17 109.13C63.56 108.71 63.5299 108.06 63.0999 107.67Z" fill="url(#paint1_linear)"/>
<path d="M52.2499 76.92C51.7099 76.73 51.12 77.02 50.93 77.56C50.9 77.64 50.8799 77.72 50.8799 77.81C50.6699 78.76 50.51 79.72 50.4 80.68C50.33 81.24 50.72 81.76 51.28 81.84H51.41C51.94 81.84 52.3799 81.45 52.4399 80.93C52.5499 80.03 52.7 79.13 52.9 78.25C53.07 77.7 52.7899 77.11 52.2499 76.92Z" fill="url(#paint2_linear)"/>
<path d="M57.95 102.17C57.42 101.44 56.91 100.68 56.45 99.9C56.16 99.41 55.5201 99.25 55.0301 99.54C54.5401 99.83 54.3801 100.47 54.6701 100.96C55.1701 101.79 55.7101 102.61 56.2801 103.39C56.6301 103.84 57.29 103.92 57.74 103.56C58.16 103.24 58.25 102.63 57.95 102.17Z" fill="url(#paint3_linear)"/>
<path d="M54.33 95.63C54 94.79 53.69 93.93 53.44 93.06C53.28 92.51 52.7 92.19 52.15 92.35C52.14 92.35 52.13 92.36 52.12 92.36C51.58 92.53 51.2701 93.1 51.4301 93.65C51.7101 94.58 52.02 95.5 52.38 96.42C52.6 96.96 53.21 97.22 53.74 97C54.28 96.78 54.54 96.17 54.33 95.63Z" fill="url(#paint4_linear)"/>
<path d="M54.95 69.81C54.44 69.55 53.8101 69.76 53.5601 70.27C53.1201 71.13 52.72 72.03 52.37 72.93C52.16 73.46 52.42 74.06 52.95 74.27C53.48 74.48 54.0901 74.22 54.3001 73.69C54.3001 73.69 54.3001 73.69 54.3001 73.68C54.6301 72.84 54.9901 72 55.4101 71.2C55.6701 70.69 55.46 70.06 54.95 69.81Z" fill="url(#paint5_linear)"/>
<path d="M52.46 88.42C52.46 88.41 52.46 88.41 52.46 88.42C52.35 87.52 52.27 86.61 52.24 85.71C52.22 85.14 51.7401 84.69 51.1601 84.71C50.5901 84.73 50.1401 85.21 50.1601 85.79C50.1601 86.76 50.2701 87.73 50.4001 88.69C50.4701 89.19 50.9001 89.57 51.4001 89.58H51.5601C52.1301 89.5 52.53 88.98 52.46 88.42Z" fill="url(#paint6_linear)"/>
<path d="M79.98 53.81C79.92 53.24 79.42 52.82 78.84 52.87C77.88 52.97 76.91 53.11 75.96 53.29C75.39 53.34 74.97 53.85 75.02 54.42C75.07 54.99 75.58 55.41 76.15 55.36L76.14 55.33H76.34C77.23 55.16 78.14 55.03 79.0401 54.94C79.62 54.89 80.04 54.38 79.98 53.81Z" fill="url(#paint7_linear)"/>
<path d="M59.4499 63.53C59.0199 63.15 58.3599 63.19 57.9799 63.62C57.3399 64.35 56.74 65.11 56.17 65.9C55.83 66.36 55.94 67.01 56.4 67.35C56.58 67.48 56.79 67.55 57.01 67.55V67.56C57.34 67.56 57.6599 67.4 57.8499 67.13C58.3799 66.4 58.95 65.68 59.54 65C59.93 64.57 59.8799 63.91 59.4499 63.53Z" fill="url(#paint8_linear)"/>
<path d="M86.82 53.05C85.87 52.9 84.8901 52.8 83.9201 52.75C83.3501 52.72 82.85 53.15 82.82 53.73C82.79 54.3 83.2201 54.8 83.8001 54.83C84.7101 54.9 85.62 55 86.51 55.13H86.6701C87.2401 55.17 87.74 54.74 87.78 54.17C87.82 53.59 87.39 53.09 86.82 53.05Z" fill="url(#paint9_linear)"/>
<path d="M65.34 58.59C65.02 58.15 64.3999 58.04 63.9399 58.33C63.1399 58.88 62.36 59.47 61.62 60.09C61.18 60.46 61.12 61.11 61.49 61.55C61.86 61.99 62.5099 62.05 62.9499 61.68C63.6399 61.1 64.37 60.55 65.12 60.03C65.59 59.7 65.68 59.05 65.34 58.59Z" fill="url(#paint10_linear)"/>
<path d="M72.48 55.32C72.33 54.77 71.76 54.44 71.2 54.59C71.15 54.6 71.1001 54.62 71.0601 54.64C70.1501 54.97 69.25 55.33 68.38 55.77C67.86 56.01 67.64 56.63 67.88 57.15C68.05 57.51 68.41 57.75 68.82 57.75C68.97 57.75 69.12 57.71 69.25 57.65C70.07 57.26 70.9101 56.91 71.7601 56.6C72.3101 56.44 72.63 55.87 72.48 55.32Z" fill="url(#paint11_linear)"/>
<path d="M85.02 115.32C84.98 114.75 84.4901 114.31 83.9201 114.35C83.0101 114.42 82.1 114.44 81.2 114.41C80.63 114.39 80.15 114.85 80.13 115.42C80.11 115.99 80.57 116.47 81.14 116.48H82.02C82.71 116.48 83.4001 116.48 84.0501 116.42C84.6201 116.39 85.06 115.9 85.02 115.32Z" fill="url(#paint12_linear)"/>
<path d="M112.17 91.29C111.61 91.15 111.05 91.48 110.91 92.04C110.69 92.92 110.42 93.79 110.11 94.64C109.93 95.17 110.21 95.75 110.74 95.95C111.28 96.14 111.87 95.86 112.07 95.32C112.4 94.41 112.68 93.47 112.92 92.55C113.07 92 112.73 91.43 112.17 91.29Z" fill="url(#paint13_linear)"/>
<path d="M113.5 79.42C113.34 78.47 113.14 77.5 112.9 76.57C112.73 76.02 112.16 75.71 111.61 75.88C111.09 76.04 110.78 76.57 110.9 77.1C111.13 77.97 111.31 78.87 111.47 79.76C111.56 80.25 111.98 80.61 112.48 80.61H112.65C113.21 80.51 113.59 79.98 113.5 79.42Z" fill="url(#paint14_linear)"/>
<path d="M117.91 67.51C117.86 67.4 117.79 67.31 117.71 67.22L115.88 65.31C115.62 65.05 115.23 64.95 114.88 65.06L111.57 66.06L107.7 61.95L116.39 57.11C116.9 56.88 117.12 56.28 116.88 55.77C116.83 55.66 116.76 55.57 116.68 55.48L114.24 53.04C113.97 52.78 113.59 52.69 113.24 52.8L102.22 56.13L98.51 52.2C97.57 51.11 96.0299 50.74 94.6899 51.29H94.63C93.62 51.7 92.82 52.5 92.41 53.51C92.31 53.77 92.2299 54.05 92.1899 54.33L91.77 54.18C91.22 54 90.6399 54.3 90.4599 54.85C90.2799 55.4 90.58 55.98 91.13 56.16C91.66 56.33 92.1899 56.53 92.7299 56.73C92.8899 56.98 93.08 57.21 93.29 57.42L97.1999 61.13L96.0799 64.83C85.1199 57.01 69.8999 59.56 62.0899 70.52C54.2699 81.48 56.82 96.7 67.78 104.51C78.74 112.33 93.96 109.78 101.77 98.82C108 90.08 107.79 78.3 101.23 69.79L103 66.6L107.11 70.47L106.12 73.74C106 74.1 106.09 74.5 106.36 74.76C106.36 74.76 108.39 76.77 108.43 76.83C108.91 77.11 109.52 76.94 109.8 76.47C109.8 76.46 109.81 76.45 109.81 76.45L112.51 71.49L117.39 68.83C117.92 68.62 118.14 68.02 117.91 67.51ZM66.27 68.88C70.44 64.71 76.0899 62.37 81.9899 62.38C82.4499 62.38 82.9099 62.39 83.3699 62.42C87.2899 66.04 86.14 69.34 83.51 72.31C81.96 73.95 80.3 75.49 78.53 76.9C75.98 79.07 73.5999 81.1 72.6999 83.12C71.6299 85.53 72.4199 87.7 76.7199 89.61C78.8699 90.56 80.0399 91.3 80.4999 91.86C80.5099 91.87 80.51 91.87 80.52 91.88C80.51 91.88 80.4899 91.89 80.4699 91.9C79.4299 92.3 78.3199 92.49 77.2099 92.46C71.9999 92.68 68.28 89.35 65.4 86.77C63.33 84.92 61.6 83.39 59.81 83.37C60.1 77.91 62.4 72.75 66.27 68.88ZM104.3 84.63C104.3 94.27 98.1099 102.81 88.9499 105.81C88.6899 104.19 88.99 102.53 89.8 101.1C90.9 99.34 92.2999 97.79 93.9499 96.54C100.33 91.22 100.69 88.24 100.97 85.95C101.14 84.5 101.27 83.43 104.13 81.86C104.24 82.78 104.3 83.7 104.3 84.63ZM103.01 77.15C103.32 78.02 103.57 78.91 103.77 79.81C99.42 82.02 99.2299 83.6 98.9599 85.75C98.7199 87.69 98.42 90.22 92.65 95.03C90.8 96.44 89.23 98.19 88.02 100.17C86.96 102.04 86.5899 104.23 86.9799 106.35C74.9799 109.09 63.04 101.59 60.29 89.59C59.98 88.22 59.7899 86.82 59.7399 85.41C60.8399 85.41 62.26 86.72 64.01 88.27C67.18 91.1 71.23 94.71 77.27 94.49C78.69 94.51 80.1 94.25 81.42 93.7C81.97 93.46 82.3899 92.98 82.5699 92.4C82.7199 91.75 82.5299 91.07 82.0699 90.6C81.4199 89.8 80 88.86 77.55 87.77C74.62 86.48 73.99 85.22 74.56 83.93C75.25 82.31 77.4799 80.47 79.8399 78.4C81.6799 76.91 83.42 75.29 85.03 73.56C87.92 70.27 89.4099 66.68 86.4699 62.75C89.7399 63.42 92.8099 64.81 95.4599 66.84L93.8699 72.09C93.7499 72.45 93.8499 72.84 94.1099 73.11C94.1099 73.11 96.69 75.67 96.77 75.72C97.25 76 97.86 75.83 98.14 75.36C98.14 75.35 98.15 75.34 98.15 75.34L100.16 71.7C101.38 73.38 102.33 75.21 103.01 77.15ZM112.29 69.42L111.4 69.86C111.2 69.96 111.04 70.12 110.94 70.32L110.5 71.22L108.78 74.33L108.28 73.78L109.28 70.47C109.4 70.08 109.27 69.66 108.96 69.4L103.5 64.26C103.1 63.87 102.47 63.88 102.08 64.27C102.07 64.28 102.06 64.29 102.05 64.3C101.98 64.38 97.0699 73.22 97.0699 73.22L95.9999 72.15L99.3499 61.12C99.4699 60.73 99.34 60.31 99.02 60.05L94.68 55.96C94.2 55.55 94.04 54.88 94.29 54.3C94.51 53.8 94.91 53.4 95.42 53.18H95.4499C96.0199 52.96 96.6699 53.13 97.0699 53.59L101.22 57.97C101.48 58.25 101.88 58.36 102.24 58.25L113.3 54.91L114.37 55.98L105.59 60.81C105.1 61.08 104.92 61.68 105.19 62.17C105.19 62.18 105.2 62.19 105.2 62.19C105.24 62.27 110.53 67.9 110.53 67.9C110.79 68.18 111.19 68.28 111.55 68.17L114.88 67.17L115.4 67.69L112.29 69.42Z" fill="url(#paint15_linear)"/>
<path d="M109.62 98.58C109.6 98.57 109.59 98.56 109.57 98.55C109.07 98.29 108.46 98.47 108.19 98.96C107.75 99.76 107.28 100.54 106.77 101.28C106.44 101.75 106.55 102.4 107.02 102.73C107.49 103.06 108.14 102.95 108.47 102.48C109.01 101.68 109.52 100.84 109.99 100C110.28 99.51 110.11 98.87 109.62 98.58Z" fill="url(#paint16_linear)"/>
<path d="M112.9 83.44C112.33 83.43 111.86 83.89 111.85 84.46C111.85 84.47 111.85 84.49 111.85 84.5V84.62C111.85 85.53 111.81 86.44 111.73 87.34C111.68 87.91 112.1 88.42 112.67 88.47H112.77C113.32 88.48 113.77 88.05 113.81 87.51C113.9 86.55 113.94 85.57 113.94 84.61V84.47C113.93 83.9 113.47 83.44 112.9 83.44Z" fill="url(#paint17_linear)"/>
<path d="M76.47 113.9C75.57 113.75 74.6801 113.55 73.8101 113.29C73.2701 113.1 72.68 113.38 72.49 113.92C72.3 114.46 72.58 115.05 73.12 115.24C73.16 115.25 73.2 115.27 73.24 115.27C74.17 115.53 75.12 115.76 76.08 115.96H76.27C76.84 116.01 77.35 115.59 77.4 115.02C77.47 114.46 77.05 113.95 76.47 113.9Z" fill="url(#paint18_linear)"/>
<path d="M92.52 113.58C92.33 113.07 91.78 112.79 91.26 112.94V112.97C90.4 113.25 89.52 113.5 88.64 113.66C88.08 113.79 87.73 114.34 87.86 114.9C87.99 115.46 88.54 115.81 89.1 115.68C90.04 115.47 90.9901 115.2 91.9101 114.91C92.4501 114.71 92.72 114.12 92.52 113.58Z" fill="url(#paint19_linear)"/>
<path d="M69.36 111.63C68.54 111.22 67.73 110.78 66.95 110.34C66.46 110.05 65.82 110.22 65.53 110.71C65.24 111.2 65.41 111.84 65.9 112.13C66.74 112.62 67.6 113.08 68.48 113.51C69 113.75 69.62 113.53 69.86 113.01C70.1 112.5 69.88 111.88 69.36 111.63Z" fill="url(#paint20_linear)"/>
<path d="M105.21 104.96C104.79 104.58 104.15 104.6 103.76 105.01H103.77C103.15 105.7 102.49 106.31 101.82 106.91C101.39 107.29 101.36 107.95 101.74 108.38C102.12 108.81 102.78 108.84 103.21 108.46C103.9 107.82 104.63 107.13 105.28 106.43C105.66 106 105.63 105.35 105.21 104.96Z" fill="url(#paint21_linear)"/>
<path d="M99.4899 110.14C99.1999 109.65 98.5599 109.49 98.0699 109.78C98.0499 109.79 98.04 109.8 98.02 109.81V109.78C97.26 110.26 96.46 110.72 95.66 111.16C95.15 111.42 94.9499 112.05 95.2099 112.56C95.4699 113.07 96.0999 113.27 96.6099 113.01C97.4699 112.57 98.32 112.08 99.13 111.56C99.62 111.26 99.7799 110.63 99.4899 110.14Z" fill="url(#paint22_linear)"/>
<defs>
<linearGradient id="paint0_linear" x1="24.3201" y1="108.087" x2="142.206" y2="59.2566" gradientUnits="userSpaceOnUse">
<stop offset="4.1024e-07" stop-color="#FFA131"/>
<stop offset="1" stop-color="#FE5403"/>
</linearGradient>
<linearGradient id="paint1_linear" x1="59.2537" y1="107.486" x2="63.4459" y2="107.486" gradientUnits="userSpaceOnUse">
<stop offset="4.1024e-07" stop-color="#FFA131"/>
<stop offset="1" stop-color="#FE5403"/>
</linearGradient>
<linearGradient id="paint2_linear" x1="50.3781" y1="79.348" x2="52.9419" y2="79.348" gradientUnits="userSpaceOnUse">
<stop offset="4.1024e-07" stop-color="#FFA131"/>
<stop offset="1" stop-color="#FE5403"/>
</linearGradient>
<linearGradient id="paint3_linear" x1="54.5133" y1="101.597" x2="58.1252" y2="101.597" gradientUnits="userSpaceOnUse">
<stop offset="4.1024e-07" stop-color="#FFA131"/>
<stop offset="1" stop-color="#FE5403"/>
</linearGradient>
<linearGradient id="paint4_linear" x1="51.3885" y1="94.6909" x2="54.4048" y2="94.6909" gradientUnits="userSpaceOnUse">
<stop offset="4.1024e-07" stop-color="#FFA131"/>
<stop offset="1" stop-color="#FE5403"/>
</linearGradient>
<linearGradient id="paint5_linear" x1="52.2931" y1="72.0193" x2="55.5188" y2="72.0193" gradientUnits="userSpaceOnUse">
<stop offset="4.1024e-07" stop-color="#FFA131"/>
<stop offset="1" stop-color="#FE5403"/>
</linearGradient>
<linearGradient id="paint6_linear" x1="50.1651" y1="87.1382" x2="52.4703" y2="87.1382" gradientUnits="userSpaceOnUse">
<stop offset="4.1024e-07" stop-color="#FFA131"/>
<stop offset="1" stop-color="#FE5403"/>
</linearGradient>
<linearGradient id="paint7_linear" x1="75.0156" y1="54.1216" x2="79.9869" y2="54.1216" gradientUnits="userSpaceOnUse">
<stop offset="4.1024e-07" stop-color="#FFA131"/>
<stop offset="1" stop-color="#FE5403"/>
</linearGradient>
<linearGradient id="paint8_linear" x1="55.9711" y1="65.4153" x2="59.8053" y2="65.4153" gradientUnits="userSpaceOnUse">
<stop offset="4.1024e-07" stop-color="#FFA131"/>
<stop offset="1" stop-color="#FE5403"/>
</linearGradient>
<linearGradient id="paint9_linear" x1="82.819" y1="53.9321" x2="87.7822" y2="53.9321" gradientUnits="userSpaceOnUse">
<stop offset="4.1024e-07" stop-color="#FFA131"/>
<stop offset="1" stop-color="#FE5403"/>
</linearGradient>
<linearGradient id="paint10_linear" x1="61.25" y1="60.0446" x2="65.5465" y2="60.0446" gradientUnits="userSpaceOnUse">
<stop offset="4.1024e-07" stop-color="#FFA131"/>
<stop offset="1" stop-color="#FE5403"/>
</linearGradient>
<linearGradient id="paint11_linear" x1="67.7811" y1="56.1524" x2="72.519" y2="56.1524" gradientUnits="userSpaceOnUse">
<stop offset="4.1024e-07" stop-color="#FFA131"/>
<stop offset="1" stop-color="#FE5403"/>
</linearGradient>
<linearGradient id="paint12_linear" x1="80.1304" y1="115.42" x2="85.0256" y2="115.42" gradientUnits="userSpaceOnUse">
<stop offset="4.1024e-07" stop-color="#FFA131"/>
<stop offset="1" stop-color="#FE5403"/>
</linearGradient>
<linearGradient id="paint13_linear" x1="110.062" y1="93.6361" x2="112.956" y2="93.6361" gradientUnits="userSpaceOnUse">
<stop offset="4.1024e-07" stop-color="#FFA131"/>
<stop offset="1" stop-color="#FE5403"/>
</linearGradient>
<linearGradient id="paint14_linear" x1="110.866" y1="78.2167" x2="113.512" y2="78.2167" gradientUnits="userSpaceOnUse">
<stop offset="4.1024e-07" stop-color="#FFA131"/>
<stop offset="1" stop-color="#FE5403"/>
</linearGradient>
<linearGradient id="paint15_linear" x1="57.5603" y1="80.0568" x2="118" y2="80.0568" gradientUnits="userSpaceOnUse">
<stop offset="4.1024e-07" stop-color="#FFA131"/>
<stop offset="1" stop-color="#FE5403"/>
</linearGradient>
<linearGradient id="paint16_linear" x1="106.573" y1="100.684" x2="110.128" y2="100.684" gradientUnits="userSpaceOnUse">
<stop offset="4.1024e-07" stop-color="#FFA131"/>
<stop offset="1" stop-color="#FE5403"/>
</linearGradient>
<linearGradient id="paint17_linear" x1="111.717" y1="85.9575" x2="113.934" y2="85.9575" gradientUnits="userSpaceOnUse">
<stop offset="4.1024e-07" stop-color="#FFA131"/>
<stop offset="1" stop-color="#FE5403"/>
</linearGradient>
<linearGradient id="paint18_linear" x1="72.4351" y1="114.602" x2="77.4175" y2="114.602" gradientUnits="userSpaceOnUse">
<stop offset="4.1024e-07" stop-color="#FFA131"/>
<stop offset="1" stop-color="#FE5403"/>
</linearGradient>
<linearGradient id="paint19_linear" x1="87.8333" y1="114.308" x2="92.587" y2="114.308" gradientUnits="userSpaceOnUse">
<stop offset="4.1024e-07" stop-color="#FFA131"/>
<stop offset="1" stop-color="#FE5403"/>
</linearGradient>
<linearGradient id="paint20_linear" x1="65.3787" y1="111.907" x2="69.9535" y2="111.907" gradientUnits="userSpaceOnUse">
<stop offset="4.1024e-07" stop-color="#FFA131"/>
<stop offset="1" stop-color="#FE5403"/>
</linearGradient>
<linearGradient id="paint21_linear" x1="101.471" y1="106.708" x2="105.547" y2="106.708" gradientUnits="userSpaceOnUse">
<stop offset="4.1024e-07" stop-color="#FFA131"/>
<stop offset="1" stop-color="#FE5403"/>
</linearGradient>
<linearGradient id="paint22_linear" x1="95.0919" y1="111.378" x2="99.6328" y2="111.378" gradientUnits="userSpaceOnUse">
<stop offset="4.1024e-07" stop-color="#FFA131"/>
<stop offset="1" stop-color="#FE5403"/>
</linearGradient>
</defs>
</svg>
