<svg width="54" height="59" viewBox="0 0 54 59" fill="none" xmlns="http://www.w3.org/2000/svg">
<path d="M53.5 29.1644C53.5 44.9582 41.602 57.6986 27 57.6986C12.398 57.6986 0.5 44.9582 0.5 29.1644C0.5 13.3705 12.398 0.630127 27 0.630127C41.602 0.630127 53.5 13.3705 53.5 29.1644Z" fill="#B25011" stroke="white"/>
<path d="M26.0977 28.1958C26.0977 30.3117 25.7363 31.884 25.0137 32.9126C24.291 33.9412 23.1615 34.4556 21.625 34.4556C20.1081 34.4556 18.985 33.9543 18.2559 32.9517C17.5267 31.9425 17.1491 30.4386 17.123 28.4399V26.0278C17.123 23.938 17.4844 22.3853 18.207 21.3696C18.9297 20.354 20.0625 19.8462 21.6055 19.8462C23.1354 19.8462 24.2617 20.3377 24.9844 21.3208C25.707 22.2974 26.0781 23.8078 26.0977 25.8521V28.1958ZM24.291 25.7251C24.291 24.1951 24.0762 23.0819 23.6465 22.3853C23.2168 21.6821 22.5365 21.3306 21.6055 21.3306C20.681 21.3306 20.0072 21.6789 19.584 22.3755C19.1608 23.0721 18.9427 24.1431 18.9297 25.5884V28.479C18.9297 30.0155 19.151 31.1515 19.5938 31.8872C20.043 32.6164 20.7201 32.981 21.625 32.981C22.5169 32.981 23.1777 32.6359 23.6074 31.9458C24.0436 31.2557 24.2715 30.1685 24.291 28.6841V25.7251ZM37.0352 23.7524C37.0352 24.4621 36.8464 25.0936 36.4688 25.647C36.0977 26.2004 35.5931 26.6333 34.9551 26.9458C35.6973 27.2648 36.2832 27.7303 36.7129 28.3423C37.1491 28.9543 37.3672 29.6476 37.3672 30.4224C37.3672 31.6528 36.9505 32.6326 36.1172 33.3618C35.2904 34.091 34.1999 34.4556 32.8457 34.4556C31.4785 34.4556 30.3815 34.091 29.5547 33.3618C28.7344 32.6261 28.3242 31.6463 28.3242 30.4224C28.3242 29.6541 28.5326 28.9608 28.9492 28.3423C29.3724 27.7238 29.9551 27.255 30.6973 26.936C30.0658 26.6235 29.5677 26.1906 29.2031 25.6372C28.8385 25.0838 28.6562 24.4556 28.6562 23.7524C28.6562 22.5545 29.0404 21.604 29.8086 20.9009C30.5768 20.1978 31.5892 19.8462 32.8457 19.8462C34.0957 19.8462 35.1048 20.1978 35.873 20.9009C36.6478 21.604 37.0352 22.5545 37.0352 23.7524ZM35.5605 30.3833C35.5605 29.589 35.3066 28.9412 34.7988 28.4399C34.2975 27.9386 33.64 27.688 32.8262 27.688C32.0124 27.688 31.3581 27.9354 30.8633 28.4302C30.375 28.925 30.1309 29.576 30.1309 30.3833C30.1309 31.1906 30.3685 31.8254 30.8438 32.2876C31.3255 32.7498 31.9928 32.981 32.8457 32.981C33.6921 32.981 34.3561 32.7498 34.8379 32.2876C35.3197 31.8188 35.5605 31.1841 35.5605 30.3833ZM32.8457 21.3306C32.1361 21.3306 31.5599 21.5519 31.1172 21.9946C30.681 22.4308 30.4629 23.0265 30.4629 23.7817C30.4629 24.5044 30.6777 25.0903 31.1074 25.5396C31.5436 25.9823 32.123 26.2036 32.8457 26.2036C33.5684 26.2036 34.1445 25.9823 34.5742 25.5396C35.0104 25.0903 35.2285 24.5044 35.2285 23.7817C35.2285 23.0591 35.0039 22.4699 34.5547 22.0142C34.1055 21.5584 33.5358 21.3306 32.8457 21.3306Z" fill="white"/>
</svg>
