<svg width="54" height="54" viewBox="0 0 54 54" fill="none" xmlns="http://www.w3.org/2000/svg">
<circle cx="27" cy="27" r="26.5" fill="#535144" stroke="white"/>
<path d="M26.0977 26.9355C26.0977 29.0514 25.7363 30.6237 25.0137 31.6523C24.291 32.681 23.1615 33.1953 21.625 33.1953C20.1081 33.1953 18.985 32.694 18.2559 31.6914C17.5267 30.6823 17.1491 29.1784 17.123 27.1797V24.7676C17.123 22.6777 17.4844 21.125 18.207 20.1094C18.9297 19.0938 20.0625 18.5859 21.6055 18.5859C23.1354 18.5859 24.2617 19.0775 24.9844 20.0605C25.707 21.0371 26.0781 22.5475 26.0977 24.5918V26.9355ZM24.291 24.4648C24.291 22.9349 24.0762 21.8216 23.6465 21.125C23.2168 20.4219 22.5365 20.0703 21.6055 20.0703C20.681 20.0703 20.0072 20.4186 19.584 21.1152C19.1608 21.8118 18.9427 22.8828 18.9297 24.3281V27.2188C18.9297 28.7552 19.151 29.8913 19.5938 30.627C20.043 31.3561 20.7201 31.7207 21.625 31.7207C22.5169 31.7207 23.1777 31.3757 23.6074 30.6855C24.0436 29.9954 24.2715 28.9082 24.291 27.4238V24.4648ZM37.7285 33H28.4121V31.7012L33.334 26.2324C34.0632 25.4056 34.5645 24.735 34.8379 24.2207C35.1178 23.6999 35.2578 23.1628 35.2578 22.6094C35.2578 21.8672 35.0332 21.2585 34.584 20.7832C34.1348 20.3079 33.5358 20.0703 32.7871 20.0703C31.8887 20.0703 31.1888 20.3275 30.6875 20.8418C30.1927 21.3496 29.9453 22.0592 29.9453 22.9707H28.1387C28.1387 21.6621 28.5586 20.6042 29.3984 19.7969C30.2448 18.9896 31.3743 18.5859 32.7871 18.5859C34.1087 18.5859 35.1536 18.9342 35.9219 19.6309C36.6901 20.321 37.0742 21.2422 37.0742 22.3945C37.0742 23.7943 36.1823 25.4609 34.3984 27.3945L30.5898 31.5254H37.7285V33Z" fill="white"/>
</svg>
