<svg width="99" height="179" viewBox="0 0 99 179" fill="none" xmlns="http://www.w3.org/2000/svg">
<circle cx="49.2088" cy="49.2088" r="49.2088" fill="#2F2B2B"/>
<path d="M49.6294 143L13.2054 79.9118H86.0534L49.6294 143Z" fill="#2F2B2B"/>
<circle cx="49.5" cy="48.5" r="41.5" fill="white"/>
<path d="M42.9066 57.18C41.8666 57.18 40.9132 56.98 40.0466 56.58C39.1932 56.18 38.5199 55.6333 38.0266 54.94C37.5332 54.2333 37.2866 53.46 37.2866 52.62V47.38C37.2866 46.54 37.5332 45.7733 38.0266 45.08C38.5199 44.3733 39.1932 43.82 40.0466 43.42C40.9132 43.02 41.8666 42.82 42.9066 42.82C43.9466 42.82 44.8932 43.0267 45.7466 43.44C46.6132 43.84 47.2932 44.3867 47.7866 45.08C48.2932 45.7733 48.5466 46.54 48.5466 47.38V52.62C48.5466 53.46 48.2932 54.2267 47.7866 54.92C47.2932 55.6133 46.6132 56.1667 45.7466 56.58C44.8932 56.98 43.9466 57.18 42.9066 57.18ZM42.9066 54.84C43.8132 54.84 44.5332 54.6333 45.0666 54.22C45.5999 53.7933 45.8666 53.2333 45.8666 52.54V47.46C45.8666 46.7667 45.5999 46.2133 45.0666 45.8C44.5332 45.3733 43.8132 45.16 42.9066 45.16C41.9999 45.16 41.2799 45.3733 40.7466 45.8C40.2132 46.2133 39.9466 46.7667 39.9466 47.46V52.54C39.9466 53.2333 40.2132 53.7933 40.7466 54.22C41.2799 54.6333 41.9999 54.84 42.9066 54.84ZM57.9059 45.3H51.9859C51.3859 45.3 50.9259 45.1067 50.6059 44.72C50.2993 44.32 50.1459 43.7467 50.1459 43H59.9259C60.3126 43 60.6193 43.1067 60.8459 43.32C61.0859 43.52 61.2059 43.78 61.2059 44.1C61.2059 44.3 61.1593 44.4933 61.0659 44.68L55.2659 56.34C54.9859 56.9 54.5193 57.18 53.8659 57.18C53.5193 57.18 53.2126 57.14 52.9459 57.06C52.6926 56.98 52.4526 56.8533 52.2259 56.68L57.9059 45.3Z" fill="black"/>
<rect x="49" y="136" width="1" height="37" fill="#2F2B2B"/>
<circle r="6.5" transform="matrix(1 0 0 -1 49.5 172.5)" fill="white"/>
</svg>
