<svg width="99" height="179" viewBox="0 0 99 179" fill="none" xmlns="http://www.w3.org/2000/svg">
<circle cx="49.2088" cy="49.2088" r="49.2088" fill="#2A2B29"/>
<path d="M49.6294 143L13.2054 79.9118H86.0534L49.6294 143Z" fill="#2A2B29"/>
<circle cx="49.5" cy="48.5" r="41.5" fill="white"/>
<path d="M42.9573 57.18C41.9173 57.18 40.964 56.98 40.0973 56.58C39.244 56.18 38.5707 55.6333 38.0773 54.94C37.584 54.2333 37.3373 53.46 37.3373 52.62V47.38C37.3373 46.54 37.584 45.7733 38.0773 45.08C38.5707 44.3733 39.244 43.82 40.0973 43.42C40.964 43.02 41.9173 42.82 42.9573 42.82C43.9973 42.82 44.944 43.0267 45.7973 43.44C46.664 43.84 47.344 44.3867 47.8373 45.08C48.344 45.7733 48.5973 46.54 48.5973 47.38V52.62C48.5973 53.46 48.344 54.2267 47.8373 54.92C47.344 55.6133 46.664 56.1667 45.7973 56.58C44.944 56.98 43.9973 57.18 42.9573 57.18ZM42.9573 54.84C43.864 54.84 44.584 54.6333 45.1173 54.22C45.6507 53.7933 45.9173 53.2333 45.9173 52.54V47.46C45.9173 46.7667 45.6507 46.2133 45.1173 45.8C44.584 45.3733 43.864 45.16 42.9573 45.16C42.0507 45.16 41.3307 45.3733 40.7973 45.8C40.264 46.2133 39.9973 46.7667 39.9973 47.46V52.54C39.9973 53.2333 40.264 53.7933 40.7973 54.22C41.3307 54.6333 42.0507 54.84 42.9573 54.84ZM57.1567 53.54H51.3167C50.9701 53.54 50.6967 53.4467 50.4967 53.26C50.2967 53.0733 50.1967 52.8267 50.1967 52.52C50.1967 52.1733 50.2901 51.9 50.4767 51.7L57.4967 43.24C57.6034 43.1067 57.7634 43.0067 57.9767 42.94C58.1901 42.86 58.4167 42.82 58.6567 42.82C59.0034 42.82 59.2901 42.9333 59.5167 43.16C59.7434 43.3733 59.8567 43.6467 59.8567 43.98V51.26H62.1567C62.1567 52.06 62.0167 52.64 61.7367 53C61.4701 53.36 61.0434 53.54 60.4567 53.54H59.8567V55.48C59.8567 56.0667 59.6367 56.5 59.1967 56.78C58.7701 57.0467 58.0901 57.18 57.1567 57.18V53.54ZM57.3167 51.26V47.24L58.0567 46.26L57.8967 46.16L53.6967 51.26H57.3167Z" fill="black"/>
<rect x="49" y="136" width="1" height="37" fill="#2A2B29"/>
<circle r="6.5" transform="matrix(1 0 0 -1 49.5 172.5)" fill="white"/>
</svg>
