<svg width="99" height="179" viewBox="0 0 99 179" fill="none" xmlns="http://www.w3.org/2000/svg">
<circle cx="49.2088" cy="49.2088" r="49.2088" fill="#75685F"/>
<path d="M49.6294 143L13.2054 79.9118H86.0534L49.6294 143Z" fill="#75685F"/>
<circle cx="49.5" cy="48.5" r="41.5" fill="white"/>
<path d="M43.1722 57.18C42.1322 57.18 41.1789 56.98 40.3122 56.58C39.4589 56.18 38.7855 55.6333 38.2922 54.94C37.7989 54.2333 37.5522 53.46 37.5522 52.62V47.38C37.5522 46.54 37.7989 45.7733 38.2922 45.08C38.7855 44.3733 39.4589 43.82 40.3122 43.42C41.1789 43.02 42.1322 42.82 43.1722 42.82C44.2122 42.82 45.1589 43.0267 46.0122 43.44C46.8789 43.84 47.5589 44.3867 48.0522 45.08C48.5589 45.7733 48.8122 46.54 48.8122 47.38V52.62C48.8122 53.46 48.5589 54.2267 48.0522 54.92C47.5589 55.6133 46.8789 56.1667 46.0122 56.58C45.1589 56.98 44.2122 57.18 43.1722 57.18ZM43.1722 54.84C44.0789 54.84 44.7989 54.6333 45.3322 54.22C45.8655 53.7933 46.1322 53.2333 46.1322 52.54V47.46C46.1322 46.7667 45.8655 46.2133 45.3322 45.8C44.7989 45.3733 44.0789 45.16 43.1722 45.16C42.2655 45.16 41.5455 45.3733 41.0122 45.8C40.4789 46.2133 40.2122 46.7667 40.2122 47.46V52.54C40.2122 53.2333 40.4789 53.7933 41.0122 54.22C41.5455 54.6333 42.2655 54.84 43.1722 54.84ZM56.1116 57.18C55.0982 57.18 54.1716 57.02 53.3316 56.7C52.4916 56.3667 51.8249 55.9133 51.3316 55.34C50.8516 54.7667 50.6116 54.1333 50.6116 53.44C50.6116 52.8533 50.7782 52.4267 51.1116 52.16C51.4449 51.8933 51.9716 51.76 52.6916 51.76L53.1116 51.78C53.0716 51.9933 53.0516 52.26 53.0516 52.58C53.0516 53.2867 53.3249 53.84 53.8716 54.24C54.4182 54.64 55.1649 54.84 56.1116 54.84C57.0982 54.84 57.8516 54.5867 58.3716 54.08C58.9049 53.56 59.1716 52.8267 59.1716 51.88C59.1716 50.9867 58.8982 50.2933 58.3516 49.8C57.8049 49.3067 57.0449 49.06 56.0716 49.06C55.0049 49.06 54.0982 49.34 53.3516 49.9C53.0182 50.14 52.6716 50.26 52.3116 50.26C51.9516 50.26 51.6449 50.1533 51.3916 49.94C51.1382 49.7133 51.0116 49.4267 51.0116 49.08C51.0116 48.9867 51.0182 48.9133 51.0316 48.86L51.8316 43.96C51.8849 43.64 52.0182 43.4 52.2316 43.24C52.4582 43.08 52.7516 43 53.1116 43H61.1516C61.1516 44.52 60.5316 45.28 59.2916 45.28H53.8916L53.5316 47.42C53.1982 47.6467 52.9249 47.8733 52.7116 48.1L52.8116 48.22C53.3182 47.7933 53.9249 47.4533 54.6316 47.2C55.3516 46.9467 56.0582 46.82 56.7516 46.82C57.7649 46.82 58.6449 47.0267 59.3916 47.44C60.1516 47.8533 60.7316 48.44 61.1316 49.2C61.5449 49.96 61.7516 50.8533 61.7516 51.88C61.7516 52.96 61.5249 53.9 61.0716 54.7C60.6182 55.5 59.9649 56.1133 59.1116 56.54C58.2716 56.9667 57.2716 57.18 56.1116 57.18Z" fill="black"/>
<rect x="49" y="136" width="1" height="37" fill="#75685F"/>
<circle r="6.5" transform="matrix(1 0 0 -1 49.5 172.5)" fill="white"/>
</svg>
