<svg width="99" height="179" viewBox="0 0 99 179" fill="none" xmlns="http://www.w3.org/2000/svg">
<circle cx="49.2088" cy="49.2088" r="49.2088" fill="#FE6E13"/>
<path d="M49.6294 143L13.2054 79.9118H86.0534L49.6294 143Z" fill="#FE6E13"/>
<circle cx="49.5" cy="48.5" r="41.5" fill="white"/>
<path d="M42.9085 57.18C41.8685 57.18 40.9152 56.98 40.0485 56.58C39.1952 56.18 38.5218 55.6333 38.0285 54.94C37.5352 54.2333 37.2885 53.46 37.2885 52.62V47.38C37.2885 46.54 37.5352 45.7733 38.0285 45.08C38.5218 44.3733 39.1952 43.82 40.0485 43.42C40.9152 43.02 41.8685 42.82 42.9085 42.82C43.9485 42.82 44.8952 43.0267 45.7485 43.44C46.6152 43.84 47.2952 44.3867 47.7885 45.08C48.2952 45.7733 48.5485 46.54 48.5485 47.38V52.62C48.5485 53.46 48.2952 54.2267 47.7885 54.92C47.2952 55.6133 46.6152 56.1667 45.7485 56.58C44.8952 56.98 43.9485 57.18 42.9085 57.18ZM42.9085 54.84C43.8152 54.84 44.5352 54.6333 45.0685 54.22C45.6018 53.7933 45.8685 53.2333 45.8685 52.54V47.46C45.8685 46.7667 45.6018 46.2133 45.0685 45.8C44.5352 45.3733 43.8152 45.16 42.9085 45.16C42.0018 45.16 41.2818 45.3733 40.7485 45.8C40.2152 46.2133 39.9485 46.7667 39.9485 47.46V52.54C39.9485 53.2333 40.2152 53.7933 40.7485 54.22C41.2818 54.6333 42.0018 54.84 42.9085 54.84ZM56.1679 57.18C55.0212 57.18 54.0079 56.9533 53.1279 56.5C52.2479 56.0467 51.5612 55.4067 51.0679 54.58C50.5879 53.7533 50.3479 52.8067 50.3479 51.74C50.3479 51.0467 50.4946 50.34 50.7879 49.62C51.0946 48.8867 51.5079 48.2267 52.0279 47.64L55.8479 43.42C56.0479 43.1933 56.2412 43.04 56.4279 42.96C56.6279 42.8667 56.8612 42.82 57.1279 42.82C57.8346 42.82 58.4212 43.1 58.8879 43.66L56.2879 46.6C56.1279 46.6267 55.9279 46.68 55.6879 46.76C55.4479 46.84 55.2546 46.92 55.1079 47L55.2279 47.24C55.4679 47.12 55.7679 47.0267 56.1279 46.96C56.4879 46.88 56.8079 46.84 57.0879 46.84C58.0212 46.84 58.8612 47.0533 59.6079 47.48C60.3546 47.9067 60.9412 48.4933 61.3679 49.24C61.7946 49.9867 62.0079 50.82 62.0079 51.74C62.0079 52.8067 61.7612 53.7533 61.2679 54.58C60.7746 55.3933 60.0879 56.0333 59.2079 56.5C58.3279 56.9533 57.3146 57.18 56.1679 57.18ZM56.1679 54.88C57.1279 54.88 57.9079 54.5933 58.5079 54.02C59.1079 53.4333 59.4079 52.6733 59.4079 51.74C59.4079 50.8067 59.1079 50.0467 58.5079 49.46C57.9079 48.8733 57.1279 48.58 56.1679 48.58C55.2212 48.58 54.4479 48.8733 53.8479 49.46C53.2612 50.0467 52.9679 50.8067 52.9679 51.74C52.9679 52.6733 53.2612 53.4333 53.8479 54.02C54.4479 54.5933 55.2212 54.88 56.1679 54.88Z" fill="black"/>
<rect x="49" y="136" width="1" height="37" fill="#FE6E13"/>
<circle r="6.5" transform="matrix(1 0 0 -1 49.5 172.5)" fill="white"/>
</svg>
