<svg width="99" height="179" viewBox="0 0 99 179" fill="none" xmlns="http://www.w3.org/2000/svg">
<circle cx="49.2088" cy="49.2088" r="49.2088" fill="#F89303"/>
<rect x="49" y="136" width="1" height="37" fill="#F89303"/>
<path d="M49.6294 143L13.2054 79.9118H86.0534L49.6294 143Z" fill="#F89303"/>
<circle cx="49.5" cy="48.5" r="41.5" fill="white"/>
<path d="M43.055 57.18C42.015 57.18 41.0617 56.98 40.195 56.58C39.3417 56.18 38.6683 55.6333 38.175 54.94C37.6817 54.2333 37.435 53.46 37.435 52.62V47.38C37.435 46.54 37.6817 45.7733 38.175 45.08C38.6683 44.3733 39.3417 43.82 40.195 43.42C41.0617 43.02 42.015 42.82 43.055 42.82C44.095 42.82 45.0417 43.0267 45.895 43.44C46.7617 43.84 47.4417 44.3867 47.935 45.08C48.4417 45.7733 48.695 46.54 48.695 47.38V52.62C48.695 53.46 48.4417 54.2267 47.935 54.92C47.4417 55.6133 46.7617 56.1667 45.895 56.58C45.0417 56.98 44.095 57.18 43.055 57.18ZM43.055 54.84C43.9617 54.84 44.6817 54.6333 45.215 54.22C45.7483 53.7933 46.015 53.2333 46.015 52.54V47.46C46.015 46.7667 45.7483 46.2133 45.215 45.8C44.6817 45.3733 43.9617 45.16 43.055 45.16C42.1483 45.16 41.4283 45.3733 40.895 45.8C40.3617 46.2133 40.095 46.7667 40.095 47.46V52.54C40.095 53.2333 40.3617 53.7933 40.895 54.22C41.4283 54.6333 42.1483 54.84 43.055 54.84ZM56.1344 57.18C55.041 57.18 54.0677 57.02 53.2144 56.7C52.361 56.3667 51.6944 55.9067 51.2144 55.32C50.7344 54.72 50.4944 54.04 50.4944 53.28C50.4944 52.6533 50.6944 52.2 51.0944 51.92C51.5077 51.64 52.1744 51.5 53.0944 51.5C53.0544 51.7533 53.0344 52.0533 53.0344 52.4C53.0344 53.2 53.2944 53.8133 53.8144 54.24C54.3477 54.6533 55.121 54.86 56.1344 54.86C57.1344 54.86 57.8877 54.7 58.3944 54.38C58.9144 54.06 59.1744 53.5867 59.1744 52.96C59.1744 51.6533 58.2877 51 56.5144 51H55.8544C55.521 51 55.2477 50.8933 55.0344 50.68C54.821 50.4667 54.7144 50.1933 54.7144 49.86C54.7144 49.5133 54.8144 49.24 55.0144 49.04C55.2277 48.8267 55.5077 48.72 55.8544 48.72H56.5344C58.0277 48.72 58.7744 48.1133 58.7744 46.9C58.7744 46.3267 58.5544 45.8933 58.1144 45.6C57.6744 45.2933 57.041 45.14 56.2144 45.14C55.3077 45.14 54.6077 45.3 54.1144 45.62C53.621 45.9267 53.3744 46.3733 53.3744 46.96C53.3744 47.2133 53.401 47.5 53.4544 47.82C52.681 47.8467 52.0477 47.7133 51.5544 47.42C51.0744 47.1267 50.8344 46.7333 50.8344 46.24C50.8344 45.5733 51.061 44.98 51.5144 44.46C51.9677 43.94 52.601 43.54 53.4144 43.26C54.241 42.9667 55.1744 42.82 56.2144 42.82C57.2677 42.82 58.1944 42.9867 58.9944 43.32C59.7944 43.6533 60.4077 44.1333 60.8344 44.76C61.2744 45.3733 61.4944 46.0867 61.4944 46.9C61.4944 48.1533 60.8477 49.14 59.5544 49.86C60.3944 50.22 60.9877 50.64 61.3344 51.12C61.6944 51.6 61.8744 52.2133 61.8744 52.96C61.8744 53.8 61.6344 54.54 61.1544 55.18C60.6744 55.82 60.001 56.3133 59.1344 56.66C58.2677 57.0067 57.2677 57.18 56.1344 57.18Z" fill="black"/>
<circle r="6.5" transform="matrix(1 0 0 -1 49.5 172.5)" fill="white"/>
</svg>
