<svg width="99" height="179" viewBox="0 0 99 179" fill="none" xmlns="http://www.w3.org/2000/svg">
<circle cx="49.2088" cy="49.2088" r="49.2088" fill="#C4C4C4"/>
<path d="M49.6294 143L13.2054 79.9118H86.0534L49.6294 143Z" fill="#C4C4C4"/>
<circle cx="49.5" cy="48.5" r="41.5" fill="white"/>
<path d="M45.8284 57.18C44.7884 57.18 43.8351 56.98 42.9684 56.58C42.1151 56.18 41.4418 55.6333 40.9484 54.94C40.4551 54.2333 40.2084 53.46 40.2084 52.62V47.38C40.2084 46.54 40.4551 45.7733 40.9484 45.08C41.4418 44.3733 42.1151 43.82 42.9684 43.42C43.8351 43.02 44.7884 42.82 45.8284 42.82C46.8684 42.82 47.8151 43.0267 48.6684 43.44C49.5351 43.84 50.2151 44.3867 50.7084 45.08C51.2151 45.7733 51.4684 46.54 51.4684 47.38V52.62C51.4684 53.46 51.2151 54.2267 50.7084 54.92C50.2151 55.6133 49.5351 56.1667 48.6684 56.58C47.8151 56.98 46.8684 57.18 45.8284 57.18ZM45.8284 54.84C46.7351 54.84 47.4551 54.6333 47.9884 54.22C48.5218 53.7933 48.7884 53.2333 48.7884 52.54V47.46C48.7884 46.7667 48.5218 46.2133 47.9884 45.8C47.4551 45.3733 46.7351 45.16 45.8284 45.16C44.9218 45.16 44.2018 45.3733 43.6684 45.8C43.1351 46.2133 42.8684 46.7667 42.8684 47.46V52.54C42.8684 53.2333 43.1351 53.7933 43.6684 54.22C44.2018 54.6333 44.9218 54.84 45.8284 54.84ZM55.9278 45.3H54.9078C54.3478 45.3 53.9011 45.0933 53.5678 44.68C53.2345 44.2533 53.0678 43.6933 53.0678 43H57.3678C57.7145 43 58.0078 43.1133 58.2478 43.34C58.4878 43.5667 58.6078 43.8333 58.6078 44.14V55.2C58.6078 55.84 58.3745 56.3333 57.9078 56.68C57.4545 57.0133 56.7945 57.18 55.9278 57.18V45.3Z" fill="black"/>
<rect x="49" y="136" width="1" height="37" fill="#C4C4C4"/>
<circle r="6.5" transform="matrix(1 0 0 -1 49.5 172.5)" fill="white"/>
</svg>
