<svg width="99" height="179" viewBox="0 0 99 179" fill="none" xmlns="http://www.w3.org/2000/svg">
<circle cx="49.2088" cy="49.2088" r="49.2088" fill="#535144"/>
<rect x="49" y="136" width="1" height="37" fill="#535144"/>
<path d="M49.6294 143L13.2054 79.9118H86.0534L49.6294 143Z" fill="#535144"/>
<circle cx="49.5" cy="48.5" r="41.5" fill="white"/>
<path d="M43.1722 57.18C42.1322 57.18 41.1789 56.98 40.3122 56.58C39.4589 56.18 38.7855 55.6333 38.2922 54.94C37.7989 54.2333 37.5522 53.46 37.5522 52.62V47.38C37.5522 46.54 37.7989 45.7733 38.2922 45.08C38.7855 44.3733 39.4589 43.82 40.3122 43.42C41.1789 43.02 42.1322 42.82 43.1722 42.82C44.2122 42.82 45.1589 43.0267 46.0122 43.44C46.8789 43.84 47.5589 44.3867 48.0522 45.08C48.5589 45.7733 48.8122 46.54 48.8122 47.38V52.62C48.8122 53.46 48.5589 54.2267 48.0522 54.92C47.5589 55.6133 46.8789 56.1667 46.0122 56.58C45.1589 56.98 44.2122 57.18 43.1722 57.18ZM43.1722 54.84C44.0789 54.84 44.7989 54.6333 45.3322 54.22C45.8655 53.7933 46.1322 53.2333 46.1322 52.54V47.46C46.1322 46.7667 45.8655 46.2133 45.3322 45.8C44.7989 45.3733 44.0789 45.16 43.1722 45.16C42.2655 45.16 41.5455 45.3733 41.0122 45.8C40.4789 46.2133 40.2122 46.7667 40.2122 47.46V52.54C40.2122 53.2333 40.4789 53.7933 41.0122 54.22C41.5455 54.6333 42.2655 54.84 43.1722 54.84ZM51.8316 57C51.4582 57 51.1582 56.8933 50.9316 56.68C50.7182 56.4667 50.6116 56.1867 50.6116 55.84C50.6116 54.8 51.0182 53.8533 51.8316 53C52.6582 52.1333 53.9516 51.3 55.7116 50.5C56.5516 50.1267 57.1916 49.7867 57.6316 49.48C58.0716 49.16 58.3782 48.8333 58.5516 48.5C58.7382 48.1533 58.8316 47.74 58.8316 47.26C58.8316 46.5933 58.6049 46.08 58.1516 45.72C57.6982 45.3467 57.0582 45.16 56.2316 45.16C54.3382 45.16 53.3916 45.94 53.3916 47.5C53.3916 47.86 53.4182 48.1733 53.4716 48.44C53.3516 48.4667 53.1782 48.48 52.9516 48.48C52.3382 48.48 51.8116 48.3067 51.3716 47.96C50.9449 47.6 50.7316 47.16 50.7316 46.64C50.7316 45.9333 50.9716 45.2867 51.4516 44.7C51.9316 44.1133 52.5916 43.6533 53.4316 43.32C54.2716 42.9867 55.2049 42.82 56.2316 42.82C57.2849 42.82 58.2116 43.0067 59.0116 43.38C59.8249 43.74 60.4516 44.26 60.8916 44.94C61.3316 45.6067 61.5516 46.38 61.5516 47.26C61.5516 48.2467 61.1849 49.1467 60.4516 49.96C59.7182 50.76 58.6049 51.5 57.1116 52.18C55.9516 52.7133 55.0916 53.1867 54.5316 53.6C53.9849 54 53.6916 54.3733 53.6516 54.72H59.7316C60.3982 54.72 60.9049 54.9133 61.2516 55.3C61.5982 55.6867 61.7716 56.2533 61.7716 57H51.8316Z" fill="black"/>
<circle r="6.5" transform="matrix(1 0 0 -1 49.5 172.5)" fill="white"/>
</svg>
