<svg width="54" height="54" viewBox="0 0 54 54" fill="none" xmlns="http://www.w3.org/2000/svg">
<circle cx="27" cy="27" r="26.5" fill="#FE6E13" stroke="white"/>
<path d="M26.0977 26.9355C26.0977 29.0514 25.7363 30.6237 25.0137 31.6523C24.291 32.681 23.1615 33.1953 21.625 33.1953C20.1081 33.1953 18.985 32.694 18.2559 31.6914C17.5267 30.6823 17.1491 29.1784 17.123 27.1797V24.7676C17.123 22.6777 17.4844 21.125 18.207 20.1094C18.9297 19.0938 20.0625 18.5859 21.6055 18.5859C23.1354 18.5859 24.2617 19.0775 24.9844 20.0605C25.707 21.0371 26.0781 22.5475 26.0977 24.5918V26.9355ZM24.291 24.4648C24.291 22.9349 24.0762 21.8216 23.6465 21.125C23.2168 20.4219 22.5365 20.0703 21.6055 20.0703C20.681 20.0703 20.0072 20.4186 19.584 21.1152C19.1608 21.8118 18.9427 22.8828 18.9297 24.3281V27.2188C18.9297 28.7552 19.151 29.8913 19.5938 30.627C20.043 31.3561 20.7201 31.7207 21.625 31.7207C22.5169 31.7207 23.1777 31.3757 23.6074 30.6855C24.0436 29.9954 24.2715 28.9082 24.291 27.4238V24.4648ZM36.0391 28.2246H38.0117V29.6992H36.0391V33H34.2227V29.6992H27.748V28.6348L34.1152 18.7812H36.0391V28.2246ZM29.7988 28.2246H34.2227V21.252L34.0078 21.6426L29.7988 28.2246Z" fill="white"/>
</svg>
