<svg width="99" height="179" viewBox="0 0 99 179" fill="none" xmlns="http://www.w3.org/2000/svg">
<circle cx="49.2088" cy="49.2088" r="49.2088" fill="#B35011"/>
<path d="M49.6294 143L13.2054 79.9118H86.0534L49.6294 143Z" fill="#B35011"/>
<circle cx="49.5" cy="48.5" r="41.5" fill="white"/>
<path d="M42.9964 57.18C41.9564 57.18 41.0031 56.98 40.1364 56.58C39.2831 56.18 38.6097 55.6333 38.1164 54.94C37.6231 54.2333 37.3764 53.46 37.3764 52.62V47.38C37.3764 46.54 37.6231 45.7733 38.1164 45.08C38.6097 44.3733 39.2831 43.82 40.1364 43.42C41.0031 43.02 41.9564 42.82 42.9964 42.82C44.0364 42.82 44.9831 43.0267 45.8364 43.44C46.7031 43.84 47.3831 44.3867 47.8764 45.08C48.3831 45.7733 48.6364 46.54 48.6364 47.38V52.62C48.6364 53.46 48.3831 54.2267 47.8764 54.92C47.3831 55.6133 46.7031 56.1667 45.8364 56.58C44.9831 56.98 44.0364 57.18 42.9964 57.18ZM42.9964 54.84C43.9031 54.84 44.6231 54.6333 45.1564 54.22C45.6897 53.7933 45.9564 53.2333 45.9564 52.54V47.46C45.9564 46.7667 45.6897 46.2133 45.1564 45.8C44.6231 45.3733 43.9031 45.16 42.9964 45.16C42.0897 45.16 41.3697 45.3733 40.8364 45.8C40.3031 46.2133 40.0364 46.7667 40.0364 47.46V52.54C40.0364 53.2333 40.3031 53.7933 40.8364 54.22C41.3697 54.6333 42.0897 54.84 42.9964 54.84ZM56.1758 57.2C55.0158 57.2 54.0024 57.0267 53.1358 56.68C52.2691 56.32 51.6024 55.82 51.1358 55.18C50.6691 54.5267 50.4358 53.7667 50.4358 52.9C50.4358 52.1667 50.6358 51.52 51.0358 50.96C51.4358 50.4 52.0224 49.9533 52.7958 49.62C51.5424 48.9267 50.9158 47.9733 50.9158 46.76C50.9158 46 51.1358 45.32 51.5758 44.72C52.0291 44.12 52.6558 43.6533 53.4558 43.32C54.2558 42.9867 55.1624 42.82 56.1758 42.82C57.2158 42.82 58.1358 42.9867 58.9358 43.32C59.7358 43.6533 60.3558 44.12 60.7958 44.72C61.2358 45.3067 61.4558 45.9867 61.4558 46.76C61.4558 47.9733 60.8224 48.9267 59.5558 49.62C60.3291 49.9533 60.9158 50.4 61.3158 50.96C61.7291 51.52 61.9358 52.1667 61.9358 52.9C61.9358 53.7667 61.7024 54.5267 61.2358 55.18C60.7691 55.8333 60.1024 56.3333 59.2358 56.68C58.3691 57.0267 57.3491 57.2 56.1758 57.2ZM56.1758 48.7C57.0024 48.7 57.6491 48.54 58.1158 48.22C58.5958 47.9 58.8358 47.4533 58.8358 46.88C58.8358 46.2933 58.6091 45.8467 58.1558 45.54C57.7158 45.22 57.0558 45.06 56.1758 45.06C55.3224 45.06 54.6624 45.22 54.1958 45.54C53.7424 45.8467 53.5158 46.2933 53.5158 46.88C53.5158 47.44 53.7558 47.8867 54.2358 48.22C54.7291 48.54 55.3758 48.7 56.1758 48.7ZM56.1758 54.94C58.2691 54.94 59.3158 54.2267 59.3158 52.8C59.3158 52.0933 59.0424 51.5533 58.4958 51.18C57.9491 50.7933 57.1758 50.6 56.1758 50.6C55.2024 50.6 54.4358 50.8 53.8758 51.2C53.3158 51.5867 53.0358 52.12 53.0358 52.8C53.0358 53.4933 53.3024 54.0267 53.8358 54.4C54.3824 54.76 55.1624 54.94 56.1758 54.94Z" fill="black"/>
<rect x="49" y="136" width="1" height="37" fill="#B35011"/>
<circle r="6.5" transform="matrix(1 0 0 -1 49.5 172.5)" fill="white"/>
</svg>
