<svg width="54" height="54" viewBox="0 0 54 54" fill="none" xmlns="http://www.w3.org/2000/svg">
<circle cx="27" cy="27" r="26.5" fill="#2A2A29" stroke="white"/>
<path d="M26.0977 26.9355C26.0977 29.0514 25.7363 30.6237 25.0137 31.6523C24.291 32.681 23.1615 33.1953 21.625 33.1953C20.1081 33.1953 18.985 32.694 18.2559 31.6914C17.5267 30.6823 17.1491 29.1784 17.123 27.1797V24.7676C17.123 22.6777 17.4844 21.125 18.207 20.1094C18.9297 19.0938 20.0625 18.5859 21.6055 18.5859C23.1354 18.5859 24.2617 19.0775 24.9844 20.0605C25.707 21.0371 26.0781 22.5475 26.0977 24.5918V26.9355ZM24.291 24.4648C24.291 22.9349 24.0762 21.8216 23.6465 21.125C23.2168 20.4219 22.5365 20.0703 21.6055 20.0703C20.681 20.0703 20.0072 20.4186 19.584 21.1152C19.1608 21.8118 18.9427 22.8828 18.9297 24.3281V27.2188C18.9297 28.7552 19.151 29.8913 19.5938 30.627C20.043 31.3561 20.7201 31.7207 21.625 31.7207C22.5169 31.7207 23.1777 31.3757 23.6074 30.6855C24.0436 29.9954 24.2715 28.9082 24.291 27.4238V24.4648ZM35.502 18.7715V20.3047H35.1699C33.7637 20.3307 32.6439 20.7474 31.8105 21.5547C30.9772 22.362 30.4954 23.498 30.3652 24.9629C31.1139 24.1035 32.1361 23.6738 33.4316 23.6738C34.6686 23.6738 35.6549 24.11 36.3906 24.9824C37.1328 25.8548 37.5039 26.9811 37.5039 28.3613C37.5039 29.8262 37.1035 30.998 36.3027 31.877C35.5085 32.7559 34.4408 33.1953 33.0996 33.1953C31.7389 33.1953 30.6354 32.6745 29.7891 31.6328C28.9427 30.5846 28.5195 29.237 28.5195 27.5898V26.8965C28.5195 24.2793 29.0762 22.2806 30.1895 20.9004C31.3092 19.5137 32.9727 18.804 35.1797 18.7715H35.502ZM33.1289 25.1777C32.5104 25.1777 31.9408 25.3633 31.4199 25.7344C30.8991 26.1055 30.5378 26.571 30.3359 27.1309V27.7949C30.3359 28.9668 30.5996 29.9108 31.127 30.627C31.6543 31.3431 32.3118 31.7012 33.0996 31.7012C33.9134 31.7012 34.5514 31.4017 35.0137 30.8027C35.4824 30.2038 35.7168 29.4193 35.7168 28.4492C35.7168 27.4727 35.4792 26.6849 35.0039 26.0859C34.5352 25.4805 33.9102 25.1777 33.1289 25.1777Z" fill="white"/>
</svg>
