<svg width="54" height="54" viewBox="0 0 54 54" fill="none" xmlns="http://www.w3.org/2000/svg">
<circle cx="27" cy="27" r="26.5" fill="#75685F" stroke="white"/>
<path d="M26.0977 26.9355C26.0977 29.0514 25.7363 30.6237 25.0137 31.6523C24.291 32.681 23.1615 33.1953 21.625 33.1953C20.1081 33.1953 18.985 32.694 18.2559 31.6914C17.5267 30.6823 17.1491 29.1784 17.123 27.1797V24.7676C17.123 22.6777 17.4844 21.125 18.207 20.1094C18.9297 19.0938 20.0625 18.5859 21.6055 18.5859C23.1354 18.5859 24.2617 19.0775 24.9844 20.0605C25.707 21.0371 26.0781 22.5475 26.0977 24.5918V26.9355ZM24.291 24.4648C24.291 22.9349 24.0762 21.8216 23.6465 21.125C23.2168 20.4219 22.5365 20.0703 21.6055 20.0703C20.681 20.0703 20.0072 20.4186 19.584 21.1152C19.1608 21.8118 18.9427 22.8828 18.9297 24.3281V27.2188C18.9297 28.7552 19.151 29.8913 19.5938 30.627C20.043 31.3561 20.7201 31.7207 21.625 31.7207C22.5169 31.7207 23.1777 31.3757 23.6074 30.6855C24.0436 29.9954 24.2715 28.9082 24.291 27.4238V24.4648ZM29.2422 25.8711L29.9648 18.7812H37.25V20.4512H31.498L31.0684 24.3281C31.765 23.918 32.556 23.7129 33.4414 23.7129C34.737 23.7129 35.7656 24.1426 36.5273 25.002C37.2891 25.8548 37.6699 27.0104 37.6699 28.4688C37.6699 29.9336 37.2728 31.0892 36.4785 31.9355C35.6908 32.7754 34.5872 33.1953 33.168 33.1953C31.9115 33.1953 30.8861 32.847 30.0918 32.1504C29.2975 31.4538 28.8451 30.4902 28.7344 29.2598H30.4434C30.554 30.0736 30.8438 30.6888 31.3125 31.1055C31.7812 31.5156 32.3997 31.7207 33.168 31.7207C34.0078 31.7207 34.6654 31.4342 35.1406 30.8613C35.6224 30.2884 35.8633 29.4974 35.8633 28.4883C35.8633 27.5378 35.6029 26.776 35.082 26.2031C34.5677 25.6237 33.8809 25.334 33.0215 25.334C32.2337 25.334 31.6152 25.5065 31.166 25.8516L30.6875 26.2422L29.2422 25.8711Z" fill="white"/>
</svg>
