<svg width="25" height="23" viewBox="0 0 25 23" fill="none" xmlns="http://www.w3.org/2000/svg">
<path d="M14.2508 1.3418C13.2635 1.3418 12.1096 2.08081 11.9356 5.38106C12.0821 5.37756 12.2268 5.36708 12.3752 5.36708C12.54 5.36708 12.7104 5.37582 12.8734 5.38106C12.9851 3.39812 13.4796 2.2363 14.2508 2.2363C14.5804 2.2363 14.7673 2.40752 15.1153 2.76742C15.5219 3.18847 16.0531 3.7353 17.0934 3.94146C17.0769 3.8244 17.0641 3.69861 17.0641 3.57807C17.0641 3.38938 17.0843 3.21118 17.1227 3.03298C16.478 2.86525 16.1373 2.5106 15.804 2.16642C15.4322 1.78206 15.0054 1.3418 14.2508 1.3418ZM19.8775 1.78905C18.8426 1.78905 18.0019 2.59271 18.0019 3.57807C18.0019 4.56342 18.8426 5.36708 19.8775 5.36708C20.9124 5.36708 21.7531 4.56342 21.7531 3.57807C21.7531 2.59271 20.9124 1.78905 19.8775 1.78905ZM12.3752 6.26159C6.68617 6.26159 2.0595 9.02548 2.0595 12.9704C2.0595 16.9153 6.68617 20.1265 12.3752 20.1265C18.0642 20.1265 22.6909 16.9153 22.6909 12.9704C22.6909 9.02548 18.0642 6.26159 12.3752 6.26159ZM4.16952 6.68089C3.4845 6.68089 2.83427 6.94819 2.3379 7.42165C1.53016 8.19212 1.36348 9.29977 1.82505 10.217C2.53389 8.90842 3.75375 7.79203 5.32711 6.96042C4.96994 6.78746 4.57431 6.68089 4.16952 6.68089ZM20.5808 6.68089C20.176 6.68089 19.7804 6.78746 19.4233 6.96042C20.9966 7.79203 22.2165 8.90842 22.9253 10.217C23.3869 9.29977 23.2202 8.19212 22.4125 7.42165C21.9161 6.94819 21.2659 6.68089 20.5808 6.68089ZM8.62402 10.2869C9.40063 10.2869 10.0307 10.8879 10.0307 11.6286C10.0307 12.3694 9.40063 12.9704 8.62402 12.9704C7.84742 12.9704 7.21734 12.3694 7.21734 11.6286C7.21734 10.8879 7.84742 10.2869 8.62402 10.2869ZM16.1263 10.2869C16.9029 10.2869 17.533 10.8879 17.533 11.6286C17.533 12.3694 16.9029 12.9704 16.1263 12.9704C15.3497 12.9704 14.7197 12.3694 14.7197 11.6286C14.7197 10.8879 15.3497 10.2869 16.1263 10.2869ZM8.18443 15.2067C8.30166 15.2259 8.41705 15.2888 8.49215 15.3884C8.5416 15.4547 9.64057 16.8559 12.3752 16.8559C15.1464 16.8559 16.2472 15.4163 16.2582 15.4023C16.4066 15.2014 16.7051 15.1473 16.9176 15.2905C17.1282 15.432 17.1685 15.7028 17.0202 15.9055C16.9652 15.9806 15.6281 17.7504 12.3752 17.7504C9.12039 17.7504 7.78514 15.9806 7.73019 15.9055C7.58183 15.7028 7.6203 15.432 7.83276 15.2905C7.939 15.2189 8.06721 15.1874 8.18443 15.2067Z" fill="black"/>
</svg>
