<svg width="16" height="14" viewBox="0 0 16 14" fill="none" xmlns="http://www.w3.org/2000/svg">
<g clip-path="url(#clip0)">
<path d="M15.8694 2.65913C15.3107 2.8875 14.7152 3.03887 14.0945 3.11237C14.7331 2.75712 15.2205 2.19887 15.4496 1.526C14.8542 1.85675 14.1968 2.09038 13.4962 2.22075C12.9309 1.65988 12.1251 1.3125 11.2461 1.3125C9.5406 1.3125 8.16758 2.60225 8.16758 4.18338C8.16758 4.41088 8.18825 4.62962 8.23896 4.83787C5.67793 4.7215 3.4118 3.57788 1.88946 1.83575C1.62368 2.26538 1.46779 2.75713 1.46779 3.2865C1.46779 4.2805 2.01718 5.16162 2.83611 5.67175C2.34118 5.663 1.85565 5.52913 1.44431 5.31825C1.44431 5.327 1.44431 5.33838 1.44431 5.34975C1.44431 6.7445 2.51211 7.903 3.91236 8.16988C3.66161 8.23375 3.38832 8.26437 3.1047 8.26437C2.90748 8.26437 2.70839 8.25387 2.5215 8.21537C2.92063 9.352 4.05323 10.1876 5.39995 10.2148C4.35187 10.9786 3.02112 11.4389 1.58048 11.4389C1.32786 11.4389 1.08556 11.4284 0.843262 11.3995C2.20783 12.2194 3.82502 12.6875 5.56899 12.6875C11.2376 12.6875 14.3368 8.3125 14.3368 4.52025C14.3368 4.39337 14.3321 4.27087 14.3255 4.14925C14.9369 3.745 15.4506 3.24013 15.8694 2.65913Z" fill="white"/>
</g>
<defs>
<clipPath id="clip0">
<rect width="15.0262" height="14" fill="white" transform="translate(0.843262)"/>
</clipPath>
</defs>
</svg>
