<svg width="25" height="23" viewBox="0 0 25 23" fill="none" xmlns="http://www.w3.org/2000/svg">
<path d="M22.0696 3.72607C21.3076 4.15749 19.7788 4.74544 18.8801 4.91502C18.8537 4.92155 18.8322 4.92993 18.8068 4.93645C18.0126 4.18917 16.9244 3.72607 15.7199 3.72607C13.2924 3.72607 11.3241 5.60361 11.3241 7.91908C11.3241 8.04114 11.3133 8.2657 11.3241 8.38497C8.04864 8.38497 5.55568 6.74876 3.76802 4.65785C3.57362 5.12374 3.48864 5.85985 3.48864 6.55123C3.48864 7.85665 4.5583 9.13878 6.22386 9.93358C5.91712 10.0091 5.57913 10.0631 5.22745 10.0631C4.6599 10.0631 4.05913 9.92054 3.50915 9.48819C3.50915 9.50403 3.50915 9.51894 3.50915 9.53571C3.50915 11.3601 5.53907 12.6022 7.34432 12.9479C6.97799 13.1538 6.23949 13.1743 5.87902 13.1743C5.62504 13.1743 4.72632 13.0634 4.48602 13.0206C4.98812 14.5161 6.79923 15.3565 8.52535 15.3864C7.17532 16.3964 6.23851 16.771 3.47398 16.771H2.53229C4.27892 17.8388 6.50324 18.6355 8.73244 18.6355C15.9905 18.6355 20.1158 13.3588 20.1158 8.38497C20.1158 8.30483 20.1139 8.13711 20.111 7.96846C20.111 7.95169 20.1158 7.93585 20.1158 7.91908C20.1158 7.89392 20.108 7.86969 20.108 7.84454C20.1051 7.71781 20.1022 7.59948 20.0992 7.53798C20.871 7.00687 21.5401 6.34437 22.0696 5.58963C21.3613 5.88966 20.6013 6.09093 19.8032 6.18224C20.6179 5.71635 21.7755 4.60567 22.0696 3.72607Z" fill="black"/>
</svg>
