<svg width="25" height="23" viewBox="0 0 25 23" fill="none" xmlns="http://www.w3.org/2000/svg">
<path d="M12.4498 4.89185C12.4498 4.89185 6.47565 4.89065 5.00616 5.26138C4.18978 5.4787 3.53636 6.07954 3.31866 6.85934C2.92408 8.25277 2.92535 11.1938 2.92535 11.1938C2.92535 11.1938 2.92408 14.1346 3.31866 15.5408C3.53636 16.3078 4.18978 16.8968 5.00616 17.1013C6.47565 17.4721 12.4498 17.4709 12.4498 17.4709C12.4498 17.4709 18.4239 17.4721 19.8934 17.1013C20.7098 16.884 21.3632 16.3081 21.5809 15.5283C21.9755 14.1349 21.9742 11.1938 21.9742 11.1938C21.9742 11.1938 21.9755 8.26556 21.5809 6.85934C21.3632 6.07954 20.7098 5.4787 19.8934 5.26138C18.4239 4.89065 12.4498 4.89185 12.4498 4.89185ZM9.72851 7.54597L16.5317 11.1963L9.72851 14.8292V7.54597Z" fill="black"/>
</svg>
